<svg width="72" height="72" viewBox="0 0 72 72" fill="none" xmlns="http://www.w3.org/2000/svg">
<path d="M0 24C0 12.6863 0 7.02944 3.51472 3.51472C7.02944 0 12.6863 0 24 0H48C59.3137 0 64.9706 0 68.4853 3.51472C72 7.02944 72 12.6863 72 24V48C72 59.3137 72 64.9706 68.4853 68.4853C64.9706 72 59.3137 72 48 72H24C12.6863 72 7.02944 72 3.51472 68.4853C0 64.9706 0 59.3137 0 48V24Z" fill="#17192C"/>
<path fill-rule="evenodd" clip-rule="evenodd" d="M23 20C19.6863 20 17 22.6863 17 26V46C17 49.3137 19.6863 52 23 52H49C52.3137 52 55 49.3137 55 46V26C55 22.6863 52.3137 20 49 20H23ZM23 23C22.4477 23 22 23.4477 22 24V26C22 26.5523 22.4477 27 23 27H25C25.5523 27 26 26.5523 26 26V24C26 23.4477 25.5523 23 25 23H23ZM31 23C30.4477 23 30 23.4477 30 24V26C30 26.5523 30.4477 27 31 27H33C33.5523 27 34 26.5523 34 26V24C34 23.4477 33.5523 23 33 23H31ZM38 24C38 23.4477 38.4477 23 39 23H41C41.5523 23 42 23.4477 42 24V26C42 26.5523 41.5523 27 41 27H39C38.4477 27 38 26.5523 38 26V24ZM47 23C46.4477 23 46 23.4477 46 24V26C46 26.5523 46.4477 27 47 27H49C49.5523 27 50 26.5523 50 26V24C50 23.4477 49.5523 23 49 23H47ZM22 46C22 45.4477 22.4477 45 23 45H25C25.5523 45 26 45.4477 26 46V48C26 48.5523 25.5523 49 25 49H23C22.4477 49 22 48.5523 22 48V46ZM31 45C30.4477 45 30 45.4477 30 46V48C30 48.5523 30.4477 49 31 49H33C33.5523 49 34 48.5523 34 48V46C34 45.4477 33.5523 45 33 45H31ZM38 46C38 45.4477 38.4477 45 39 45H41C41.5523 45 42 45.4477 42 46V48C42 48.5523 41.5523 49 41 49H39C38.4477 49 38 48.5523 38 48V46ZM47 45C46.4477 45 46 45.4477 46 46V48C46 48.5523 46.4477 49 47 49H49C49.5523 49 50 48.5523 50 48V46C50 45.4477 49.5523 45 49 45H47ZM26.4735 39.853H28.8194L29.734 38.2042H32.8528L33.1276 39.853H35.4735L33.953 32H31.047L26.4735 39.853ZM32.6125 36.7624L32.1485 33.9786H32.0779L30.5338 36.7624H32.6125ZM36.4735 39.853H39.8989C40.84 39.853 41.6833 39.6971 42.4287 39.3852C43.1746 39.0708 43.7887 38.6196 44.271 38.0316C44.7563 37.4437 45.0785 36.7407 45.2375 35.9227C45.396 35.1072 45.3466 34.4068 45.0894 33.8214C44.8326 33.2334 44.3922 32.7835 43.7681 32.4716C43.1474 32.1572 42.365 32 41.4208 32H38L36.4735 39.853ZM40.1274 38.2349H39.0279L39.9253 33.6182H40.9932C41.5241 33.6182 41.9559 33.6936 42.2885 33.8444C42.6247 33.9927 42.8535 34.2355 42.975 34.5729C43.0969 34.9078 43.103 35.3577 42.9932 35.9227C42.8834 36.4876 42.7019 36.9401 42.4488 37.2801C42.1992 37.6175 41.8787 37.8616 41.4874 38.0125C41.0996 38.1607 40.6463 38.2349 40.1274 38.2349Z" fill="white"/>
</svg>
