<?xml version="1.0" encoding="UTF-8"?>
<svg id="Layer_2" data-name="Layer 2" xmlns="http://www.w3.org/2000/svg" viewBox="0 0 700 350">
  <defs>
    <style>
      .cls-1 {
        fill: none;
      }

      .cls-1, .cls-2, .cls-3, .cls-4, .cls-5 {
        stroke-width: 0px;
      }

      .cls-2 {
        fill: #0a34ff;
      }

      .cls-3 {
        fill: #fff;
      }

      .cls-4 {
        fill: #ff51ae;
      }

      .cls-5 {
        fill: #00ccd8;
      }
    </style>
  </defs>
  <g id="Layer_1-2" data-name="Layer 1">
    <g>
      <rect class="cls-4" width="700" height="350"/>
      <polygon class="cls-3" points="651.06 153.12 565.02 130.94 618.32 73.41 531.5 95.06 531.57 23.57 477.25 81.35 422.94 23.57 423.01 95.06 336.19 73.41 389.49 130.94 303.45 153.12 389.49 175.3 336.19 232.83 423.01 211.19 422.94 282.67 477.25 224.89 531.57 282.67 531.5 211.19 618.32 232.83 565.02 175.3 651.06 153.12"/>
      <g>
        <path class="cls-1" d="m424.5,209.67c-.93-.85-1.92-1.62-2.98-2.3-.62-.39-1.2-.83-1.77-1.29.57.46,1.15.89,1.77,1.29,1.06.68,2.06,1.45,2.98,2.3Z"/>
        <path class="cls-1" d="m243.93,206.51c-.4.3-.82.59-1.24.86-.44.29-.88.59-1.3.9.42-.32.86-.62,1.3-.9.42-.27.84-.56,1.24-.86Z"/>
        <polygon class="cls-1" points="407.52 248.4 408.25 247.67 425.73 230.2 408.25 247.67 407.52 248.4"/>
        <path class="cls-1" d="m428.14,214c1.02,1.59,1.85,3.33,2.43,5.17-.59-1.84-1.41-3.57-2.43-5.17Z"/>
        <path class="cls-1" d="m283.66,61.82c1.38-.79,2.98-1.25,4.69-1.25.59,0,1.16.05,1.72.16-.56-.1-1.13-.16-1.72-.16-1.71,0-3.31.45-4.69,1.25Z"/>
        <polygon class="cls-1" points="257.41 249.13 257.41 249.13 251.16 255.38 232.64 273.89 251.16 255.38 257.41 249.13"/>
        <path class="cls-2" d="m456.25,136.39c-16.1-16.1-37.93-25.14-60.7-25.14h-51.55v-9.87c6.22-3.47,11.32-8.71,14.62-15.1.79-1.52.39-3.34-.83-4.42.62-1.24,1.15-2.51,1.61-3.82,1.43.88,3.11,1.38,4.9,1.38,5.2,0,9.43-4.23,9.43-9.43s-4.23-9.42-9.43-9.42c-1.17,0-2.29.21-3.32.61-.17-1.15-.4-2.27-.69-3.38-.2-.83-.43-1.63-.71-2.43l-56.57-15.12,56.57,15.12c-.76-2.28-1.73-4.46-2.93-6.5-6.06-10.46-17.38-17.5-30.34-17.5-4.17,0-8.16.73-11.86,2.07h0s-.01,0-.01,0c-2.61.94-5.08,2.18-7.36,3.68l-28.74-8.79c-9.12-2.78-18.77,2.35-21.55,11.47-.51,1.68-.76,3.38-.76,5.05,0,7.39,4.78,14.23,12.21,16.5l11.75,3.59.27.17c-.87,1.42-1.36,3.1-1.36,4.88,0,5.2,4.22,9.43,9.42,9.43,1.81,0,3.48-.5,4.91-1.38.36,1.02.76,2.02,1.2,2.99-1.18,1.06-1.57,2.8-.86,4.31,3.77,7.88,10.15,14.05,18.08,17.55v8.37h-43.03c-22.76,0-44.6,9.04-60.69,25.14l-101.6,101.59c-20.59,20.59-20.59,53.99,0,74.58l6.52,6.51c20.59,20.59,53.98,20.59,74.57,0l45.19-45.19,18.51-18.51,6.25-6.25-1.45-1.45-23.31-23.3h0c.29-4.48,1.92-8.57,4.49-11.91.26-.33.52-.66.8-.98.69-.79,1.43-1.54,2.23-2.23.4-.34.81-.67,1.23-.99.42-.32.86-.62,1.3-.9.42-.27.84-.56,1.24-.86,1.21-.9,2.31-1.95,3.24-3.14l3.99-5.08v-40.62h161.88v40.62l4,5.08c.26.33.54.65.83.96.05.06.1.12.16.18.54.57,1.12,1.08,1.72,1.57.57.46,1.15.89,1.77,1.29,1.06.68,2.06,1.45,2.98,2.3.46.43.91.87,1.33,1.33.85.93,1.62,1.93,2.3,2.99,1.02,1.59,1.85,3.33,2.43,5.17.1.32.19.65.28.98.36,1.36.61,2.78.7,4.23l-5.82,5.82-17.48,17.47-.73.73-.73.73,1.56,1.56,4.69,4.7h0v25.29h-161.88v-25.3l-18.51,18.51v76.11h198.91v-76.11l45.19,45.19c20.59,20.59,53.99,20.59,74.58,0l6.51-6.51c20.59-20.59,20.59-53.99,0-74.58l-101.59-101.59Zm-167.9-75.83c-1.71,0-3.31.45-4.69,1.25,1.38-.79,2.98-1.25,4.69-1.25.59,0,1.16.05,1.72.16-.56-.1-1.13-.16-1.72-.16Z"/>
        <path class="cls-3" d="m382.09,211.46c-3.28,0-5.94,2.66-5.94,5.94,0,1.64.66,3.13,1.74,4.2,1.08,1.07,2.56,1.74,4.2,1.74h-1.14c-3.41,0-6.18,2.77-6.18,6.18,0,1.71.69,3.25,1.81,4.36,1.11,1.12,2.66,1.81,4.36,1.81h6.4c-2.37,0-4.31,1.92-4.31,4.31,0,1.19.49,2.26,1.26,3.05.78.78,1.86,1.26,3.05,1.26h10.65c2.99,1.9,6.48,3.09,10.22,3.34l.02.02,17.48-17.47,5.82-5.82c-.1-1.45-.34-2.87-.7-4.23-.09-.33-.18-.66-.28-.98-.59-1.84-1.41-3.57-2.43-5.17-.68-1.06-1.45-2.06-2.3-2.99-.43-.46-.87-.91-1.33-1.33-.93-.85-1.92-1.62-2.98-2.3-.62-.39-1.2-.83-1.77-1.29-.61-.49-1.19-1-1.72-1.57-.06-.06-.1-.12-.16-.18-.29-.31-.57-.63-.83-.96l-4-5.08v13.18h-30.95Z"/>
        <path class="cls-3" d="m362.8,266.74h10.46c.32,0,.62-.06.89-.18s.52-.28.73-.49c.41-.42.67-.99.67-1.63v-6.77c0-.16-.02-.31-.05-.46-.06-.3-.18-.57-.35-.82-.41-.61-1.11-1.01-1.9-1.01h-10.46c-.79,0-1.49.4-1.9,1.01-.16.24-.28.52-.35.82-.03.15-.05.3-.05.46v6.77c0,.64.26,1.21.67,1.63.41.42.99.67,1.62.67Z"/>
        <path class="cls-5" d="m251.16,255.38v25.3h161.88v-25.29h0s-4.69-4.7-4.69-4.7l-1.56-1.56.73-.73.73-.73-.02-.02c-3.75-.24-7.23-1.44-10.22-3.34h-10.65c-1.19,0-2.26-.49-3.05-1.26-.78-.78-1.26-1.86-1.26-3.05,0-2.38,1.93-4.31,4.31-4.31h-6.4c-1.7,0-3.25-.69-4.36-1.81-1.12-1.11-1.81-2.65-1.81-4.36,0-3.41,2.77-6.18,6.18-6.18h1.14c-1.64,0-3.12-.66-4.2-1.74-1.07-1.07-1.74-2.56-1.74-4.2,0-3.28,2.66-5.94,5.94-5.94h30.95v-53.79h-161.88v53.79h30.95c3.29,0,5.94,2.66,5.94,5.94,0,1.64-.66,3.13-1.74,4.2-1.07,1.07-2.56,1.74-4.2,1.74h1.15c3.4,0,6.17,2.77,6.17,6.18,0,1.71-.69,3.25-1.81,4.36-1.11,1.12-2.65,1.81-4.35,1.81h-6.31c2.34.06,4.2,1.96,4.2,4.31,0,1.19-.48,2.26-1.26,3.05-.78.78-1.85,1.26-3.05,1.26h-10.64c-2.99,1.9-6.48,3.09-10.22,3.34l-.02.03,1.45,1.45h0l-6.25,6.25Zm109.35,2.29c0-.16.02-.31.05-.46.06-.3.18-.57.35-.82.41-.61,1.11-1.01,1.9-1.01h10.46c.79,0,1.49.4,1.9,1.01.16.24.28.52.35.82.03.15.05.3.05.46v6.77c0,.64-.26,1.21-.67,1.63-.21.21-.45.38-.73.49s-.57.18-.89.18h-10.46c-.63,0-1.2-.26-1.62-.67-.41-.42-.67-.99-.67-1.63v-6.77Zm-20.89,6.77c0,.64-.25,1.21-.67,1.63-.21.21-.45.38-.73.49-.27.12-.58.18-.89.18h-10.45c-.32,0-.62-.06-.9-.18-.28-.12-.52-.28-.73-.49-.42-.42-.67-.99-.67-1.63v-6.77c0-.16.02-.31.05-.46.06-.3.18-.57.35-.82.41-.61,1.11-1.01,1.91-1.01h10.45c.79,0,1.49.4,1.9,1.01.16.24.28.52.34.82.03.15.05.3.05.46v6.77Zm-7.51-97c12.72,0,23.03,10.31,23.03,23.03,0,8.69-4.8,16.25-11.9,20.16-3.3,1.83-7.09,2.87-11.13,2.87s-7.83-1.04-11.13-2.87c-7.1-3.91-11.91-11.47-11.91-20.16,0-12.73,10.32-23.03,23.04-23.03Zm-43.45,90.23c0-.16.02-.31.05-.46.06-.3.18-.57.35-.82.41-.61,1.11-1.01,1.91-1.01h10.45c.79,0,1.49.4,1.9,1.01.16.24.28.52.34.82.03.15.05.3.05.46v6.77c0,.64-.25,1.21-.67,1.63-.21.21-.45.38-.73.49-.27.12-.58.18-.89.18h-10.45c-.32,0-.62-.06-.9-.18-.28-.12-.52-.28-.73-.49-.42-.42-.67-.99-.67-1.63v-6.77Z"/>
        <path class="cls-3" d="m339.23,256.39c-.41-.61-1.11-1.01-1.9-1.01h-10.45c-.79,0-1.49.4-1.91,1.01-.17.24-.28.52-.35.82-.03.15-.05.3-.05.46v6.77c0,.64.26,1.21.67,1.63.21.21.46.38.73.49.28.12.58.18.9.18h10.45c.32,0,.62-.06.89-.18.27-.12.52-.28.73-.49.41-.42.67-.99.67-1.63v-6.77c0-.16-.02-.31-.05-.46-.06-.3-.18-.57-.34-.82Z"/>
        <path class="cls-3" d="m320.97,210.64c3.3,1.83,7.09,2.87,11.13,2.87s7.83-1.04,11.13-2.87c7.1-3.92,11.9-11.47,11.9-20.16,0-12.73-10.32-23.03-23.03-23.03s-23.04,10.31-23.04,23.03c0,8.69,4.81,16.26,11.91,20.16Z"/>
        <path class="cls-3" d="m290.06,266.56c.28.12.58.18.9.18h10.45c.32,0,.62-.06.89-.18.27-.12.52-.28.73-.49.41-.42.67-.99.67-1.63v-6.77c0-.16-.02-.31-.05-.46-.06-.3-.18-.57-.34-.82-.41-.61-1.11-1.01-1.9-1.01h-10.45c-.79,0-1.49.4-1.91,1.01-.17.24-.28.52-.35.82-.03.15-.05.3-.05.46v6.77c0,.64.26,1.21.67,1.63.21.21.46.38.73.49Z"/>
        <path class="cls-3" d="m266.2,244.32h10.64c1.2,0,2.27-.49,3.05-1.26.78-.78,1.26-1.86,1.26-3.05,0-2.35-1.87-4.25-4.2-4.31h6.31c1.7,0,3.24-.69,4.35-1.81,1.12-1.11,1.81-2.65,1.81-4.36,0-3.41-2.77-6.18-6.17-6.18h-1.15c1.64,0,3.13-.66,4.2-1.74,1.07-1.07,1.74-2.56,1.74-4.2,0-3.28-2.65-5.94-5.94-5.94h-30.95v-13.18l-3.99,5.08c-.93,1.19-2.03,2.24-3.24,3.14-.4.3-.82.59-1.24.86-.44.29-.88.59-1.3.9-.42.32-.83.65-1.23.99-.79.69-1.54,1.43-2.23,2.23-.28.32-.54.64-.8.98-2.57,3.34-4.2,7.43-4.49,11.9h0s23.31,23.31,23.31,23.31l.02-.03c3.75-.24,7.23-1.44,10.22-3.34Z"/>
      </g>
    </g>
  </g>
</svg>