<?xml version="1.0" encoding="UTF-8"?>
<svg id="Layer_2" data-name="Layer 2" xmlns="http://www.w3.org/2000/svg" viewBox="0 0 700 350">
  <defs>
    <style>
      .cls-1, .cls-2, .cls-3, .cls-4, .cls-5, .cls-6 {
        fill: none;
      }

      .cls-1, .cls-7, .cls-8, .cls-9, .cls-10, .cls-11, .cls-12 {
        stroke-width: 0px;
      }

      .cls-2 {
        stroke-width: .9px;
      }

      .cls-2, .cls-3, .cls-4, .cls-6 {
        stroke: #fff;
      }

      .cls-2, .cls-4, .cls-6 {
        stroke-linecap: round;
        stroke-linejoin: round;
      }

      .cls-3 {
        stroke-width: .7px;
      }

      .cls-3, .cls-5 {
        stroke-miterlimit: 10;
      }

      .cls-4 {
        stroke-width: .48px;
      }

      .cls-5 {
        stroke: #5692f5;
      }

      .cls-6 {
        stroke-width: .69px;
      }

      .cls-7 {
        fill: #2c41ff;
      }

      .cls-8 {
        fill: #5692f5;
      }

      .cls-9 {
        fill: #0e0643;
      }

      .cls-10 {
        fill: #4286f5;
      }

      .cls-11 {
        fill: #fff;
      }

      .cls-12 {
        fill: #e7f2ff;
      }
    </style>
  </defs>
  <g id="Layer_1-2" data-name="Layer 1">
    <g>
      <g>
        <rect class="cls-1" width="350" height="350"/>
        <rect class="cls-10" width="350" height="350"/>
        <path class="cls-12" d="m175,233.33v116.67h175v-175h-116.67c-32.22,0-58.33,26.12-58.33,58.33Z"/>
        <path class="cls-12" d="m0,0v175h116.67c32.22,0,58.33-26.12,58.33-58.33V0H0Z"/>
        <path class="cls-7" d="m0,175c0,96.65,78.35,175,175,175h0H0v-175Z"/>
        <path class="cls-7" d="m350,175C350,78.35,271.65,0,175,0h0,175v175Z"/>
        <path class="cls-9" d="m175,350c96.65,0,175-78.35,175-175h0s0,175,0,175h-175Z"/>
        <path class="cls-7" d="m175,0C78.35,0,0,78.35,0,175h0S0,0,0,0h175Z"/>
      </g>
      <g>
        <rect class="cls-1" x="350" width="350" height="350"/>
        <rect class="cls-10" x="350" width="350" height="350"/>
        <path class="cls-12" d="m466.67,175h-116.67v175h175v-116.67c0-32.22-26.12-58.33-58.33-58.33Z"/>
        <path class="cls-12" d="m700,0h-175v116.67c0,32.22,26.12,58.33,58.33,58.33h116.67V0h0Z"/>
        <path class="cls-7" d="m525,0c-96.65,0-175,78.35-175,175h0s0-175,0-175h175Z"/>
        <path class="cls-7" d="m525,350c96.65,0,175-78.35,175-175h0s0,175,0,175h-175Z"/>
        <path class="cls-9" d="m350,175c0,96.65,78.35,175,175,175h0-175v-175Z"/>
        <path class="cls-7" d="m700,175C700,78.35,621.65,0,525,0h0,175v175Z"/>
      </g>
      <g>
        <circle class="cls-8" cx="175" cy="175" r="114.72"/>
        <path class="cls-7" d="m175,60.28c-63.36,0-114.72,51.36-114.72,114.72,0,63.36,51.36,114.72,114.72,114.72"/>
        <line class="cls-6" x1="273.75" y1="116.59" x2="75.78" y2="116.59"/>
        <line class="cls-4" x1="289.72" y1="175" x2="60.28" y2="175"/>
        <line class="cls-2" x1="74.74" y1="230.79" x2="275.26" y2="230.79"/>
        <path class="cls-3" d="m213.31,94.08c-10.65-21.79-24.89-33.8-40.11-33.8s-29.47,12-40.11,33.8c-10.57,21.62-16.38,50.36-16.38,80.92s5.82,59.3,16.38,80.92c10.65,21.79,24.89,33.8,40.11,33.8s29.47-12,40.11-33.8c10.57-21.62,16.38-50.36,16.38-80.92s-5.82-59.3-16.38-80.92Z"/>
      </g>
      <circle class="cls-3" cx="525.69" cy="176.13" r="107.9"/>
      <path class="cls-5" d="m525.69,68.23c59.59,0,107.9,48.31,107.9,107.9"/>
      <path class="cls-5" d="m525.69,284.04c-59.59,0-107.9-48.31-107.9-107.9"/>
      <circle class="cls-11" cx="454.5" cy="95.51" r="6.21"/>
    </g>
  </g>
</svg>