<?xml version="1.0" encoding="UTF-8"?>
<svg id="Layer_2" data-name="Layer 2" xmlns="http://www.w3.org/2000/svg" viewBox="0 0 700 350">
  <defs>
    <style>
      .cls-1 {
        fill: #7148e9;
      }

      .cls-1, .cls-2, .cls-3, .cls-4 {
        stroke-width: 0px;
      }

      .cls-2 {
        fill: #0e0643;
      }

      .cls-3 {
        fill: #c7a2ff;
      }

      .cls-4 {
        fill: #7d8aff;
      }
    </style>
  </defs>
  <g id="Layer_1-2" data-name="Layer 1">
    <g>
      <rect class="cls-1" width="700" height="350"/>
      <g>
        <path class="cls-3" d="m311.35,129.1c-.8,4.28-1.93,8.5-3.37,12.62l-42.3-11.33c1.76-4.01,2.9-8.26,3.38-12.61l42.29,11.33Z"/>
        <path class="cls-3" d="m307.98,84.17c1.44,4.11,2.57,8.33,3.37,12.62l-42.29,11.33c-.48-4.35-1.62-8.6-3.38-12.61l42.3-11.33Z"/>
        <path class="cls-3" d="m251.6,77.93l30.97-30.97c3.3,2.84,6.39,5.93,9.23,9.23l-30.97,30.97c-2.6-3.52-5.71-6.64-9.23-9.23Z"/>
        <path class="cls-3" d="m260.83,138.73l30.97,30.97c-2.84,3.3-5.93,6.39-9.23,9.23l-30.97-30.97c3.52-2.6,6.64-5.71,9.23-9.23Z"/>
        <path class="cls-3" d="m254.59,195.11c-4.11,1.44-8.33,2.57-12.62,3.37l-11.33-42.29c4.35-.48,8.6-1.62,12.61-3.38l11.33,42.3Z"/>
        <path class="cls-3" d="m143.64,141.72c-1.44-4.11-2.57-8.33-3.37-12.62l42.29-11.33c.48,4.35,1.62,8.6,3.38,12.61l-42.3,11.33Z"/>
        <path class="cls-3" d="m140.27,96.78c.8-4.28,1.93-8.5,3.37-12.62l42.3,11.33c-1.76,4.01-2.9,8.26-3.38,12.61l-42.29-11.33Z"/>
        <path class="cls-3" d="m209.65,198.48c-4.28-.8-8.5-1.93-12.62-3.37l11.33-42.3c4.01,1.76,8.26,2.9,12.61,3.38l-11.33,42.29Z"/>
        <path class="cls-3" d="m241.97,27.4c4.28.8,8.5,1.93,12.62,3.37l-11.33,42.3c-4.01-1.76-8.26-2.9-12.61-3.38l11.33-42.29Z"/>
        <path class="cls-3" d="m190.8,87.16l-30.97-30.97c2.84-3.3,5.93-6.39,9.23-9.23l30.97,30.97c-3.52,2.6-6.63,5.71-9.23,9.23Z"/>
        <path class="cls-3" d="m200.03,147.96l-30.97,30.97c-3.3-2.84-6.39-5.93-9.23-9.23l30.97-30.97c2.6,3.52,5.71,6.64,9.23,9.23Z"/>
        <path class="cls-3" d="m208.37,73.07l-11.33-42.3c4.11-1.44,8.33-2.57,12.62-3.37l11.33,42.29c-4.35.48-8.6,1.62-12.61,3.38Z"/>
      </g>
      <g>
        <path class="cls-2" d="m434.45,285.2h-167.76c-23.21,0-42.03-18.82-42.03-42.03v-115.73c0-14.84,12.03-26.86,26.86-26.86h198.09c14.84,0,26.86,12.03,26.86,26.86v115.73c0,23.21-18.82,42.03-42.03,42.03Z"/>
        <path class="cls-3" d="m460.56,128.32c-2.84-6.62-9.41-11.27-17.08-11.27h-185.84c-7.66,0-14.24,4.64-17.08,11.27-.6,1.4-.86,2.93-.86,4.46v32.63h146.19s38.19,0,38.19,0h37.34v-32.63c0-1.53-.26-3.05-.86-4.46Z"/>
        <path class="cls-1" d="m460.56,150.75c-2.84-6.62-9.41-11.27-17.08-11.27h-185.84c-7.66,0-14.24,4.64-17.08,11.27-.6,1.4-.86,2.93-.86,4.46v7.18s0,4.59,0,4.59v7.18s42.21,0,42.21,0h26.59s77.39,0,77.39,0h38.19s37.34,0,37.34,0v-7.18s0-4.59,0-4.59v-7.18c0-1.53-.26-3.05-.86-4.46Z"/>
        <path class="cls-2" d="m461.49,187.91h-.02s.01.03.02.05h-82.06c-.31,0-.57.19-.68.48-4.71,12.81-17.03,21.96-31.48,21.96-14.45,0-26.76-9.14-31.48-21.96-.11-.29-.37-.48-.68-.48h-75.34s.01-.03.02-.05h-.02s-15.05,0-15.05,0v81.49c0,13.55,10.98,24.53,24.53,24.53h202.75c13.55,0,24.53-10.98,24.53-24.53v-81.49s-15.05,0-15.05,0Z"/>
        <path class="cls-4" d="m460.56,171.68c-2.84-6.62-9.41-11.27-17.08-11.27h-185.84c-7.66,0-14.24,4.64-17.08,11.27-.6,1.4-.86,2.93-.86,4.46v11.77h.02s-.01.03-.02.05h68.8c3.92,0,7.59,2.05,9.53,5.46,5.77,10.14,16.67,16.97,29.16,16.97,12.5,0,23.39-6.84,29.16-16.97,1.94-3.41,5.61-5.46,9.53-5.46h75.52s-.01-.03-.02-.05h.02v-11.77c0-1.53-.26-3.05-.86-4.46Z"/>
      </g>
    </g>
  </g>
</svg>