<?xml version="1.0" encoding="UTF-8"?>
<svg id="Layer_2" data-name="Layer 2" xmlns="http://www.w3.org/2000/svg" xmlns:xlink="http://www.w3.org/1999/xlink" viewBox="0 0 700 350">
  <defs>
    <style>
      .cls-1 {
        fill: none;
      }

      .cls-1, .cls-2, .cls-3, .cls-4, .cls-5, .cls-6, .cls-7, .cls-8, .cls-9, .cls-10, .cls-11, .cls-12, .cls-13, .cls-14 {
        stroke-width: 0px;
      }

      .cls-2 {
        fill: url(#linear-gradient);
      }

      .cls-3 {
        fill: url(#linear-gradient-3);
      }

      .cls-3, .cls-4 {
        fill-rule: evenodd;
      }

      .cls-4 {
        fill: #3d62ff;
      }

      .cls-5 {
        fill: url(#linear-gradient-4);
      }

      .cls-6 {
        fill: url(#linear-gradient-2);
      }

      .cls-7 {
        fill: #f6f9fe;
      }

      .cls-8 {
        fill: #4565ff;
      }

      .cls-9 {
        fill: #7ffbd3;
      }

      .cls-10 {
        fill: #284cf9;
      }

      .cls-11 {
        fill: #0a34ff;
      }

      .cls-12 {
        fill: #848ebd;
      }

      .cls-13 {
        fill: #fff;
      }

      .cls-14 {
        fill: #6982ff;
      }
    </style>
    <linearGradient id="linear-gradient" x1="217.67" y1="249.17" x2="262.44" y2="249.17" gradientUnits="userSpaceOnUse">
      <stop offset="0" stop-color="#0f28e6"/>
      <stop offset="1" stop-color="#284bf9"/>
    </linearGradient>
    <linearGradient id="linear-gradient-2" x1="278.52" x2="323.3" xlink:href="#linear-gradient"/>
    <linearGradient id="linear-gradient-3" x1="460.77" y1="225.76" x2="610.9" y2="225.76" xlink:href="#linear-gradient"/>
    <linearGradient id="linear-gradient-4" x1="481.65" y1="212" x2="562.92" y2="212" xlink:href="#linear-gradient"/>
  </defs>
  <g id="Layer_1-2" data-name="Layer 1">
    <g>
      <rect class="cls-9" width="700" height="350"/>
      <g>
        <path class="cls-11" d="m208.54,164.8c-2.05,0-3.71,1.66-3.71,3.71v127.76c0,7.78,6.31,14.09,14.09,14.09h234.04c7.78,0,14.09-6.31,14.09-14.09v-127.76c0-2.05-1.66-3.71-3.71-3.71h-254.8Z"/>
        <path class="cls-8" d="m215.21,66.81h241.46c5.73,0,10.38,4.65,10.38,10.38v26.13H204.83v-26.13c0-5.73,4.65-10.38,10.38-10.38Z"/>
        <circle class="cls-11" cx="276.93" cy="84.48" r="7.71"/>
        <circle class="cls-11" cx="384.84" cy="84.48" r="7.71"/>
        <rect class="cls-8" x="204.83" y="102.79" width="262.23" height="94.07"/>
        <path class="cls-10" d="m438.64,296.42h-237.97c-7.39,0-13.01-5.99-11.8-12.57l15.96-87.23h262.23l-16.61,90.76c-.95,5.22-5.95,9.04-11.8,9.04Z"/>
        <path class="cls-8" d="m438.35,297.02h-237.97c-7.39,0-13.01-5.99-11.8-12.57l15.96-87.23h262.23l-16.61,90.76c-.95,5.22-5.95,9.04-11.8,9.04Z"/>
        <path class="cls-13" d="m467.05,196.86H204.83l-16.59-100.4c-.87-5.29,3.2-10.09,8.56-10.09h244.63c4.25,0,7.87,3.07,8.56,7.26l17.06,103.23Z"/>
        <path class="cls-2" d="m250.03,269.1h-26.93c-3.57,0-5.96-2.89-5.33-6.47l4.71-26.93c.62-3.57,4.03-6.47,7.6-6.47h26.93c3.57,0,5.96,2.89,5.33,6.47l-4.71,26.93c-.62,3.57-4.03,6.47-7.6,6.47Z"/>
        <path class="cls-12" d="m259.71,160.76h-25.83c-3.43,0-6.7-2.78-7.32-6.2l-4.66-25.83c-.62-3.43,1.66-6.2,5.08-6.2h25.83c3.43,0,6.7,2.78,7.32,6.2l4.66,25.83c.62,3.43-1.66,6.2-5.08,6.2Z"/>
        <path class="cls-12" d="m318.09,160.76h-25.83c-3.43,0-6.7-2.78-7.32-6.2l-4.66-25.83c-.62-3.43,1.66-6.2,5.08-6.2h25.83c3.43,0,6.7,2.78,7.32,6.2l4.66,25.83c.62,3.43-1.66,6.2-5.08,6.2Z"/>
        <path class="cls-6" d="m310.89,269.1h-26.93c-3.57,0-5.96-2.89-5.33-6.47l4.71-26.93c.62-3.57,4.03-6.47,7.6-6.47h26.93c3.57,0,5.96,2.89,5.33,6.47l-4.71,26.93c-.62,3.57-4.03,6.47-7.6,6.47Z"/>
        <path class="cls-9" d="m258.94,161.45h-25.83c-3.43,0-6.7-2.78-7.32-6.2l-4.66-25.83c-.62-3.43,1.66-6.2,5.08-6.2h25.83c3.43,0,6.7,2.78,7.32,6.2l4.66,25.83c.62,3.43-1.66,6.2-5.08,6.2Z"/>
        <path class="cls-7" d="m309.63,267.77h-26.93c-3.57,0-5.96-2.89-5.33-6.47l4.71-26.93c.62-3.57,4.03-6.47,7.6-6.47h26.93c3.57,0,5.96,2.89,5.33,6.47l-4.71,26.93c-.62,3.57-4.03,6.47-7.6,6.47Z"/>
        <path class="cls-11" d="m317.32,161.45h-25.83c-3.43,0-6.7-2.78-7.32-6.2l-4.66-25.83c-.62-3.43,1.66-6.2,5.08-6.2h25.83c3.43,0,6.7,2.78,7.32,6.2l4.66,25.83c.62,3.43-1.66,6.2-5.08,6.2Z"/>
        <path class="cls-11" d="m452.89,274.03l-108.07-31.26c-4.55-1.15-7.72-5.23-7.72-9.91h122.7"/>
        <g>
          <rect class="cls-9" x="372.02" y="89.93" width="18.43" height="138.65" transform="translate(644.3 477.84) rotate(-152.22)"/>
          <path class="cls-7" d="m411.11,70.11h18.43v24.17c0,3.16-2.57,5.73-5.73,5.73h-6.96c-3.16,0-5.73-2.57-5.73-5.73v-24.17h0Z" transform="translate(752.55 356.23) rotate(-152.22)"/>
          <path class="cls-7" d="m340.31,236.91h0c3.36,1.77,7.51.8,9.73-2.28l7.03-9.74-16.32-8.6-4.06,11.31c-1.28,3.57.26,7.55,3.62,9.32Z"/>
        </g>
        <path class="cls-9" d="m248.77,267.77h-26.93c-3.57,0-5.96-2.89-5.33-6.47l4.71-26.93c.62-3.57,4.03-6.47,7.6-6.47h26.93c3.57,0,5.96,2.89,5.33,6.47l-4.71,26.93c-.62,3.57-4.03,6.47-7.6,6.47Z"/>
        <g>
          <g>
            <path class="cls-3" d="m595.53,161.6c25.84,27.91,18.33,76.95-16.77,109.45-35.1,32.5-84.58,36.24-110.42,8.33l-7.57-8.17.83-.77h0l125.53-116.25h0l.83-.77,7.57,8.17h0Z"/>
            <g>
              <path class="cls-1" d="m531.72,208.93l28.29-26.2c-.37-.36-.75-.73-1.12-1.09l29.72-27.52-.64-.69-.83.77-125.53,116.25-.83.77,7.57,8.17c25.84,27.91,75.32,24.17,110.42-8.33,2.83-2.62,5.47-5.37,7.94-8.19-17.71-17.59-36.83-36.39-54.98-53.93Z"/>
              <path class="cls-7" d="m531.72,208.93c18.15,17.54,37.26,36.34,54.98,53.93,9.28-10.59,15.99-22.42,19.95-34.45-15.25-15.1-31.26-30.82-46.63-45.69l-28.29,26.2Z"/>
              <path class="cls-1" d="m560.01,182.73c15.37,14.87,31.38,30.58,46.63,45.69,8.04-24.42,4.8-49.63-11.12-66.82l-6.92-7.48-29.72,27.52c.37.36.75.73,1.12,1.09Z"/>
            </g>
            <path class="cls-4" d="m575.77,157.62c21.57,23.29,14.62,64.86-15.52,92.76s-72.11,31.65-93.68,8.36c-21.57-23.29-14.62-64.86,15.52-92.76,30.13-27.91,72.11-31.65,93.68-8.36h0Z"/>
            <ellipse class="cls-8" cx="521.58" cy="208.62" rx="86.68" ry="68.91" transform="translate(-2.86 409.95) rotate(-42.8)"/>
          </g>
          <path class="cls-5" d="m562.92,191.29l-62.31,50.36-18.96-36.79,9.59-7.62,14.4,27.75,52.7-42.66,4.58,8.95Z"/>
          <path class="cls-7" d="m561.52,189.89l-62.31,50.36-18.96-36.79,9.59-7.62,14.4,27.75,52.7-42.66,4.58,8.95Z"/>
        </g>
        <g>
          <g>
            <path class="cls-8" d="m115.99,117.89c-5.21-5.43-10.51-10.07-15.67-13.8h0c-3.28-2.37-6.51-4.37-9.61-5.96l-5.85-7.99-3.14-4.29-14.19,10.4c-3.1,2.27-4.94,5.97-5.6,10.69-.87,6.17.27,14.1,3.19,22.94h0c2,6.03,4.83,12.49,8.43,19.09l42.43-31.09Z"/>
            <path class="cls-8" d="m97.65,181.88c5.21,5.43,10.51,10.07,15.67,13.8,7.54,5.45,14.76,8.92,20.91,9.96,4.71.79,8.78.15,11.88-2.12l14.19-10.4-3.14-4.29-5.85-7.99c-.58-3.43-1.51-7.11-2.79-10.96-2-6.03-4.83-12.49-8.43-19.1-3.1-5.69-6.78-11.49-10.98-17.23-4.2-5.74-8.63-10.99-13.12-15.66l-42.43,31.09c3.1,5.69,6.78,11.49,10.98,17.23,4.2,5.74,8.63,10.99,13.12,15.66Z"/>
          </g>
          <ellipse class="cls-14" cx="120.49" cy="139.87" rx="28.27" ry="66.47" transform="translate(-59.37 98.26) rotate(-36.23)"/>
          <ellipse class="cls-8" cx="120.73" cy="138.67" rx="22.78" ry="59.89" transform="translate(-58.63 98.22) rotate(-36.25)"/>
          <ellipse class="cls-8" cx="118.57" cy="140.26" rx="20.65" ry="57.87" transform="translate(-60 97.3) rotate(-36.26)"/>
        </g>
      </g>
    </g>
  </g>
</svg>