<svg width="701" height="351" viewBox="0 0 701 351" fill="none" xmlns="http://www.w3.org/2000/svg">
<path d="M700.82 0.859985H0.820312V350.86H700.82V0.859985Z" fill="#FF567D"/>
<path d="M653.301 305.79V79.0601H550.471V305.79H653.301Z" stroke="white" stroke-width="1.49" stroke-linecap="round" stroke-linejoin="round"/>
<path d="M659.251 85.01V73.11H647.351V85.01H659.251Z" fill="#BBCAFF"/>
<path d="M558.891 85.01V73.11H546.991V85.01H558.891Z" fill="#BBCAFF"/>
<path d="M659.251 311.74V299.84H647.351V311.74H659.251Z" fill="#BBCAFF"/>
<path d="M556.421 311.74V299.84H544.521V311.74H556.421Z" fill="#BBCAFF"/>
<mask id="mask0_12727_73792" style="mask-type:luminance" maskUnits="userSpaceOnUse" x="0" y="0" width="701" height="351">
<path d="M685.34 0.859985H16.3003C7.75094 0.859985 0.820312 7.79061 0.820312 16.34V335.38C0.820312 343.929 7.75094 350.86 16.3003 350.86H685.34C693.89 350.86 700.82 343.929 700.82 335.38V16.34C700.82 7.79061 693.89 0.859985 685.34 0.859985Z" fill="white"/>
</mask>
<g mask="url(#mask0_12727_73792)">
<mask id="mask1_12727_73792" style="mask-type:luminance" maskUnits="userSpaceOnUse" x="-15" y="-189" width="731" height="730">
<path d="M463.616 -184.431L-9.46707 288.652C-15.5124 294.697 -15.5124 304.498 -9.46708 310.544L216.128 536.139C222.174 542.184 231.975 542.184 238.02 536.139L711.103 63.0562C717.148 57.0108 717.148 47.2095 711.103 41.1642L485.508 -184.431C479.462 -190.477 469.661 -190.477 463.616 -184.431Z" fill="white"/>
</mask>
<g mask="url(#mask1_12727_73792)">
<path d="M461.44 311.81L430.73 281.1C481.61 230.22 481.61 147.74 430.73 96.86C379.85 45.98 297.37 45.98 246.49 96.86L215.78 66.15C283.62 -1.68998 393.6 -1.68998 461.43 66.15C529.27 133.99 529.27 243.97 461.43 311.8L461.44 311.81Z" fill="#2046F9"/>
<path d="M246.49 281.1C297.37 331.98 379.85 331.98 430.73 281.1L461.44 311.81C393.6 379.65 283.62 379.65 215.79 311.81C147.95 243.97 147.95 133.99 215.79 66.16L246.5 96.87C195.62 147.75 195.62 230.23 246.5 281.11L246.49 281.1Z" fill="#2046F9"/>
<path d="M400.02 127.56C366.1 93.6399 311.11 93.6399 277.19 127.56L246.48 96.8499C297.36 45.9699 379.84 45.9699 430.72 96.8499C481.6 147.73 481.6 230.21 430.72 281.09L400.01 250.38C433.93 216.46 433.93 161.47 400.01 127.55L400.02 127.56Z" fill="#4286F5"/>
<path d="M246.49 281.1C195.61 230.22 195.61 147.74 246.49 96.86L277.2 127.57C243.28 161.49 243.28 216.48 277.2 250.4C311.12 284.32 366.11 284.32 400.03 250.4L430.74 281.11C379.86 331.99 297.38 331.99 246.5 281.11L246.49 281.1Z" fill="#4286F5"/>
<path d="M400.02 127.56C433.94 161.48 433.94 216.47 400.02 250.39L277.19 127.56C311.11 93.64 366.1 93.64 400.02 127.56Z" fill="#DDE4FF"/>
<path d="M277.201 250.39C243.281 216.47 243.281 161.48 277.201 127.56L400.031 250.39C366.111 284.31 311.121 284.31 277.201 250.39Z" fill="#DDE4FF"/>
<path d="M338.611 232.41C362.596 232.41 382.041 212.966 382.041 188.98C382.041 164.994 362.596 145.55 338.611 145.55C314.625 145.55 295.181 164.994 295.181 188.98C295.181 212.966 314.625 232.41 338.611 232.41Z" fill="#FF567D"/>
<path d="M369.321 219.688L246.496 342.513L277.206 373.222L400.03 250.398L369.321 219.688Z" fill="#759DFF"/>
<path d="M400.024 250.395L277.199 373.22L307.909 403.929L430.733 281.105L400.024 250.395Z" fill="#4286F5"/>
<path d="M430.728 281.098L307.903 403.923L338.613 434.632L461.437 311.808L430.728 281.098Z" fill="#00AD62"/>
<path d="M369.316 219.688L134.493 454.511L165.203 485.221L400.026 250.398L369.316 219.688Z" fill="#DDE4FF"/>
<path d="M400.019 250.391L165.196 485.214L195.906 515.924L430.729 281.101L400.019 250.391Z" fill="#4286F5"/>
<path d="M430.73 281.091L195.907 515.914L226.617 546.624L461.44 311.801L430.73 281.091Z" fill="#2046F9"/>
<path d="M475.937 -194L215.785 66.152L246.495 96.8616L506.646 -163.29L475.937 -194Z" fill="#2046F9"/>
<path d="M506.633 -163.29L246.481 96.8621L277.191 127.572L537.343 -132.58L506.633 -163.29Z" fill="#4286F5"/>
<path d="M537.343 -132.59L277.191 127.562L307.901 158.272L568.053 -101.88L537.343 -132.59Z" fill="#DDE4FF"/>
<path d="M276.75 235.85L96.29 416.31L127 447.01L361.82 212.19" stroke="white" stroke-width="0.7" stroke-miterlimit="10"/>
</g>
</g>
<g style="mix-blend-mode:multiply">
<path d="M161.4 115.88L129.6 219.95L104.76 181.39L63.0098 162.37L161.4 115.88Z" fill="url(#paint0_linear_12727_73792)"/>
</g>
<path d="M148.97 102.12L117.17 206.19L92.3301 167.63L50.5801 148.61L148.97 102.12Z" fill="white"/>
<defs>
<linearGradient id="paint0_linear_12727_73792" x1="72.2698" y1="159.61" x2="260.38" y2="180.94" gradientUnits="userSpaceOnUse">
<stop offset="0.13" stop-color="#AFC7F6"/>
<stop offset="1" stop-color="#F5F6FA"/>
</linearGradient>
</defs>
</svg>
