<svg xmlns="http://www.w3.org/2000/svg" width="779" height="390" fill="none" xmlns:v="https://vecta.io/nano"><style><![CDATA[.B{fill:#2a46dd}.C{opacity:.5}.D{fill:#7692ff}.E{opacity:.26}.F{fill:#506cff}.G{fill:#c0b2ff}]]></style><path d="M769.26.02H9.55A9.55 9.55 0 0 0 0 9.57v370.3c0 5.274 4.276 9.55 9.55 9.55h759.71c5.274 0 9.55-4.276 9.55-9.55V9.57c0-5.274-4.276-9.55-9.55-9.55z" fill="url(#B)"/><mask id="A" maskUnits="userSpaceOnUse" x="0" y="0" width="779" height="390"><path d="M769.26.34H9.55A9.55 9.55 0 0 0 0 9.89v370.3c0 5.274 4.276 9.55 9.55 9.55h759.71c5.274 0 9.55-4.276 9.55-9.55V9.89c0-5.274-4.276-9.55-9.55-9.55z" fill="#fff"/></mask><g mask="url(#A)"><g style="mix-blend-mode:multiply" class="E B"><path d="M550.21 329.68l-87.05 50.26-87.04-50.26 87.04-50.26 87.05 50.26z"/></g><g style="mix-blend-mode:multiply" class="E B"><path d="M263.06 329.68l-87.05 50.26-87.05-50.26 87.05-50.26 87.05 50.26z"/></g><path d="M149.71 341.65a7.21 7.21 0 1 0 0-14.42 7.21 7.21 0 1 0 0 14.42z" class="G"/><g style="mix-blend-mode:multiply" opacity=".42" class="B"><path d="M402.69 232.25l-87.04 50.26-87.05-50.26L315.65 182l87.04 50.25z"/></g><g style="mix-blend-mode:multiply" opacity=".42" class="B"><path d="M741.96 266.58l-87.04 50.26-87.05-50.26 87.05-50.26 87.04 50.26z"/></g><path d="M317.2 150.15a.49.49 0 0 1-.49-.49v-20.21c0-8.25 5.81-18.32 12.96-22.44l36.05-20.81c.23-.14.53-.06.67.18.14.23.05.53-.18.67l-36.05 20.81c-6.87 3.97-12.47 13.66-12.47 21.59v20.21a.49.49 0 0 1-.49.49z" class="B"/><path d="M286.26 233.31c12.818 0 23.21-10.392 23.21-23.21s-10.392-23.21-23.21-23.21-23.21 10.391-23.21 23.21 10.391 23.21 23.21 23.21z" fill="#ff4376"/><path d="M217.51 184.78l-64.34 37.14-64.33-37.14 64.33-37.15 64.34 37.15z" class="D"/><path d="M217.51 259.07l-64.34 37.14v-74.29l64.34-37.14v74.29z" class="B"/><path d="M153.17 221.92v74.29l-64.33-37.14v-74.29l64.33 37.14z" class="F"/><path d="M369.83 64.89l-59.65 34.44-59.65-34.44 59.65-34.44 59.65 34.44z" fill="#fcf8ff"/><path d="M369.831 133.77l-59.65 34.44V99.33l59.65-34.44v68.88z" class="G"/><path d="M310.18 99.33v68.88l-59.65-34.44V64.89l59.65 34.44z" fill="#9f93d3"/><path d="M193.54 116.86c9.681 0 17.53-7.848 17.53-17.53s-7.849-17.53-17.53-17.53-17.53 7.849-17.53 17.53 7.848 17.53 17.53 17.53z" fill="#fff"/><path d="M526.23 218.1l-64.42 37.19-64.42-37.19 64.42-37.2 64.42 37.2z" class="C D"/><path d="M526.23 292.49l-64.42 37.19v-74.39l64.42-37.19v74.39z" class="B C"/><path d="M461.81 255.29v74.39l-64.42-37.19V218.1l64.42 37.19z" fill="#5e78ff" class="C"/><path d="M500.91 232.72l-39.1 22.57-39.1-22.57 39.1-22.58 39.1 22.58z" class="D"/><path d="M500.91 277.87l-39.1 22.57v-45.15l39.1-22.57v45.15z" class="B"/><path d="M461.81 255.29v45.15l-39.1-22.57v-45.15l39.1 22.57z" class="F"/><path d="M382.79 309.32l-87.05 50.26-87.04-50.26 87.04-50.26 87.05 50.26z" fill="#8fa6ff" class="C"/><path d="M382.79 409.83l-87.05 50.26V359.58l87.05-50.26v100.51z" class="B C"/><path d="M295.74 359.58v100.51l-87.04-50.26V309.32l87.04 50.26z" fill="#617aff" class="C"/><path d="M348.57 329.08l-52.83 30.5-52.82-30.5 52.82-30.51 52.83 30.51z" fill="#96acff"/><path d="M348.57 390.08l-52.83 30.5v-61l52.83-30.5v61z" class="B"/><path d="M295.74 359.58v61l-52.82-30.5v-61l52.82 30.5z" fill="#6b83ff"/><path d="M434.54 152.48c7.958 0 14.41-6.452 14.41-14.41s-6.452-14.41-14.41-14.41-14.41 6.451-14.41 14.41 6.451 14.41 14.41 14.41z" fill="#fff"/><g style="mix-blend-mode:multiply" class="E B"><path d="M883.68 125.23l-87.05 50.26-87.04-50.26 87.04-50.25 87.05 50.25z"/></g><g style="mix-blend-mode:multiply" class="E B"><path d="M596.52 125.23l-87.04 50.26-87.05-50.26 87.05-50.25 87.04 50.25z"/></g><path d="M483.18 137.21a7.21 7.21 0 1 0 0-14.42 7.21 7.21 0 1 0 0 14.42z" class="G"/><g style="mix-blend-mode:multiply" opacity=".42" class="B"><path d="M736.159 27.81l-87.05 50.26-87.04-50.26 87.04-50.26 87.05 50.26z"/></g><path d="M619.729 28.86c12.819 0 23.211-10.391 23.211-23.21s-10.392-23.21-23.211-23.21S596.52-7.169 596.52 5.65s10.391 23.21 23.209 23.21z" fill="#ff4376"/><path d="M550.98-19.67l-64.34 37.15-64.33-37.15 64.33-37.14 64.34 37.14z" class="D"/><path d="M550.98 54.62l-64.34 37.15V17.48l64.34-37.15v74.29z" class="B"/><path d="M486.64 17.48v74.29l-64.33-37.15v-74.29l64.33 37.15z" class="F"/><path d="M859.699 13.65l-64.42 37.2-64.42-37.2 64.42-37.19 64.42 37.19z" class="C D"/><path d="M795.279 50.85v74.38l-64.42-37.19V13.65l64.42 37.2z" fill="#5e78ff" class="C"/><path d="M834.38 28.27l-39.1 22.58-39.1-22.58 39.1-22.57 39.1 22.57z" class="D"/><path d="M795.28 50.85v45.14l-39.1-22.57V28.27l39.1 22.58z" class="F"/><path d="M716.26 104.87l-87.05 50.26-87.04-50.26 87.04-50.25 87.05 50.25z" fill="#8fa6ff" class="C"/><path d="M716.26 205.39l-87.05 50.26V155.13l87.05-50.26v100.52z" class="B C"/><path d="M629.21 155.13v100.52l-87.04-50.26V104.87l87.04 50.26z" fill="#617aff" class="C"/><path d="M682.04 124.63l-52.83 30.5-52.83-30.5 52.83-30.5 52.83 30.5z" fill="#96acff"/><path d="M682.04 185.63l-52.83 30.5v-61l52.83-30.5v61z" class="B"/><path d="M629.21 155.13v61l-52.83-30.5v-61l52.83 30.5z" fill="#6b83ff"/></g><defs><radialGradient id="B" cx="0" cy="0" r="1" gradientUnits="userSpaceOnUse" gradientTransform="translate(-237.88 -275.48) scale(1500.11 1500.11)"><stop stop-color="#4573fe"/><stop offset=".27" stop-color="#4270fb"/><stop offset=".46" stop-color="#3c66f4"/><stop offset=".63" stop-color="#3157e9"/><stop offset=".78" stop-color="#2141d8"/><stop offset=".92" stop-color="#0d25c3"/><stop offset="1" stop-color="#0012b5"/></radialGradient></defs></svg>