<svg xmlns="http://www.w3.org/2000/svg" width="701" height="351" fill="none" xmlns:v="https://vecta.io/nano"><path d="M700.08.67H.08v350h700V.67z" fill="#16192c"/><mask id="A" maskUnits="userSpaceOnUse" x="0" y="0" width="701" height="351"><path d="M700.08.67H.08v350h700V.67z" fill="#fff"/></mask><g mask="url(#A)"><path d="M358.93 364.81c24.908 0 45.1-7.311 45.1-16.33s-20.192-16.33-45.1-16.33-45.1 7.311-45.1 16.33 20.192 16.33 45.1 16.33z" fill="#4728f9"/><path d="M358.93 294.27c74.271 0 134.48-21.799 134.48-48.69s-60.209-48.69-134.48-48.69-134.48 21.799-134.48 48.69 60.209 48.69 134.48 48.69z" fill="#5f35f7"/><path d="M358.931 223.72c123.635 0 223.86-36.287 223.86-81.05s-100.225-81.05-223.86-81.05-223.86 36.287-223.86 81.05 100.226 81.05 223.86 81.05z" fill="#4728f9"/><path d="M358.931 223.95c-59.82 0-116.07-8.44-158.37-23.75-42.38-15.34-65.72-35.77-65.72-57.53s23.34-42.18 65.72-57.53c42.31-15.32 98.55-23.75 158.37-23.75s116.07 8.44 158.37 23.75c42.38 15.34 65.72 35.77 65.72 57.53s-23.34 42.18-65.72 57.53c-42.31 15.32-98.55 23.75-158.37 23.75zm0-162.11c-123.31 0-223.63 36.26-223.63 80.82s100.32 80.82 223.63 80.82 223.63-36.26 223.63-80.82-100.32-80.82-223.63-80.82z" fill="#e0eee3"/><path d="M358.93 153.17c172.998 0 313.24-50.776 313.24-113.41S531.928-73.65 358.93-73.65 45.69-22.875 45.69 39.76s140.243 113.41 313.24 113.41z" stroke="#e0eee3" stroke-width=".69" stroke-miterlimit="10"/><path d="M603.43 57.42c26.201 0 47.44-21.24 47.44-47.44s-21.239-47.44-47.44-47.44-47.44 21.24-47.44 47.44 21.24 47.44 47.44 47.44z" fill="#5f35f7"/><path d="M656.23 75.45l-252.2 273.03M60.34 74.13l253.9 275.49" stroke="#e0eee3" stroke-width=".69" stroke-miterlimit="10"/><path d="M142.05 302.97l-74.07-74.76-82.9 22.21L-37 332.84l74.42 75.12 82.42-22.09 22.21-82.9z" fill="#5f35f7"/><path d="M-37 332.73l.07.07 82.39-22.07 22.11-82.52-82.49 22.1L-37 332.73z" fill="#dae0fe"/><path d="M468.513 51.259a6.97 6.97 0 1 0-1.224-13.886 6.97 6.97 0 0 0 1.224 13.886z" fill="#7f8dfc"/><path d="M644.01 279.92v-.04-.04-.04-.02-.05-.04c0-.01 0-.03-.01-.04v-.02-.02l-7.5-19.3v.03c0-.04-.02-.05-.02-.07a1.06 1.06 0 0 0-.12-.2c-.01-.02-.03-.04-.04-.05 0 0-.01-.02-.02-.03 0 0 0 .01.01.02-.21-.23-.54-.4-.99-.47l-17.09-2.59c-1.24-.19-2.88.45-3.66 1.43l-10.69 13.47c-.39.49-.49.97-.34 1.35l7.49 19.29c.15.39.56.67 1.18.77l17.09 2.59.2.02h.22.04.16.02.14.02.03.09.05c.03 0 .06 0 .09-.01h.04c.03 0 .06-.01.09-.02h.05c.04 0 .07-.02.11-.02l.15-.03h.03c.03 0 .06-.02.1-.03.02 0 .03 0 .05-.01.03 0 .05-.02.08-.03.02 0 .03-.01.05-.02.03 0 .05-.02.08-.03.01 0 .03-.01.04-.02l.08-.03c.02 0 .04-.01.05-.02.02-.01.05-.02.07-.03.02 0 .03-.01.04-.02.03-.01.06-.03.09-.04.02 0 .03-.02.05-.02.03-.01.05-.03.08-.04 0 0 .02 0 .03-.01 0 0 .01 0 .02-.01.04-.02.08-.04.12-.07 0 0 .01 0 .02-.01l.14-.08c.02 0 .03-.02.05-.02.02-.01.04-.03.06-.04s.03-.02.05-.03.04-.03.06-.04.03-.02.05-.04c.02-.01.04-.03.06-.04s.03-.02.05-.04c.02-.01.04-.03.06-.04 0 0 .02-.01.02-.02 0 0 .01 0 .02-.01.03-.03.06-.05.1-.08l.02-.02c.04-.03.07-.07.11-.1l.03-.03.08-.08c0-.01.02-.02.03-.03l.09-.11 10.69-13.47s.02-.02.02-.03c0 0 .01-.02.02-.03.01-.02.02-.03.04-.05.01-.01.02-.03.03-.04.01-.02.02-.03.03-.05 0-.01.02-.03.03-.04 0-.02.02-.03.03-.05 0-.01.02-.03.02-.04 0-.02.02-.03.02-.05 0 0 0-.01.01-.02.01-.05.02-.07.04-.1 0 0 0-.02.01-.03.01-.03.03-.07.04-.1v-.02c0-.02.01-.04.02-.06v-.03c0-.02 0-.04.01-.06v-.02-.02-.05-.04-.05-.02l-.01-.11zm-40.38-6.49a.95.95 0 0 1-.1-.17.87.87 0 0 0 .11.18l-.01-.01zm18.58 3.14h-.03-.2c-.09 0-.16-.01-.22-.02.15.02.31.03.47.03l-.02-.01zm.51-.04h-.05c-.03 0-.06 0-.09.01h-.05-.14-.02-.12c.16 0 .32-.01.48-.04l-.01.03zm.41-.08h-.02c-.04 0-.07.02-.11.02h-.05c-.03 0-.06.01-.09.02h-.04-.06a4.02 4.02 0 0 0 .5-.1l-.13.03v.03zm.56-.17s-.03.01-.05.02c-.03 0-.05.02-.08.03-.02 0-.03.01-.05.02-.03 0-.05.02-.08.03-.02 0-.03.01-.05.02-.03 0-.06.02-.1.03h-.03l.5-.16c-.02 0-.04.02-.06.02v-.01zm.52-.23s-.03.02-.05.02c-.03.01-.05.03-.08.04-.02 0-.03.02-.05.02-.03.01-.06.03-.09.04-.02 0-.03.01-.05.02s-.05.02-.07.03c-.02 0-.03.01-.05.02a3.96 3.96 0 0 0 .47-.21s-.01 0-.02.01l-.01.01zm.44-.26l-.05.03c-.02.01-.04.03-.06.04s-.03.02-.05.03l-.14.08s-.01 0-.02.01c-.02.01-.05.03-.08.04a2.96 2.96 0 0 0 .42-.26s-.02.01-.03.02l.01.01zm.43-.33l-.02.02c-.03.03-.06.06-.1.08-.01.01-.03.02-.04.03-.02.01-.04.03-.06.04s-.03.02-.05.04c-.02.01-.04.03-.06.04s-.03.02-.05.03c.13-.09.26-.19.38-.3v.02zm.24-.24l-.03.03c-.03.03-.05.06-.08.08l-.03.03a.9.9 0 0 1-.1.09l.17-.18.15-.16-.09.11h.01zm11.19-14.68v.04-.05.02-.01zm-.04-.19s0 .03.01.04v.04.04.04c0-.05-.02-.11-.05-.17v.02l.04-.01zm-.21 1.1l-.03.05c0 .01-.02.03-.03.04-.01.02-.02.03-.04.05-.01.02-.03.04-.04.06l.16-.23s-.01.02-.02.03zm.08-.14s-.02.03-.02.04c0 .02-.02.03-.03.05a.3.3 0 0 0 .04-.08c0-.01.02-.02.02-.03 0 0 0 .02-.01.02zm.04-.08l-.02.04s0-.01.01-.02c0-.02.02-.04.03-.05 0 .01 0 .02-.01.03h-.01zm.09-.24v.03c-.01.03-.02.07-.04.1 0 0 0 .02-.01.03v.02c.03-.07.05-.14.07-.2v.03l-.02-.01zm.04-.24v.05.04c0 .02 0 .04-.01.06v.03-.02l.03-.17-.02.01zm0-.04v.02-.09-.04.06.05zM37.418 151.735a5.92 5.92 0 1 0-1.04-11.795c-3.257.288-5.664 3.161-5.377 6.418a5.92 5.92 0 0 0 6.417 5.377z" fill="#5f35f7"/></g></svg>