<svg width="72" height="72" viewBox="0 0 72 72" fill="none" xmlns="http://www.w3.org/2000/svg">
<path d="M0 24C0 12.6863 0 7.02944 3.51472 3.51472C7.02944 0 12.6863 0 24 0H48C59.3137 0 64.9706 0 68.4853 3.51472C72 7.02944 72 12.6863 72 24V48C72 59.3137 72 64.9706 68.4853 68.4853C64.9706 72 59.3137 72 48 72H24C12.6863 72 7.02944 72 3.51472 68.4853C0 64.9706 0 59.3137 0 48V24Z" fill="#416EF0"/>
<path fill-rule="evenodd" clip-rule="evenodd" d="M30 37C30 36.4477 29.5523 36 29 36H20.2421C19.5561 36 19 36.5561 19 37.2421V49C19 50.6569 20.3431 52 22 52H50C51.6569 52 53 50.6569 53 49V37.2421C53 36.5561 52.4439 36 51.7579 36H43C42.4477 36 42 36.4477 42 37V40C42 40.5523 41.5523 41 41 41H31C30.4477 41 30 40.5523 30 40V37Z" fill="white"/>
<path d="M19 29C19 27.3431 20.3431 26 22 26H50C51.6569 26 53 27.3431 53 29V33C53 33.5523 52.5523 34 52 34H20C19.4477 34 19 33.5523 19 33V29Z" fill="white"/>
<path fill-rule="evenodd" clip-rule="evenodd" d="M28 20C27.4477 20 27 20.4477 27 21V26H29V22H43V26H45V21C45 20.4477 44.5523 20 44 20H28Z" fill="white"/>
</svg>
