<svg width="168" height="32" viewBox="0 0 168 32" fill="none" xmlns="http://www.w3.org/2000/svg">
<path fill-rule="evenodd" clip-rule="evenodd" d="M58.2275 5H37V27H58.2271V19.3205H54.7042C53.4899 22.122 50.7566 24.0732 47.6286 24.0732C43.3163 24.0732 39.824 20.4227 39.824 15.9846C39.824 11.5466 43.3163 7.92721 47.6286 7.92721C50.8172 7.92721 53.5506 9.94167 54.7654 12.8056H58.2275V5ZM78.7847 19.32C77.5398 22.1215 74.8369 24.0726 71.6789 24.0728C67.4879 24.0728 64.0563 20.6107 63.9045 16.2988H82.3075V5H61.08V26.9995H82.3075V19.32H78.7847ZM79.0568 13.5923H64.2371C65.1785 9.9729 68.3061 7.92725 71.6771 7.92725C75.048 7.92725 77.9637 9.84678 79.0568 13.5923ZM128.146 15.9842C128.146 20.4535 124.684 24.0728 120.371 24.0728C116.089 24.0728 112.597 20.4222 112.597 15.9842C112.597 11.5461 116.059 7.92677 120.371 7.92677C124.684 7.92677 128.146 11.5149 128.146 15.9842ZM131 5H109.773V27H131V5ZM103.596 19.32H107.119V26.9995H85.1323V5H88.7156V15.9842C88.7156 20.8942 92.2385 24.0415 96.4291 24.0415C99.6784 24.0415 102.533 22.2156 103.596 19.32Z" fill="black"/>
</svg>
