<svg width="72" height="72" viewBox="0 0 72 72" fill="none" xmlns="http://www.w3.org/2000/svg">
<path d="M0 24C0 12.6863 0 7.02944 3.51472 3.51472C7.02944 0 12.6863 0 24 0H48C59.3137 0 64.9706 0 68.4853 3.51472C72 7.02944 72 12.6863 72 24V48C72 59.3137 72 64.9706 68.4853 68.4853C64.9706 72 59.3137 72 48 72H24C12.6863 72 7.02944 72 3.51472 68.4853C0 64.9706 0 59.3137 0 48V24Z" fill="#58AFFF"/>
<path fill-rule="evenodd" clip-rule="evenodd" d="M56 36C56 36.7691 55.9566 37.5281 55.8721 38.2747C54.9425 38.0944 53.9823 38 53 38C49.3798 38 46.0591 39.2825 43.4675 41.4179C44.1495 37.5393 45.0298 32.1293 45.2704 29.6016C45.2967 29.3245 45.2636 28.97 45.2369 28.8143C45.2103 28.6586 45.1546 28.4368 44.9523 28.2727C44.7127 28.0782 44.3427 28.0372 44.1773 28.0401C43.425 28.0534 42.2709 28.4547 36.7167 30.7649C34.7714 31.574 30.8836 33.2487 25.0532 35.7889C24.1064 36.1654 23.6104 36.5337 23.5653 36.8938C23.489 37.5025 24.2512 37.7422 25.2891 38.0685L25.2892 38.0686C25.4304 38.1129 25.5766 38.1589 25.7266 38.2077C26.7477 38.5396 28.1214 38.928 28.8355 38.9434C29.4832 38.9574 30.2062 38.6903 31.0044 38.1422C36.4519 34.465 39.264 32.6063 39.4405 32.5663C39.5651 32.538 39.7377 32.5025 39.8546 32.6064C39.9715 32.7104 39.9601 32.9072 39.9477 32.96C39.8722 33.2819 36.8803 36.0634 35.3319 37.5029L35.3319 37.503L35.3316 37.5032L35.3313 37.5035C34.8489 37.952 34.5068 38.2701 34.4368 38.3427C34.28 38.5056 34.1202 38.6596 33.9666 38.8077C33.0179 39.7222 32.3065 40.408 34.006 41.528C34.8227 42.0661 35.4762 42.5112 36.1281 42.9551L36.1283 42.9552C36.8403 43.4401 37.5505 43.9238 38.4694 44.5261C38.7035 44.6796 38.927 44.839 39.1448 44.9942C39.4277 45.1959 39.7008 45.3906 39.9744 45.5562C38.7181 47.7497 38 50.291 38 53C38 53.9823 38.0944 54.9425 38.2747 55.8721C37.5281 55.9566 36.7691 56 36 56C24.9543 56 16 47.0457 16 36C16 24.9543 24.9543 16 36 16C47.0457 16 56 24.9543 56 36ZM64 53C64 59.0751 59.0751 64 53 64C46.9249 64 42 59.0751 42 53C42 46.9249 46.9249 42 53 42C59.0751 42 64 46.9249 64 53ZM53 52.3184C51.1492 52.3184 49.6357 50.9151 49.6357 49.1342C49.6357 47.4033 51.1657 46 53 46C54.8343 46 56.3643 47.389 56.3643 49.1271C56.3643 50.9151 54.8508 52.3184 53 52.3184ZM47.604 59C46.6005 59 46 58.5797 46 57.8816C46 56.0581 48.7309 53.5649 53 53.5649C57.2609 53.5649 60 56.0581 60 57.8816C60 58.5797 59.3995 59 58.396 59H47.604Z" fill="white"/>
</svg>
