<svg xmlns="http://www.w3.org/2000/svg" width="72" height="72" fill="none" xmlns:v="https://vecta.io/nano"><path d="M0 24C0 12.686 0 7.029 3.515 3.515S12.686 0 24 0h24c11.314 0 16.971 0 20.485 3.515S72 12.686 72 24v24c0 11.314 0 16.971-3.515 20.485S59.314 72 48 72H24c-11.314 0-16.971 0-20.485-3.515S0 59.314 0 48V24z" fill="#58afff"/><path fill-rule="evenodd" d="M56 36a20.22 20.22 0 0 1-.128 2.275c-.93-.18-1.89-.275-2.872-.275a14.94 14.94 0 0 0-9.532 3.418c.682-3.879 1.562-9.289 1.803-11.816.026-.277-.007-.632-.034-.787s-.082-.377-.285-.542c-.24-.195-.61-.236-.775-.233-.752.013-1.906.415-7.461 2.725l-11.664 5.024c-.947.377-1.443.745-1.488 1.105-.076.609.686.848 1.724 1.175h0l.437.139c1.021.332 2.395.72 3.109.736.648.014 1.371-.253 2.169-.801l8.436-5.576c.125-.028.297-.064.414.04s.105.301.093.354c-.075.322-3.067 3.103-4.616 4.543h0 0 0l-.895.839c-.157.163-.317.317-.47.465-.949.915-1.66 1.6.039 2.72l2.122 1.427h0l2.341 1.571c.234.154.458.313.675.468.283.202.556.396.83.562A14.93 14.93 0 0 0 38 53c0 .982.094 1.943.275 2.872A20.22 20.22 0 0 1 36 56c-11.046 0-20-8.954-20-20s8.954-20 20-20 20 8.954 20 20zm8 17c0 6.075-4.925 11-11 11s-11-4.925-11-11 4.925-11 11-11 11 4.925 11 11zm-11-.682c-1.851 0-3.364-1.403-3.364-3.184C49.636 47.403 51.166 46 53 46s3.364 1.389 3.364 3.127c0 1.788-1.514 3.191-3.364 3.191zM47.604 59C46.601 59 46 58.58 46 57.882c0-1.823 2.731-4.317 7-4.317 4.261 0 7 2.493 7 4.317C60 58.58 59.4 59 58.396 59H47.604z" fill="#fff"/></svg>