<svg width="24" height="24" viewBox="0 0 24 24" fill="none" xmlns="http://www.w3.org/2000/svg">
<path fill-rule="evenodd" clip-rule="evenodd" d="M12.3148 1.70082C13.5533 0.907134 15.2244 1.17396 16.1304 2.33522L18.2094 5H18.6669C20.5077 5 22 6.50193 22 8.35465V9.74951H18.503C16.7075 9.74951 15.252 11.2051 15.252 13.0006C15.252 14.7961 16.7075 16.2516 18.503 16.2516H22V17.6453C22 19.4981 20.5077 21 18.6669 21H5.33312C3.49229 21 2 19.4981 2 17.6453V8.35465C2 6.50193 3.49229 5 5.33312 5H7.16697L12.3148 1.70082ZM22 11.2495V14.7516H18.503C17.5359 14.7516 16.752 13.9676 16.752 13.0006C16.752 12.0335 17.5359 11.2495 18.503 11.2495H22ZM14.9478 3.2579L16.3069 5H9.9469L13.1242 2.96372C13.724 2.57932 14.5282 2.7201 14.9478 3.2579Z" fill="#3CBE78"/>
</svg>
