<svg width="72" height="72" viewBox="0 0 72 72" fill="none" xmlns="http://www.w3.org/2000/svg">
<path d="M0 24C0 12.6863 0 7.02944 3.51472 3.51472C7.02944 0 12.6863 0 24 0H48C59.3137 0 64.9706 0 68.4853 3.51472C72 7.02944 72 12.6863 72 24V48C72 59.3137 72 64.9706 68.4853 68.4853C64.9706 72 59.3137 72 48 72H24C12.6863 72 7.02944 72 3.51472 68.4853C0 64.9706 0 59.3137 0 48V24Z" fill="#292B3F"/>
<path fill-rule="evenodd" clip-rule="evenodd" d="M60 36C60 34.6022 59.0046 33.4035 57.6318 33.1464C56.3212 23.3702 48.6318 15.6804 38.8562 14.3697C38.5617 12.7935 37.0438 11.7525 35.4677 12.0511C34.2898 12.2709 33.3691 13.1917 33.1493 14.3697C23.3695 15.6804 15.6801 23.3702 14.3695 33.1464C12.7935 33.4409 11.7525 34.9589 12.0511 36.5351C12.2709 37.713 13.1917 38.6338 14.3695 38.8536C15.6801 48.6298 23.3695 56.3196 33.1451 57.6303C33.4396 59.2065 34.9576 60.2475 36.5336 59.9489C37.7115 59.7291 38.6322 58.8083 38.8521 57.6303C48.6276 56.3196 56.317 48.6298 57.6276 38.8536C59.0005 38.5923 59.9959 37.3978 59.9959 36H60ZM35.9986 13.453C36.7969 13.453 37.4441 14.094 37.4542 14.8899C37.4535 14.9205 37.4498 14.9537 37.4461 14.9835C37.4046 15.784 36.7244 16.3979 35.9239 16.3606C35.1815 16.3232 34.5843 15.7301 34.547 14.9835C34.547 14.9586 34.547 14.9296 34.5387 14.9047C34.5387 14.1001 35.1898 13.4489 35.9944 13.4489L35.9986 13.453ZM13.4529 36C13.4529 35.2078 14.0834 34.5566 14.8755 34.54C14.9129 34.5483 14.946 34.5524 14.9834 34.5524C15.7838 34.5939 16.3976 35.2742 16.3603 36.0747C16.323 36.8171 15.7299 37.4144 14.9834 37.4517C14.9585 37.4517 14.9336 37.4517 14.9046 37.46C14.0999 37.46 13.4488 36.8088 13.4488 36.0041L13.4529 36ZM35.9986 58.547C35.2064 58.547 34.5553 57.9124 34.5387 57.1202C34.547 57.087 34.5511 57.0496 34.5511 57.0165C34.5843 56.245 35.2272 55.6353 35.9986 55.6394C36.7908 55.6394 37.4378 56.2782 37.4544 57.0745H37.4627C37.4627 57.0745 37.464 57.0786 37.4651 57.0836C37.466 57.0873 37.4668 57.0917 37.4668 57.0953H37.4544C37.4544 57.8999 36.8032 58.5511 35.9986 58.5511V58.547ZM38.7442 56.1662C38.2424 54.6523 36.6083 53.8269 35.0903 54.3287C34.2235 54.6149 33.5433 55.2952 33.253 56.1662C24.199 54.9177 17.082 47.8002 15.8336 38.7458C17.3474 38.2439 18.1728 36.6097 17.6709 35.0917C17.3847 34.2248 16.7046 33.5446 15.8336 33.2542C17.082 24.2039 24.2032 17.0823 33.253 15.8338C33.7548 17.3477 35.3889 18.1731 36.9069 17.6713C37.7737 17.3851 38.4539 16.7048 38.7442 15.8338C47.7981 17.0823 54.9152 24.1998 56.1636 33.2542C54.6498 33.7561 53.8244 35.3903 54.3263 36.9084C54.6124 37.7752 55.2926 38.4554 56.1636 38.7458C54.9152 47.8002 47.794 54.9177 38.7442 56.1662ZM57.1217 37.46C57.0843 37.4517 57.0512 37.4476 57.0138 37.4476C56.2134 37.4061 55.5995 36.7258 55.6369 35.9253C55.6742 35.1829 56.2673 34.5856 57.0138 34.5483C57.0387 34.5483 57.0636 34.5483 57.0926 34.54C57.8972 34.54 58.5484 35.1953 58.5484 36C58.5484 36.7922 57.9138 37.4351 57.1258 37.4558L57.1217 37.46ZM35.9989 21C33.0432 21 30.1559 21.8724 27.7049 23.5232C26.3832 22.5353 24.5097 22.8004 23.5216 24.1219C22.726 25.1825 22.726 26.645 23.5216 27.7056C20.1595 32.722 20.1595 39.2737 23.5216 44.2944C22.5335 45.6158 22.803 47.4889 24.1247 48.4768C25.1855 49.2723 26.6441 49.2723 27.7049 48.4768C30.1559 50.1233 33.0475 51.0043 35.9989 51C44.2844 51 51 44.2858 51 36.0021C51 27.7185 44.2844 21.0043 35.9989 21.0043V21ZM24.8561 24.8617C25.1342 24.5837 25.5106 24.4255 25.9041 24.4212C26.3276 24.4255 26.7339 24.6009 27.0291 24.9045L27.0719 24.9473C27.6065 25.5845 27.5253 26.5381 26.8879 27.0727C26.3447 27.5303 25.5576 27.5474 24.993 27.1155L24.8561 26.9872C24.2658 26.4056 24.2616 25.4562 24.8433 24.866L24.8519 24.8574L24.8561 24.8617ZM24.8604 47.1383C24.2744 46.5481 24.2744 45.5902 24.8647 45.0043C24.8732 44.9957 24.8861 44.9829 24.8989 44.9743L24.9502 44.9273C25.2197 44.7006 25.5662 44.5766 25.9169 44.5766C26.7468 44.5723 27.4226 45.2395 27.4269 46.0691C27.4269 46.4241 27.3071 46.7662 27.0804 47.0399L26.9863 47.1383C26.4046 47.7284 25.4593 47.7327 24.869 47.1511L24.8604 47.1425V47.1383ZM35.9989 49.4946C33.3854 49.4946 30.8318 48.7377 28.646 47.3008C29.3346 45.804 28.6759 44.0335 27.1788 43.345C26.3875 42.9815 25.4806 42.9815 24.6893 43.345C21.7635 38.8802 21.7635 33.1112 24.6893 28.6465C25.8228 29.1639 27.1574 28.9244 28.0428 28.0478H28.0471C28.9154 27.154 29.1507 25.8239 28.646 24.6907C30.8275 23.2537 33.3854 22.4925 35.9989 22.4968C43.4546 22.4968 49.5029 28.5396 49.5029 35.9979C49.5029 43.4562 43.4588 49.4989 35.9989 49.4989V49.4946ZM44 36C44 40.4183 40.4183 44 36 44C31.5817 44 28 40.4183 28 36C28 31.5817 31.5817 28 36 28C40.4183 28 44 31.5817 44 36Z" fill="#F9FAFB"/>
</svg>
