<svg width="72" height="72" viewBox="0 0 72 72" fill="none" xmlns="http://www.w3.org/2000/svg">
<path d="M0 24C0 12.6863 0 7.02944 3.51472 3.51472C7.02944 0 12.6863 0 24 0H48C59.3137 0 64.9706 0 68.4853 3.51472C72 7.02944 72 12.6863 72 24V48C72 59.3137 72 64.9706 68.4853 68.4853C64.9706 72 59.3137 72 48 72H24C12.6863 72 7.02944 72 3.51472 68.4853C0 64.9706 0 59.3137 0 48V24Z" fill="#19BECD"/>
<path fill-rule="evenodd" clip-rule="evenodd" d="M14 30.751C14 25.3538 18.2726 21 23.541 21H48.4589C53.7399 21 58 25.3667 58 30.751V44.9974C58 48.3079 55.3658 51 52.1266 51C50.4881 51 49.2529 50.1627 48.3959 49.0678C47.664 48.1328 47.1343 47.01 46.6106 45.8998C46.521 45.7099 46.4316 45.5204 46.3414 45.3323C46.2384 45.1194 46.1365 44.9044 46.0348 44.6897C45.5642 43.6966 45.0965 42.7095 44.5265 41.9575C43.8459 41.0558 43.1023 40.5019 41.8671 40.5019H30.1329C28.9103 40.5019 28.1667 41.0429 27.4735 41.9575C26.9189 42.6891 26.4612 43.6516 26.0034 44.6141C25.8889 44.8547 25.7745 45.0953 25.6586 45.3323C25.5684 45.5204 25.479 45.7099 25.3895 45.8997C24.8657 47.0099 24.336 48.1328 23.6041 49.0678C22.7471 50.1627 21.5245 51 19.8734 51C16.6342 51 14 48.3079 14 44.9974V30.751ZM33 25C33 24.4477 33.4477 24 34 24H38C38.5523 24 39 24.4477 39 25C39 25.5523 38.5523 26 38 26H34C33.4477 26 33 25.5523 33 25ZM49.0057 26C50.106 26 51 26.9054 51 28.0057C51 29.106 50.0946 30 49.0057 30C47.9169 30 47 29.0946 47 28.0057C47 26.9169 47.9054 26 49.0057 26ZM26.7308 30.7308H24.4872C24.4103 30.7308 24.3462 30.6923 24.3205 30.6667C24.2949 30.641 24.2563 30.5897 24.2563 30.5V28.2692C24.2563 27.5641 23.7051 27 23 27C22.2948 27 21.7307 27.5513 21.7307 28.2692V30.5128C21.7307 30.6026 21.6923 30.6538 21.6667 30.6795C21.641 30.7051 21.5897 30.7436 21.5 30.7436H19.2564C18.5513 30.7436 18 31.2949 18 32C18 32.7051 18.5513 33.2692 19.2564 33.2692H21.5C21.6282 33.2692 21.7307 33.3718 21.7307 33.5V35.7308C21.7307 36.4359 22.282 37 23 37C23.7179 37 24.2563 36.4487 24.2563 35.7308V33.5C24.2563 33.3718 24.359 33.2692 24.4872 33.2692H26.7308C27.4359 33.2692 28 32.7179 28 32C28 31.282 27.4487 30.7436 26.7308 30.7436V30.7308ZM47 32.0057C47 30.9054 46.0946 30 44.9943 30C43.9055 30 43 30.9169 43 32.0057C43 33.0946 43.894 34 44.9943 34C46.0946 34 47 33.106 47 32.0057ZM53 30C54.1034 30 55 30.9054 55 32.0057C55 33.106 54.0919 34 53 34C51.908 34 51 33.0946 51 32.0057C51 30.9169 51.908 30 53 30ZM51 35.9943C51 34.9054 50.106 34 49.0057 34C47.9054 34 47 34.894 47 35.9943C47 37.0946 47.9169 38 49.0057 38C50.0946 38 51 37.0831 51 35.9943Z" fill="white"/>
</svg>
