<svg width="72" height="72" viewBox="0 0 72 72" fill="none" xmlns="http://www.w3.org/2000/svg">
<path d="M0 24C0 12.6863 0 7.02944 3.51472 3.51472C7.02944 0 12.6863 0 24 0H48C59.3137 0 64.9706 0 68.4853 3.51472C72 7.02944 72 12.6863 72 24V48C72 59.3137 72 64.9706 68.4853 68.4853C64.9706 72 59.3137 72 48 72H24C12.6863 72 7.02944 72 3.51472 68.4853C0 64.9706 0 59.3137 0 48V24Z" fill="#FCC018"/>
<path fill-rule="evenodd" clip-rule="evenodd" d="M44.3478 29.6411H44.5342L44.531 29.6379C50.5819 29.6379 55.3892 35.013 54.3513 41.186V41.1955H54.3481C53.5415 46.0144 49.1166 49.4124 44.1903 49.3774H44.1261C43.0688 49.3774 42.0598 48.9483 41.3239 48.1918C38.721 45.5312 37.4067 42.7086 37.426 39.7969C37.4549 35.6456 40.1478 32.2127 41.6549 30.6074C41.822 30.4262 42.0534 30.2737 42.2912 30.1433C42.9178 29.7969 43.6312 29.6411 44.3478 29.6411ZM44.5117 35.6806C44.5117 36.2527 44.9808 36.7168 45.5593 36.7168C46.1377 36.7168 46.6069 36.2527 46.6069 35.6806C46.6069 35.1084 46.1377 34.6443 45.5593 34.6443C44.9808 34.6443 44.5117 35.1084 44.5117 35.6806ZM33.797 48.2552C35.2109 48.589 36.7245 48.8528 38.328 49.0372H38.3408C38.4212 49.0467 38.4758 48.9513 38.4212 48.8909C36.0014 46.0429 34.79 42.9913 34.806 39.7841C34.8157 38.2011 35.1274 36.7167 35.6126 35.3689C35.6447 35.2895 35.5483 35.245 35.4937 35.2895L31.7339 38.449C31.6472 38.5126 31.5926 38.5953 31.5765 38.6938C30.9145 41.5419 31.5668 44.6856 33.5174 48.0454C33.5721 48.1471 33.6749 48.2298 33.7938 48.2552H33.797ZM29.9768 46.8565C29.1509 44.8985 28.7171 42.9977 28.6818 41.1572C28.6818 41.0936 28.6175 41.0587 28.5629 41.0936C28.0198 41.4878 25.7158 43.128 24.5364 43.4172C24.3565 43.4649 24.289 43.6842 24.4272 43.8019C25.8883 45.0915 27.6864 46.1685 29.8118 47.0137L29.8065 47.0155H29.8161L29.8118 47.0137L29.8161 47.0123C29.919 47.0568 30.0089 46.9551 29.9736 46.8565H29.9768Z" fill="#FCC018"/>
<path d="M43.187 37.1233C43.4248 38.3884 44.4627 39.4151 45.7417 39.663C48.0393 40.1017 50.0156 38.1436 49.585 35.8645C49.3472 34.5994 48.2996 33.5727 47.0207 33.3343C44.723 32.9052 42.7564 34.8537 43.1838 37.1328V37.1233H43.187ZM45.5617 34.6376C46.1402 34.6376 46.6093 35.1017 46.6093 35.6738C46.6093 36.246 46.1402 36.7101 45.5617 36.7101C44.9833 36.7101 44.5142 36.246 44.5142 35.6738C44.5142 35.1017 44.9833 34.6376 45.5617 34.6376Z" fill="#15162E"/>
<path d="M37.6358 29.6753L22.8442 29.6213H22.4104C19.3415 29.6213 16.7997 32.0084 16.6486 35.0472C16.4815 38.1973 18.9463 40.9023 22.1276 41.0676V41.0772H22.4297C23.8725 41.0772 25.145 40.5272 26.3276 39.5673L37.7354 29.9519C37.8446 29.8629 37.7804 29.6785 37.6358 29.6785V29.6753Z" fill="#F8F9F9"/>
<path d="M46.6089 35.6802C46.6089 35.108 46.1397 34.6439 45.5613 34.6439C44.9828 34.6439 44.5137 35.108 44.5137 35.6802C44.5137 36.2523 44.9828 36.7164 45.5613 36.7164C46.1397 36.7164 46.6089 36.2523 46.6089 35.6802Z" fill="#F8F9F9"/>
<path d="M58.4858 22.4698C57.1555 21.8881 55.703 22.4698 55.0924 23.6555C52.3706 23.9988 49.9155 25.2035 47.8686 27.2187C47.7368 27.3491 47.5472 27.4031 47.3737 27.365C47.1327 27.3109 46.6282 27.2251 46.6121 27.2187C46.4643 27.1933 46.445 27.0185 46.5125 26.8087C47.017 25.3338 47.8075 24.0496 48.9322 22.9816C49.6038 23.22 50.3654 23.1914 51.066 22.8068C52.03 22.2791 52.5731 21.1475 52.3513 20.0858C52.03 18.4711 50.3558 17.6097 48.8776 18.1723C47.7175 18.6205 47.0588 19.7966 47.2484 20.9663C45.5292 22.5398 44.3434 24.5296 43.7361 26.8214C43.7007 26.9517 43.5882 27.0407 43.4597 27.0407H42.2C40.995 27.0407 39.6132 27.0407 38.135 27.0662L22.8743 27.0121C22.7264 27.0121 22.5818 27.0026 22.4308 27.0026C17.9641 27.0058 14.2493 30.4578 14.0115 34.9111C13.7994 38.9575 16.5373 42.4795 20.3549 43.4362C20.4352 43.4553 20.4738 43.5348 20.4352 43.6111C19.9661 44.4026 17.5656 48.4108 16.7655 49.7586C16.6755 49.9144 16.8201 50.0955 16.9968 50.032L24.6802 47.435C24.7702 47.4096 24.8666 47.4159 24.9469 47.47C29.8218 50.5755 36.5765 51.9233 43.9578 51.9996C50.6129 52.0536 56.4806 47.2252 57.0655 40.6581C57.5154 35.5659 54.8868 31.0427 50.8153 28.7095C50.6129 28.5919 50.5839 28.3058 50.7703 28.1628C52.12 27.1361 53.6303 26.494 55.2756 26.2683C55.613 26.761 56.1207 27.1361 56.7474 27.2887C58.2802 27.6924 59.8548 26.6307 59.993 24.9969C60.0733 23.9415 59.4595 22.8989 58.4858 22.4762V22.4698ZM22.1287 41.0713C18.9474 40.906 16.4827 38.201 16.6498 35.051C16.8072 32.0122 19.3427 29.625 22.4115 29.625H22.8453L37.6369 29.679C37.7847 29.679 37.849 29.8634 37.7365 29.9524L26.3287 39.5678C25.1462 40.5278 23.8736 41.0777 22.4308 41.0777H22.1287V41.0681V41.0713ZM29.8218 47.0154C27.6977 46.1699 25.8949 45.0923 24.4328 43.8018C24.2914 43.6842 24.3621 43.468 24.542 43.4172C25.7214 43.1279 28.0254 41.4846 28.5685 41.0936C28.6231 41.0586 28.6874 41.0936 28.6874 41.1572C28.7228 42.9976 29.1566 44.8984 29.9824 46.8565C30.0178 46.955 29.9278 47.0567 29.825 47.0122L29.8218 47.0154ZM38.3278 49.037C36.7243 48.8527 35.2107 48.5889 33.7968 48.2551C33.6779 48.2297 33.5751 48.147 33.5205 48.0453C31.5699 44.6823 30.9175 41.5418 31.5795 38.6937C31.5988 38.5952 31.6502 38.5093 31.737 38.4489L35.4967 35.2894C35.5514 35.2449 35.6446 35.2894 35.6156 35.3688C35.1272 36.7197 34.8155 38.2042 34.8091 39.784C34.7898 42.9881 36.0045 46.0427 38.4242 48.8908C38.4788 48.9544 38.4242 49.0466 38.3439 49.037H38.331H38.3278ZM54.3533 41.1953C53.5468 46.0141 49.1218 49.4121 44.1956 49.3772H44.1313C43.0741 49.3772 42.0651 48.948 41.3292 48.1915C38.7263 45.531 37.412 42.7052 37.4312 39.7967C37.4569 35.6422 40.153 32.2092 41.6602 30.6072C41.8273 30.4228 42.0586 30.2734 42.2964 30.1431C42.923 29.7998 43.6364 29.6409 44.353 29.6409H44.5394C50.5904 29.6409 55.3977 35.0128 54.3598 41.1889V41.1985H54.3565L54.3533 41.1953Z" fill="#15162E"/>
</svg>
