<svg width="24" height="24" viewBox="0 0 24 24" fill="none" xmlns="http://www.w3.org/2000/svg">
<path fill-rule="evenodd" clip-rule="evenodd" d="M5.84615 2C3.72198 2 2 3.72198 2 5.84615V18.1538C2 20.278 3.72198 22 5.84615 22H18.1538C20.278 22 22 20.278 22 18.1538V5.84615C22 3.72198 20.278 2 18.1538 2H5.84615ZM16.5303 8.46967C16.8232 8.76256 16.8232 9.23744 16.5303 9.53033L13.5303 12.5303C13.2374 12.8232 12.7626 12.8232 12.4697 12.5303L10.5 10.5607L8.53033 12.5303C8.23744 12.8232 7.76256 12.8232 7.46967 12.5303C7.17678 12.2374 7.17678 11.7626 7.46967 11.4697L9.96967 8.96967C10.2626 8.67678 10.7374 8.67678 11.0303 8.96967L13 10.9393L15.4697 8.46967C15.7626 8.17678 16.2374 8.17678 16.5303 8.46967ZM7.25 16C7.25 15.5858 7.58579 15.25 8 15.25H16C16.4142 15.25 16.75 15.5858 16.75 16C16.75 16.4142 16.4142 16.75 16 16.75H8C7.58579 16.75 7.25 16.4142 7.25 16Z" fill="#19BECD"/>
</svg>
