<svg width="72" height="72" viewBox="0 0 72 72" fill="none" xmlns="http://www.w3.org/2000/svg">
<path d="M0 24C0 12.6863 0 7.02944 3.51472 3.51472C7.02944 0 12.6863 0 24 0H48C59.3137 0 64.9706 0 68.4853 3.51472C72 7.02944 72 12.6863 72 24V48C72 59.3137 72 64.9706 68.4853 68.4853C64.9706 72 59.3137 72 48 72H24C12.6863 72 7.02944 72 3.51472 68.4853C0 64.9706 0 59.3137 0 48V24Z" fill="#292B3F"/>
<path fill-rule="evenodd" clip-rule="evenodd" d="M34.9329 20C37.346 20.0036 39.6164 20.9543 41.3334 22.6865H41.337C43.054 24.4187 44 26.7127 44 29.1472V32.8528C43.9964 35.2873 43.054 37.5813 41.337 39.3135C39.6235 41.0457 37.3496 42 34.9365 42H30.2989V42.8528C30.2989 44.6679 31.0057 46.3785 32.2872 47.6713C33.5652 48.9641 35.2608 49.6772 37.06 49.6772H48.9329C50.7285 49.6772 52.4241 48.9641 53.7056 47.6713C54.9872 46.3785 55.6939 44.6679 55.6939 42.8528V39.1472C55.6939 37.3321 54.9872 35.6215 53.7056 34.3287C52.4241 33.0358 50.7285 32.3228 48.9329 32.3228H48.1654V30H48.9329C51.346 30 53.6199 30.9543 55.337 32.6865L55.3405 32.6901C57.054 34.4223 58 36.7163 58 39.1508V42.8564C58 45.2873 57.054 47.5813 55.337 49.3135C53.6199 51.0457 51.346 52 48.9329 52H37.0635C34.654 52 32.3801 51.0457 30.663 49.3135C28.946 47.5813 28 45.2873 28 42.8528V39.1472C28 36.7127 28.946 34.4187 30.663 32.6865C32.3801 30.9543 34.6504 30 37.0635 30H41.6975V29.1472C41.6975 27.3321 40.9907 25.6215 39.7092 24.3287C38.4312 23.0358 36.7356 22.3228 34.9365 22.3228H23.0635C21.268 22.3228 19.5723 23.0358 18.2908 24.3287C17.0093 25.6215 16.3025 27.3321 16.3025 29.1436V32.8528C16.3025 36.6125 19.3367 39.6736 23.0635 39.6736H23.831V41.9964H23.0635C20.6468 41.9964 18.3729 41.0421 16.6594 39.3135C14.9424 37.5849 14 35.2873 14 32.8492V29.1436C14 26.7127 14.946 24.4187 16.663 22.6865C18.3765 20.9543 20.6504 20 23.0635 20H34.9329ZM41.6975 32.3228H37.06C35.2644 32.3228 33.5688 33.0358 32.2872 34.3287C31.0057 35.6215 30.2989 37.3321 30.2989 39.1472V39.6772H34.9365C36.732 39.6772 38.4277 38.9641 39.7092 37.6713C40.9907 36.3785 41.6975 34.6679 41.6975 32.8528V32.3228Z" fill="#F9FAFB"/>
</svg>
