<svg width="130" height="32" viewBox="0 0 130 32" fill="none" xmlns="http://www.w3.org/2000/svg">
<path fill-rule="evenodd" clip-rule="evenodd" d="M27.3487 23.0197L24.9639 20.6389L15.7846 29.8033L0 14.0443L5.07228 8.9803L7.457 11.3612L16.6363 2.19678L32.4209 17.9557L27.3487 23.0197ZM9.8417 20.8467L3.02822 14.0443L5.07228 12.0036L7.457 14.3844L16.6363 5.22007L21.0651 9.64164L19.021 11.6824L16.6363 9.30154L9.50101 16.4252L11.8858 18.806L9.8417 20.8467ZM11.3558 22.3584L15.7846 26.7799L24.9639 17.6156L27.3487 19.9965L29.3927 17.9557L22.5792 11.1533L20.5351 13.194L22.9198 15.5749L15.7846 22.6985L13.3998 20.3177L11.3558 22.3584ZM15.7846 19.6752L12.5292 16.4252L16.6363 12.3248L19.8917 15.5749L15.7846 19.6752ZM106.231 18.5664C106.274 18.2409 106.296 17.8719 106.296 17.6331C106.231 14.3775 104.101 12.3372 100.883 12.3372C97.6439 12.3372 95.4697 14.6162 95.4697 18.0455C95.4697 21.4531 97.6439 23.7104 101.122 23.7104C103.861 23.7104 105.709 22.0391 106.101 19.847H103.752C103.448 21.0841 102.383 21.8003 100.992 21.8003C99.165 21.8003 97.9912 20.5632 97.9262 18.6749V18.5664H106.231ZM100.905 14.2255C102.535 14.2255 103.665 15.1588 103.861 16.8084H98.0132C98.1872 15.224 99.448 14.2255 100.905 14.2255ZM117.857 20.2376C117.857 22.3646 115.857 23.7104 113.182 23.7104C110.248 23.7104 108.226 22.3213 108.139 19.9121H110.444C110.53 21.0624 111.53 21.8872 113.204 21.8872C114.617 21.8872 115.553 21.3229 115.553 20.433C115.553 19.2798 114.619 19.1596 113.047 18.9571L112.878 18.9354C110.357 18.6315 108.378 18.0889 108.378 15.7883C108.378 13.6829 110.248 12.3372 112.878 12.3372C115.596 12.3372 117.509 13.5961 117.661 15.8751H115.357C115.226 14.855 114.291 14.1387 112.922 14.1387C111.574 14.1387 110.661 14.703 110.661 15.5929C110.661 16.6347 111.726 16.7649 113.313 16.9385C115.792 17.2425 117.857 17.7633 117.857 20.2376ZM124.731 23.7104C127.405 23.7104 129.405 22.3646 129.405 20.2376C129.405 17.7633 127.34 17.2425 124.861 16.9385C123.275 16.7649 122.209 16.6347 122.209 15.5929C122.209 14.703 123.122 14.1387 124.47 14.1387C125.84 14.1387 126.775 14.855 126.905 15.8751H129.21C129.058 13.5961 127.145 12.3372 124.427 12.3372C121.797 12.3372 119.927 13.6829 119.927 15.7883C119.927 18.0889 121.905 18.6315 124.427 18.9354L124.595 18.9571C126.168 19.1596 127.101 19.2798 127.101 20.433C127.101 21.3229 126.166 21.8872 124.752 21.8872C123.079 21.8872 122.079 21.0624 121.992 19.9121H119.688C119.775 22.3213 121.797 23.7104 124.731 23.7104ZM91.1169 8.38718V21.5184H94.3127V23.5803H85.5518V21.5184H88.7687V10.4491H85.5518V8.38718H91.1169ZM45.2822 21.5184V8.38718H39.7168V10.4491H42.9343V21.5184H39.7168V23.5803H48.4779V21.5184H45.2822ZM60.8974 18.024C60.8974 21.4316 58.6147 23.7105 55.2885 23.7105C51.9406 23.7105 49.6797 21.4316 49.6797 18.024C49.6797 14.6381 51.9406 12.3374 55.2885 12.3374C58.6147 12.3374 60.8974 14.6381 60.8974 18.024ZM52.071 18.024C52.071 20.1727 53.3537 21.7137 55.2885 21.7137C57.2016 21.7137 58.4843 20.1727 58.4843 18.024C58.4843 15.8752 57.2016 14.3342 55.2885 14.3342C53.3537 14.3342 52.071 15.8752 52.071 18.024ZM67.7096 23.7105C70.3836 23.7105 72.3837 22.3648 72.3837 20.2378C72.3837 17.7635 70.3184 17.2426 67.84 16.9387C66.253 16.7651 65.1878 16.6349 65.1878 15.593C65.1878 14.7032 66.1009 14.1389 67.4487 14.1389C68.8184 14.1389 69.7532 14.8551 69.8836 15.8752H72.188C72.0358 13.5963 70.1227 12.3374 67.4053 12.3374C64.7747 12.3374 62.9052 13.6831 62.9052 15.7884C62.9052 18.089 64.8835 18.6316 67.4053 18.9356L67.5735 18.9573C69.146 19.1598 70.0793 19.2799 70.0793 20.4331C70.0793 21.323 69.1445 21.8874 67.7314 21.8874C66.0574 21.8874 65.0574 21.0626 64.9704 19.9122H62.666C62.753 22.3214 64.7747 23.7105 67.7096 23.7105ZM83.9339 20.2378C83.9339 22.3648 81.9338 23.7105 79.2594 23.7105C76.3247 23.7105 74.3028 22.3214 74.2158 19.9122H76.5199C76.6069 21.0626 77.6074 21.8874 79.2813 21.8874C80.6942 21.8874 81.6288 21.323 81.6288 20.4331C81.6288 19.2799 80.6958 19.1598 79.1232 18.9573C79.068 18.9501 79.012 18.9429 78.9552 18.9356C76.4329 18.6316 74.455 18.089 74.455 15.7884C74.455 13.6831 76.3247 12.3374 78.9552 12.3374C81.6727 12.3374 83.5858 13.5963 83.7379 15.8752H81.4335C81.3026 14.8551 80.368 14.1389 78.9983 14.1389C77.6505 14.1389 76.7379 14.7032 76.7379 15.593C76.7379 16.6349 77.8026 16.7651 79.3895 16.9387C81.8679 17.2426 83.9339 17.7635 83.9339 20.2378Z" fill="black"/>
</svg>
