<svg xmlns="http://www.w3.org/2000/svg" width="32" height="32" fill="none" xmlns:v="https://vecta.io/nano"><path fill-rule="evenodd" d="M11.333 5.333C8.94 5.333 7 7.273 7 9.667V11h-.667C3.94 11 2 12.94 2 15.333v9.333C2 27.06 3.94 29 6.333 29h13.333C22.06 29 24 27.06 24 24.667v-1.333h2c2.393 0 4.333-1.94 4.333-4.333V9.667c0-2.393-1.94-4.333-4.333-4.333H11.333zm12.667 16h2c1.289 0 2.333-1.045 2.333-2.333V9.667c0-1.289-1.045-2.333-2.333-2.333H11.333C10.045 7.333 9 8.378 9 9.667V11h10.667C22.06 11 24 12.94 24 15.333v6zm-6.278-4.054a.96.96 0 0 1 0 1.35l-5.064 5.091c-.371.373-.972.373-1.342 0l-3.038-3.055a.96.96 0 0 1 0-1.35c.371-.373.972-.373 1.342 0l2.367 2.38 4.392-4.416c.371-.373.972-.373 1.342 0z" fill="#416ef0"/></svg>