<svg width="72" height="72" viewBox="0 0 72 72" fill="none" xmlns="http://www.w3.org/2000/svg">
<path d="M0 24C0 12.6863 0 7.02944 3.51472 3.51472C7.02944 0 12.6863 0 24 0H48C59.3137 0 64.9706 0 68.4853 3.51472C72 7.02944 72 12.6863 72 24V48C72 59.3137 72 64.9706 68.4853 68.4853C64.9706 72 59.3137 72 48 72H24C12.6863 72 7.02944 72 3.51472 68.4853C0 64.9706 0 59.3137 0 48V24Z" fill="#416EF0"/>
<path d="M32 31.3757C32.4246 29.3348 34.0912 27.9198 35.968 28.0066C38.0686 27.8769 39.8693 29.6621 40 32.004C40 35.0098 36.1472 36.0013 36.1472 38" stroke="white" stroke-width="3.27879" stroke-linecap="round" stroke-linejoin="round"/>
<path d="M36.25 43.0003C36.2498 43.1383 36.1379 43.2501 35.9999 43.25C35.8619 43.2499 35.7501 43.1381 35.75 43.0001C35.7499 42.8621 35.8617 42.7502 35.9997 42.75C36.0661 42.7499 36.1298 42.7763 36.1768 42.8232C36.2237 42.8702 36.2501 42.9339 36.25 43.0003" stroke="white" stroke-width="3.27879" stroke-linecap="round" stroke-linejoin="round"/>
<circle cx="36" cy="36" r="19.7143" stroke="white" stroke-width="3.42857"/>
</svg>
