<svg width="24" height="24" viewBox="0 0 24 24" fill="none" xmlns="http://www.w3.org/2000/svg">
<path fill-rule="evenodd" clip-rule="evenodd" d="M5.43044 4.26158C5.9104 3.48121 6.79324 2.99999 7.74927 3H16.2508C17.2068 3 18.0897 3.48123 18.5696 4.26158L21.6189 8.45333C21.6311 8.47021 21.6426 8.4876 21.6533 8.50545C22.2135 9.44427 22.0856 10.6147 21.3363 11.425L14.0308 20.1192C14.0224 20.1292 14.0138 20.1389 14.0048 20.1484C13.4957 20.6901 12.7661 21 12 21C11.2339 21 10.5043 20.6901 9.99516 20.1484C9.98622 20.1389 9.97756 20.1292 9.96919 20.1192L2.66369 11.425C1.91439 10.6147 1.78647 9.44425 2.34675 8.50544C2.3574 8.48759 2.36888 8.47021 2.38116 8.45333L5.43044 4.26158ZM8 9C7.44772 9 7 9.44772 7 10C7 10.5523 7.44772 11 8 11H16C16.5523 11 17 10.5523 17 10C17 9.44772 16.5523 9 16 9H8Z" fill="#A55FFF"/>
</svg>
