<svg width="88" height="88" viewBox="0 0 88 88" fill="none" xmlns="http://www.w3.org/2000/svg">
<path fill-rule="evenodd" clip-rule="evenodd" d="M11 38C11 36.8954 11.8954 36 13 36H33C34.1046 36 35 36.8954 35 38V44H40C43.3137 44 46 46.6863 46 50V55C46 55.5523 45.5523 56 45 56H1C0.447715 56 0 55.5523 0 55V50C0 46.6863 2.68629 44 6 44H11V38ZM14 44H32V39H14V44ZM14 60C14 59.4477 13.5523 59 13 59H3C1.34315 59 0 60.3431 0 62V74C0 77.3137 2.68629 80 6 80H40C43.3137 80 46 77.3137 46 74V62C46 60.3431 44.6569 59 43 59H33C32.4477 59 32 59.4477 32 60V65C32 65.5523 31.5523 66 31 66H15C14.4477 66 14 65.5523 14 65V60Z" fill="white"/>
</svg>
