<svg width="72" height="72" viewBox="0 0 72 72" fill="none" xmlns="http://www.w3.org/2000/svg">
<path d="M0 24C0 12.6863 0 7.02944 3.51472 3.51472C7.02944 0 12.6863 0 24 0H48C59.3137 0 64.9706 0 68.4853 3.51472C72 7.02944 72 12.6863 72 24V48C72 59.3137 72 64.9706 68.4853 68.4853C64.9706 72 59.3137 72 48 72H24C12.6863 72 7.02944 72 3.51472 68.4853C0 64.9706 0 59.3137 0 48V24Z" fill="#416EF0"/>
<path fill-rule="evenodd" clip-rule="evenodd" d="M48 28V23.5556C48 21.0396 46.516 19 44 19H24C21.484 19 20 21.0396 20 23.5556V48C20 50.516 21.484 53 24 53H50C52.516 53 54 50.516 54 48V32C54 29.484 52 28 49.484 28H48ZM48 30V51H49.4444C50.8558 51 52 49.8558 52 48.4444V32.4444C52 31.0331 50.8558 30 49.4444 30H48ZM26 27C24.8622 27 24 27.9224 24 29.0602V32.9398C24 34.0776 24.9224 35 26.0602 35H29.9398C31.0776 35 32 34.0776 32 32.9398V29.0602C32 27.9224 31.0776 27 29.9398 27H26ZM26 33V29H30V33H26ZM25.1111 38C24.4975 38 24 38.4477 24 39C24 39.5523 24.4975 40 25.1111 40H42.8889C43.5025 40 44 39.5523 44 39C44 38.4477 43.5025 38 42.8889 38H25.1111ZM24 44C24 43.4477 24.4975 43 25.1111 43H42.8889C43.5025 43 44 43.4477 44 44C44 44.5523 43.5025 45 42.8889 45H25.1111C24.4975 45 24 44.5523 24 44ZM36 32C35.4477 32 35 32.4477 35 33C35 33.5523 35.4477 34 36 34H43C43.5523 34 44 33.5523 44 33C44 32.4477 43.5523 32 43 32H36ZM35 28C35 27.4477 35.4477 27 36 27H43C43.5523 27 44 27.4477 44 28C44 28.5523 43.5523 29 43 29H36C35.4477 29 35 28.5523 35 28Z" fill="white"/>
</svg>
