<svg width="168" height="32" viewBox="0 0 168 32" fill="none" xmlns="http://www.w3.org/2000/svg">
<g clip-path="url(#clip0_7774_29191)">
<path fill-rule="evenodd" clip-rule="evenodd" d="M29.75 24C34.5824 24 38.5 20.4182 38.5 16C38.5 11.5817 34.5824 8 29.75 8C24.9175 8 21 11.5817 21 16C21 20.4182 24.9175 24 29.75 24ZM22.6042 16C22.6042 19.6082 25.8035 22.5334 29.75 22.5334C30.2148 22.5334 30.6693 22.4927 31.1094 22.4153C31.3075 22.3804 31.2651 22.115 31.0647 22.0939C27.7669 21.748 25.0833 19.1379 25.0833 16C25.0833 12.862 27.7669 10.252 31.0647 9.90607C31.2651 9.88505 31.3075 9.61962 31.1094 9.58474C30.6693 9.50725 30.2148 9.46666 29.75 9.46666C25.8035 9.46666 22.6042 12.3917 22.6042 16ZM34.8759 13.78C35.0236 13.7243 35.0482 13.5315 34.8992 13.4788C34.5685 13.3619 34.2091 13.2978 33.8334 13.2978C32.2011 13.2978 30.8778 14.5076 30.8778 16C30.8778 17.4924 32.2011 18.7022 33.8334 18.7022C34.2091 18.7022 34.5685 18.6381 34.8992 18.5212C35.0482 18.4685 35.0236 18.2757 34.8759 18.2201C33.9217 17.8607 33.25 17.0021 33.25 16C33.25 14.9979 33.9217 14.1393 34.8759 13.78ZM32.9468 11.8102C30.7934 12.1888 29.1667 13.9207 29.1667 16C29.1667 18.0793 30.7934 19.8112 32.9468 20.1898C33.1327 20.2225 33.1689 20.4643 32.9848 20.505C32.6021 20.5894 32.2026 20.6341 31.7916 20.6341C28.9924 20.6341 26.7231 18.5594 26.7231 16C26.7231 13.4407 28.9924 11.3659 31.7916 11.3659C32.2026 11.3659 32.6021 11.4106 32.9848 11.4951C33.1689 11.5357 33.1327 11.7775 32.9468 11.8102ZM35.175 16C35.175 16.3534 35.4884 16.64 35.875 16.64C36.2616 16.64 36.575 16.3534 36.575 16C36.575 15.6465 36.2616 15.36 35.875 15.36C35.4884 15.36 35.175 15.6465 35.175 16ZM46.7392 22.683C47.9917 23.5423 49.6319 23.972 51.6596 23.972C53.7669 23.972 55.417 23.5283 56.6098 22.641C57.8027 21.7537 58.3991 20.5347 58.3991 18.9842C58.3991 18.1997 58.23 17.5318 57.8921 16.9807C57.5542 16.4203 57.0124 15.944 56.2669 15.5517C55.5314 15.15 54.5522 14.7998 53.3296 14.5009C52.0771 14.202 51.1427 13.9591 50.5265 13.7723C49.9201 13.5855 49.5175 13.4034 49.3187 13.2259C49.1299 13.0485 49.0355 12.829 49.0355 12.5674C49.0355 12.1284 49.2591 11.7922 49.7064 11.5587C50.1636 11.3252 50.765 11.2318 51.5105 11.2785C52.2759 11.3345 52.8823 11.526 53.3296 11.8529C53.5371 12.0046 53.704 12.1814 53.8302 12.3833C54.078 12.7797 54.5194 13.1138 55.008 13.0313L57.4411 12.6201C57.8933 12.5436 58.2076 12.1497 58.0782 11.7434C57.8839 11.1332 57.5684 10.5859 57.1317 10.1016C56.5353 9.42907 55.75 8.91068 54.7759 8.54641C53.8018 8.18214 52.6835 8 51.4211 8C50.1189 8 48.9858 8.19615 48.0215 8.58844C47.0672 8.97139 46.3267 9.52247 45.7999 10.2417C45.273 10.9515 45.0097 11.7922 45.0097 12.7636C45.0097 13.5388 45.1836 14.202 45.5315 14.7531C45.8794 15.2948 46.446 15.7618 47.2313 16.1541C48.0165 16.5464 49.0652 16.9014 50.3774 17.2189C51.5403 17.5085 52.3952 17.742 52.9419 17.9194C53.4986 18.0969 53.8564 18.279 54.0154 18.4658C54.1745 18.6433 54.2541 18.8815 54.2541 19.1804C54.2541 19.6567 54.0553 20.0303 53.6576 20.3012C53.26 20.5627 52.6934 20.6935 51.9579 20.6935C51.0632 20.6935 50.3227 20.4927 49.7362 20.091C49.3653 19.8327 49.0789 19.5106 48.8766 19.1248C48.6798 18.7491 48.2692 18.4733 47.8216 18.5369L45.3229 18.8916C44.8538 18.9582 44.5265 19.365 44.652 19.7866C45.0122 20.9966 45.708 21.9621 46.7392 22.683ZM61.9167 23.3555C62.7218 23.7665 63.7009 23.972 64.854 23.972C66.2456 23.972 67.3937 23.7478 68.2983 23.2994C68.6493 23.1255 68.9922 22.8904 69.2937 22.6538C69.6761 22.3537 70.341 22.5934 70.341 23.0562C70.341 23.3298 70.5819 23.5517 70.8792 23.5517H73.0316C73.5055 23.5517 73.8896 23.1979 73.8896 22.7615V14.3047C73.8896 13.6135 73.8599 12.9877 73.8002 12.4273C73.7405 11.8669 73.5517 11.3065 73.2336 10.7461C72.667 9.7373 71.8321 9.02744 70.7287 8.61646C69.6253 8.20549 68.3629 8 66.9415 8C65.0031 8 63.4723 8.39229 62.3491 9.17688C61.4514 9.80394 60.7822 10.5802 60.3416 11.5055C60.1543 11.8991 60.4079 12.3369 60.8519 12.4692L62.9196 13.0853C63.3645 13.2178 63.8276 12.9852 64.0955 12.6322C64.3477 12.3002 64.675 12.0497 65.0777 11.8809C65.7238 11.61 66.345 11.4746 66.9415 11.4746C68.015 11.4746 68.7804 11.6848 69.2377 12.1051C69.4511 12.3013 69.5976 12.5618 69.6968 12.8066C69.8568 13.2016 69.5365 13.5865 69.0841 13.6511C68.687 13.7077 68.2322 13.7726 67.9405 13.8144C66.8967 13.9545 65.9624 14.1039 65.1373 14.2627C64.3123 14.4215 63.6015 14.6036 63.0051 14.8091C62.1404 15.108 61.4495 15.4816 60.9326 15.9299C60.4256 16.369 60.0579 16.878 59.8292 17.4571C59.6006 18.0362 59.4863 18.676 59.4863 19.3766C59.4863 20.2172 59.6901 20.9878 60.0977 21.6882C60.5152 22.3794 61.1215 22.9352 61.9167 23.3555ZM67.5975 20.6094C67.0906 20.8523 66.4644 20.9738 65.7189 20.9738C65.2516 20.9738 64.849 20.9083 64.5111 20.7776C64.1731 20.6468 63.9097 20.46 63.7208 20.2172C63.542 19.965 63.4524 19.6661 63.4524 19.3205C63.4524 19.0683 63.5071 18.8394 63.6165 18.634C63.7358 18.4285 63.9147 18.2417 64.1532 18.0735C64.4017 17.8961 64.7248 17.7326 65.1224 17.5832C65.4703 17.4618 65.8729 17.3497 66.3301 17.247C66.7874 17.1442 67.3888 17.0321 68.1343 16.9107C68.3137 16.8792 68.5999 16.8311 68.8879 16.7832C69.3841 16.7007 69.8377 17.0639 69.8042 17.5271C69.7744 18.0689 69.6551 18.5453 69.4464 18.9562C69.3371 19.171 69.1283 19.4373 68.8201 19.7548C68.5219 20.0724 68.1144 20.3573 67.5975 20.6094ZM92.1058 23.5516C91.6313 23.5516 91.2469 23.1969 91.2478 22.76L91.2745 9.18088C91.2754 8.74507 91.6593 8.39219 92.1325 8.39219H94.5333C95.0072 8.39219 95.3913 8.74594 95.3913 9.18231V13.1685C95.3913 13.9439 96.4776 14.2554 96.9557 13.6172L100.593 8.76171C100.753 8.54788 101.017 8.4202 101.299 8.4202H105.858L105.858 8.42031H108.408C108.881 8.42031 109.265 8.77406 109.265 9.21044V15.5657C109.265 15.9113 109.285 16.355 109.325 16.8966C109.365 17.429 109.489 17.9662 109.698 18.5079C109.907 19.0496 110.244 19.5026 110.712 19.8669C111.189 20.2312 111.86 20.4133 112.725 20.4133C113.072 20.4133 113.445 20.3619 113.843 20.2592C114.241 20.1565 114.613 19.9603 114.962 19.6707C115.309 19.3718 115.592 18.9375 115.811 18.3678C116.04 17.7886 116.154 16.0451 116.154 15.1111V9.21044C116.154 8.77406 116.538 8.42031 117.013 8.42031H119.381C119.855 8.42031 120.24 8.77406 120.24 9.21044V22.7615C120.24 23.1979 119.855 23.5517 119.381 23.5517H117.519C117.045 23.5517 116.661 23.1979 116.661 22.7615V21.9914C116.287 22.383 115.854 22.7303 115.364 23.0333C114.33 23.6778 113.023 24 111.442 24C110.18 24 109.152 23.7992 108.356 23.3975C107.561 22.9959 106.94 22.4869 106.492 21.8704C106.055 21.2539 105.742 20.6142 105.553 19.951C105.364 19.2785 105.25 18.6666 105.21 18.1156C105.17 17.5645 105.15 17.1629 105.15 16.9107V9.34123L100.385 15.5412C100.179 15.8089 100.175 16.1659 100.373 16.4381L104.663 22.3209C105.046 22.8459 104.637 23.5516 103.951 23.5516H100.761C100.463 23.5516 100.187 23.4098 100.031 23.1769L96.9792 18.6314C96.5248 17.9544 95.3913 18.251 95.3913 19.0469V22.7614C95.3913 23.1978 95.0072 23.5516 94.5333 23.5516H92.1058ZM122.983 23.5517C122.51 23.5517 122.126 23.198 122.126 22.7616V9.21049C122.126 8.77411 122.51 8.42036 122.983 8.42036H124.846C125.319 8.42036 125.704 8.77411 125.704 9.21049V10.8559C125.837 10.6313 125.986 10.4173 126.151 10.2137C126.499 9.78405 126.926 9.42912 127.433 9.14891C127.821 8.92474 128.244 8.75194 128.7 8.63052C129.158 8.49975 129.63 8.42036 130.117 8.39234C130.604 8.35499 131.091 8.36431 131.578 8.42031L134.749 8.42031C135.224 8.42031 135.608 8.77406 135.608 9.21044V15.5657C135.608 15.9113 135.628 16.355 135.667 16.8966C135.708 17.429 135.832 17.9662 136.04 18.5079C136.249 19.0496 136.587 19.5026 137.054 19.8669C137.531 20.2312 138.202 20.4133 139.067 20.4133C139.415 20.4133 139.788 20.3619 140.185 20.2592C140.583 20.1565 140.956 19.9603 141.303 19.6707C141.651 19.3718 141.935 18.9375 142.154 18.3678C142.269 18.0754 142.355 17.7378 142.413 17.355C142.427 17.2615 142.456 17.1731 142.497 17.0916V9.21044C142.497 8.77406 142.881 8.42031 143.354 8.42031H145.724C146.198 8.42031 146.582 8.77406 146.582 9.21044V22.7615C146.582 23.1979 146.198 23.5517 145.724 23.5517H143.862C143.387 23.5517 143.003 23.1979 143.003 22.7615V21.9913C142.629 22.383 142.197 22.7303 141.707 23.0333C140.672 23.6778 139.365 24 137.785 24C136.522 24 135.493 23.7992 134.699 23.3975C133.903 22.9959 133.282 22.4869 132.835 21.8704C132.397 21.2539 132.084 20.6142 131.895 19.951C131.706 19.2785 131.592 18.6666 131.552 18.1156C131.513 17.5645 131.493 17.1629 131.493 16.9107V11.9553C131.065 11.8433 130.571 11.8092 130.013 11.8529C129.427 11.8903 128.895 12.0164 128.418 12.2312C127.94 12.4367 127.538 12.7122 127.209 13.0578C126.881 13.3941 126.633 13.7957 126.464 14.2627C126.295 14.7204 126.211 15.2388 126.211 15.8179V22.7616C126.211 23.198 125.827 23.5517 125.353 23.5517H122.983ZM80.3015 23.972C79.1485 23.972 78.1693 23.7665 77.3642 23.3555C76.569 22.9352 75.9627 22.3794 75.5451 21.6882C75.1376 20.9878 74.9338 20.2172 74.9338 19.3766C74.9338 18.676 75.0481 18.0362 75.2768 17.4571C75.5054 16.878 75.8731 16.369 76.3801 15.9299C76.897 15.4816 77.5879 15.108 78.4527 14.8091C79.0491 14.6036 79.7598 14.4215 80.5849 14.2627C81.4099 14.1039 82.3442 13.9545 83.3879 13.8144C83.6797 13.7726 84.1345 13.7077 84.5316 13.6511C84.984 13.5865 85.3043 13.2016 85.1443 12.8066C85.0451 12.5618 84.8986 12.3013 84.6851 12.1051C84.2279 11.6848 83.4625 11.4746 82.3889 11.4746C81.7925 11.4746 81.1713 11.61 80.5252 11.8809C80.1225 12.0497 79.7951 12.3002 79.543 12.6322C79.2751 12.9852 78.812 13.2178 78.3671 13.0853L76.2994 12.4692C75.8553 12.3369 75.6018 11.8991 75.7892 11.5055C76.2297 10.5802 76.8988 9.80394 77.7966 9.17688C78.9198 8.39229 80.4506 8 82.3889 8C83.8104 8 85.0728 8.20549 86.1762 8.61646C87.2796 9.02744 88.1145 9.7373 88.6811 10.7461C88.9992 11.3065 89.188 11.8669 89.2477 12.4273C89.3073 12.9877 89.3371 13.6135 89.3371 14.3047V22.7615C89.3371 23.1979 88.953 23.5517 88.4791 23.5517H86.3266C86.0294 23.5517 85.7885 23.3298 85.7885 23.0562C85.7885 22.5934 85.1236 22.3537 84.7412 22.6538C84.4397 22.8904 84.0968 23.1255 83.7458 23.2994C82.8412 23.7478 81.6931 23.972 80.3015 23.972ZM81.1663 20.9738C81.9118 20.9738 82.538 20.8523 83.045 20.6094C83.5619 20.3573 83.9694 20.0724 84.2676 19.7548C84.5758 19.4373 84.7845 19.171 84.8939 18.9562C85.1027 18.5453 85.2219 18.0689 85.2518 17.5271C85.2852 17.0639 84.8315 16.7007 84.3354 16.7832C84.0474 16.8311 83.7612 16.8792 83.5818 16.9107C82.8362 17.0321 82.2349 17.1442 81.7776 17.247C81.3204 17.3497 80.9178 17.4618 80.5699 17.5832C80.1723 17.7326 79.8492 17.8961 79.6007 18.0735C79.3621 18.2417 79.1833 18.4285 79.0639 18.634C78.9546 18.8394 78.9 19.0683 78.9 19.3205C78.9 19.6661 78.9894 19.965 79.1683 20.2172C79.3572 20.46 79.6206 20.6468 79.9586 20.7776C80.2965 20.9083 80.6991 20.9738 81.1663 20.9738Z" fill="white"/>
</g>
<defs>
<clipPath id="clip0_7774_29191">
<rect width="126" height="16" fill="white" transform="translate(21 8)"/>
</clipPath>
</defs>
</svg>
