<svg xmlns="http://www.w3.org/2000/svg" width="32" height="32" fill="none" xmlns:v="https://vecta.io/nano"><path fill-rule="evenodd" d="M12.961 7.248c1.679-1.665 4.401-1.665 6.08 0s1.679 4.363 0 6.028-4.401 1.665-6.08 0-1.679-4.363 0-6.028zM24 23.281v.008.008 1.046c0 .914-.748 1.656-1.67 1.656H9.67C8.748 26 8 25.258 8 24.344v-1.063c0-1.843 1.068-4.318 2.566-5.305S14.027 16.45 16 16.45s3.941.541 5.435 1.526S24 21.439 24 23.281zm3.774-10.493c-1.092-1.051-2.863-1.051-3.955 0a2.62 2.62 0 0 0 0 3.807c1.092 1.051 2.863 1.051 3.955 0a2.62 2.62 0 0 0 0-3.807zm-3.955 6.043c.684-.219 1.232-.231 1.978-.231 1.283 0 2.563.342 3.535.964S31 21.119 31 22.283v.671c0 .578-.487 1.046-1.086 1.046h-4.291a1.36 1.36 0 0 0 .125-.57v-.907c0-1.52-.681-2.85-1.928-3.692zM8.181 12.789c-1.092-1.051-2.863-1.051-3.955 0a2.62 2.62 0 0 0 0 3.807c1.092 1.051 2.863 1.051 3.955 0a2.62 2.62 0 0 0 0-3.807zM6.204 18.6c.746 0 1.294.012 1.977.231-1.247.841-1.928 2.172-1.928 3.692v.907c0 .203.044.396.125.57H2.086C1.487 24 1 23.532 1 22.954v-.671c0-1.164.695-2.095 1.669-2.719S4.92 18.6 6.204 18.6z" fill="#416ef0"/></svg>