<svg width="88" height="88" viewBox="0 0 88 88" fill="none" xmlns="http://www.w3.org/2000/svg">
<path d="M44 88C68.3005 88 88 68.3005 88 44C88 19.6995 68.3005 0 44 0C19.6995 0 0 19.6995 0 44C0 68.3005 19.6995 88 44 88Z" fill="#001D46"/>
<path fill-rule="evenodd" clip-rule="evenodd" d="M56.7462 31.1191C57.6026 31.9793 58.7298 32.4444 59.9356 32.4444C61.1415 32.4444 62.2774 31.9705 63.125 31.1191C63.9813 30.2589 64.4444 29.1265 64.4444 27.9152C64.4444 26.7039 63.9726 25.5628 63.125 24.7114C61.6046 23.184 59.2104 22.9471 57.4278 24.1496L57.2181 24.29L57.0084 24.1584C56.2482 23.6668 53.5831 22.0167 51.2151 21.2442C46.3305 19.5853 40.7382 19.5853 35.8624 21.2442C35.5828 21.3408 35.3556 21.5426 35.2245 21.806C35.0935 22.0693 35.076 22.3765 35.1721 22.6574C35.3643 23.2367 36.0022 23.5527 36.5789 23.3596C38.8246 22.596 41.1838 22.2185 43.5431 22.2185C45.9024 22.2185 48.2704 22.6047 50.5248 23.3684C52.4734 24.0092 54.7016 25.3434 55.5666 25.8876L55.8288 26.0544L55.7239 26.344C55.1035 28.003 55.5054 29.8902 56.7462 31.1366V31.1191ZM29.8406 63.7401L30.0415 63.8628C31.7367 64.8971 34.2096 66.1856 35.896 66.7466C38.3601 67.5793 40.9378 68 43.5767 68C46.2156 68 48.7933 67.5793 51.2487 66.7466C51.5283 66.6502 51.7555 66.4485 51.8866 66.1856C52.0176 65.9226 52.0351 65.6159 51.939 65.3354C51.738 64.7569 51.1089 64.4413 50.5322 64.6341C46.0408 66.1593 41.0864 66.1593 36.5951 64.6341C35.1183 64.1433 32.9513 63.0038 31.5445 62.1711L31.2649 62.0046L31.3785 61.7066C32.0163 60.0324 31.6231 58.1391 30.3649 56.8769C28.6085 55.1151 25.7424 55.1151 23.9861 56.8769C23.1298 57.7359 22.6667 58.8666 22.6667 60.0762C22.6667 61.2859 23.1385 62.4253 23.9861 63.2755C25.4803 64.7744 27.857 65.0286 29.6309 63.8716L29.8318 63.7401H29.8406ZM66.1859 36.1134C66.4488 36.2445 66.6504 36.4804 66.7468 36.76V36.7513C67.5793 39.1979 68 41.7844 68 44.4233C68 47.0622 67.5793 49.6486 66.7468 52.104C66.1859 53.8254 65.0203 56.2808 63.9249 58.072L63.8022 58.273L63.9249 58.474C65.0203 60.2566 64.7574 62.5372 63.2764 64.0139C62.4263 64.8615 61.287 65.3333 60.0776 65.3333C58.8682 65.3333 57.7377 64.8702 56.8789 64.0139C56.0288 63.1663 55.5556 62.0304 55.5556 60.8245C55.5556 59.6187 56.02 58.4915 56.8789 57.6352C57.7465 56.7701 58.9033 56.3157 60.0776 56.3157C60.656 56.3157 61.2344 56.4293 61.7953 56.6565L62.102 56.7788L62.2686 56.4905C63.2238 54.8477 64.1703 52.8118 64.6347 51.4049C65.3884 49.1768 65.774 46.8262 65.774 44.432C65.774 42.0378 65.3884 39.696 64.6347 37.4678C64.4419 36.8911 64.7575 36.2532 65.3359 36.061C65.6163 35.9649 65.923 35.9824 66.1859 36.1134ZM31.1143 23.9863C30.2553 23.1298 29.1246 22.6667 27.915 22.6667C26.7054 22.6667 25.5659 23.1386 24.7157 23.9863C23.2168 25.4808 22.9627 27.8492 24.1197 29.6234L24.2511 29.8244L24.1284 30.0254C23.1029 31.7121 21.8144 34.1767 21.2534 35.8896C20.4208 38.3455 20 40.9237 20 43.5718C20 46.2199 20.4208 48.798 21.2534 51.2451C21.4463 51.8132 22.0686 52.1366 22.6734 51.9443C23.2519 51.7521 23.5674 51.114 23.3658 50.5372C22.612 48.3174 22.2264 45.9664 22.2264 43.5718C22.2264 41.1771 22.612 38.8262 23.3658 36.5976C23.8567 35.0944 24.9962 32.9357 25.8201 31.5461L25.9867 31.2664L26.2847 31.38C27.9588 32.0268 29.8521 31.6335 31.1231 30.3663C32.8849 28.6096 32.8849 25.743 31.1231 23.9863H31.1143ZM44 31C36.8332 31 31 36.8332 31 44C31 51.1668 36.8332 57.0001 44 57.0001C51.1668 57.0001 57 51.1668 57 44C57 36.8332 51.1668 31 44 31ZM46.7205 40.5941V48.2225C46.7205 49.0305 46.4428 49.6995 45.8355 50.2034C45.2455 50.6726 44.456 50.9333 43.5363 50.9333C42.6166 50.9333 41.801 50.6727 41.237 50.1948C40.6644 49.7169 40.3521 49.0305 40.3521 48.2225V43.2788H39.6666L41.5147 39.6992L43.3627 43.2788H42.6426V48.0835C42.6426 48.57 43.0243 48.9523 43.5449 48.9523C44.0655 48.9523 44.4473 48.6048 44.4473 48.0835V40.6028H43.7271L45.5752 37.0666L47.4666 40.6028H46.7378L46.7205 40.5941Z" fill="white"/>
</svg>
