<svg xmlns="http://www.w3.org/2000/svg" width="25" height="24" fill="none" xmlns:v="https://vecta.io/nano"><path fill-rule="evenodd" d="M22.4 12c0 5.523-4.477 10-10 10s-10-4.477-10-10 4.477-10 10-10 10 4.477 10 10zm-9.642-2.618l-5.832 2.512c-.473.188-.721.372-.744.553-.038.304.343.424.862.587l.219.069c.511.166 1.197.36 1.554.368.324.007.685-.127 1.084-.401l4.218-2.788c.062-.014.149-.032.207.02s.053.15.046.177c-.038.161-1.534 1.552-2.308 2.271l-.447.42a8.8 8.8 0 0 1-.235.232c-.474.457-.83.8.02 1.36l1.061.714 1.171.786c.117.077.229.156.338.234.414.295.787.561 1.246.518.267-.025.543-.276.683-1.025.331-1.771.983-5.608 1.133-7.189.013-.139-.003-.316-.017-.394s-.041-.189-.142-.271c-.12-.097-.305-.118-.387-.116-.376.007-.953.207-3.73 1.362z" fill="#212529"/></svg>