<svg width="72" height="72" viewBox="0 0 72 72" fill="none" xmlns="http://www.w3.org/2000/svg">
<path d="M0 24C0 12.6863 0 7.02944 3.51472 3.51472C7.02944 0 12.6863 0 24 0H48C59.3137 0 64.9706 0 68.4853 3.51472C72 7.02944 72 12.6863 72 24V48C72 59.3137 72 64.9706 68.4853 68.4853C64.9706 72 59.3137 72 48 72H24C12.6863 72 7.02944 72 3.51472 68.4853C0 64.9706 0 59.3137 0 48V24Z" fill="#22E082"/>
<path fill-rule="evenodd" clip-rule="evenodd" d="M47.6949 34.1044C47.3951 33.4323 46.7316 32.9999 46 32.9999C45.2684 32.9999 44.6049 33.4323 44.3051 34.1044L36.1635 52.3619C35.7432 53.3046 36.1612 54.4119 37.0973 54.8352C38.0333 55.2586 39.1329 54.8376 39.5532 53.8949L40.8699 50.9422H51.1301L52.4468 53.8949C52.8671 54.8376 53.9667 55.2586 54.9027 54.8352C55.8388 54.4119 56.2568 53.3046 55.8365 52.3619L54.0444 48.3433C54.0338 48.3179 54.0226 48.2929 54.0109 48.2681L47.6949 34.1044ZM49.4614 47.2002L46 39.4381L42.5386 47.2002H49.4614Z" fill="white"/>
<path fill-rule="evenodd" clip-rule="evenodd" d="M25.9992 15.9999C27.0252 15.9999 27.857 16.8504 27.857 17.8995V22.0547H34.1422C34.6613 22.0547 35.1566 22.2768 35.5084 22.6671C35.8601 23.0574 36.0361 23.5803 35.9938 24.1093C35.6119 28.8809 33.2789 33.3024 29.844 36.5618C31.1509 37.4801 32.6791 38.0803 34.2818 38.2057C35.3048 38.2858 36.0707 39.1987 35.9924 40.2448C35.9141 41.2909 35.0212 42.074 33.9982 41.9939C31.3369 41.7856 28.8205 40.6678 26.7916 38.9616C24.16 40.6579 21.1473 41.7473 18 41.9942C16.977 42.0745 16.084 41.2916 16.0055 40.2455C15.927 39.1994 16.6927 38.2864 17.7158 38.2061C20.026 38.0249 22.2462 37.2745 24.2281 36.1087C23.0468 34.349 22.283 32.3124 22.1119 30.1628C22.0287 29.1171 22.7902 28.2004 23.8129 28.1153C24.8355 28.0302 25.732 28.8089 25.8153 29.8546C25.9281 31.2723 26.4369 32.6477 27.2287 33.8602C29.5456 31.6894 31.2549 28.8862 31.9673 25.854H17.8599C16.8339 25.854 16.0021 25.0035 16.0021 23.9544C16.0021 22.9052 16.8339 22.0547 17.8599 22.0547H24.1413V17.8995C24.1413 16.8504 24.9731 15.9999 25.9992 15.9999Z" fill="white"/>
</svg>
