<?xml version="1.0" encoding="utf-8" ?>
<svg baseProfile="full" height="64px" version="1.1" width="64px" xmlns="http://www.w3.org/2000/svg" xmlns:ev="http://www.w3.org/2001/xml-events" xmlns:xlink="http://www.w3.org/1999/xlink"><defs /><rect fill="black" height="64px" rx="12" ry="12" width="64px" x="0" y="0" /><rect fill="#777" height="6" rx="2" ry="2" width="6" x="5.0" y="19.0" /><rect fill="white" height="6" rx="2" ry="2" width="6" x="13.0" y="19.0" /><rect fill="white" height="6" rx="2" ry="2" width="6" x="21.0" y="19.0" /><rect fill="white" height="6" rx="2" ry="2" width="6" x="29.0" y="19.0" /><rect fill="white" height="6" rx="2" ry="2" width="6" x="37.0" y="19.0" /><rect fill="white" height="6" rx="2" ry="2" width="6" x="45.0" y="19.0" /><rect fill="#777" height="6" rx="2" ry="2" width="6" x="53.0" y="19.0" /><rect fill="#777" height="6" rx="2" ry="2" width="6" x="5.0" y="29.0" /><rect fill="white" height="6" rx="2" ry="2" width="6" x="13.0" y="29.0" /><rect fill="white" height="6" rx="2" ry="2" width="6" x="21.0" y="29.0" /><rect fill="white" height="6" rx="2" ry="2" width="6" x="29.0" y="29.0" /><rect fill="white" height="6" rx="2" ry="2" width="6" x="37.0" y="29.0" /><rect fill="white" height="6" rx="2" ry="2" width="6" x="45.0" y="29.0" /><rect fill="#777" height="6" rx="2" ry="2" width="6" x="53.0" y="29.0" /><rect fill="#777" height="6" rx="2" ry="2" width="6" x="5.0" y="39.0" /><rect fill="white" height="6" rx="2" ry="2" width="6" x="13.0" y="39.0" /><rect fill="white" height="6" rx="2" ry="2" width="6" x="21.0" y="39.0" /><rect fill="white" height="6" rx="2" ry="2" width="6" x="29.0" y="39.0" /><rect fill="white" height="6" rx="2" ry="2" width="6" x="37.0" y="39.0" /><rect fill="white" height="6" rx="2" ry="2" width="6" x="45.0" y="39.0" /><rect fill="#777" height="6" rx="2" ry="2" width="6" x="53.0" y="39.0" /></svg>