<svg width="72" height="72" viewBox="0 0 72 72" fill="none" xmlns="http://www.w3.org/2000/svg">
<path d="M0 24C0 12.6863 0 7.02944 3.51472 3.51472C7.02944 0 12.6863 0 24 0H48C59.3137 0 64.9706 0 68.4853 3.51472C72 7.02944 72 12.6863 72 24V48C72 59.3137 72 64.9706 68.4853 68.4853C64.9706 72 59.3137 72 48 72H24C12.6863 72 7.02944 72 3.51472 68.4853C0 64.9706 0 59.3137 0 48V24Z" fill="#2FA1E2"/>
<path fill-rule="evenodd" clip-rule="evenodd" d="M19.4661 22.4327C30.4393 20.5224 41.5755 20.5224 52.5487 22.4327C55.122 22.8923 57 25.0754 57 27.6463V44.3501C57 46.921 55.122 49.1041 52.5487 49.5494C47.0473 50.5117 41.5162 51 36 51C30.4838 51 24.9527 50.5117 19.4661 49.5494C16.878 49.1041 15 46.921 15 44.3501V27.6463C15 25.0754 16.878 22.8923 19.4661 22.4327ZM33.8776 42.0717L41.7104 36.8676V36.8553C42.3316 36.439 42.3316 35.5451 41.7104 35.1532L33.8776 29.9124C33.1833 29.4838 32.2939 29.9491 32.2939 30.7696V41.2145C32.2939 42.035 33.2198 42.537 33.8776 42.0717Z" fill="white"/>
</svg>
