<svg xmlns="http://www.w3.org/2000/svg" width="32" height="32" fill="none" xmlns:v="https://vecta.io/nano"><path d="M16.001 3a1.06 1.06 0 0 0-.772.335L12.32 6.382c-.426.446-.426 1.17 0 1.616s1.117.446 1.543 0L14.911 6.9v2.957c0 .631.488 1.143 1.091 1.143s1.091-.512 1.091-1.143V6.903l1.045 1.095c.426.446 1.117.446 1.543 0s.426-1.17 0-1.616L16.805 3.37c-.199-.228-.486-.37-.804-.37zM11 13a5 5 0 0 0-5 5v5a2 2 0 0 0 2 2h16a2 2 0 0 0 2-2v-5a5 5 0 0 0-5-5H11zm5 10a4 4 0 1 0 0-8 4 4 0 1 0 0 8z" fill-rule="evenodd" fill="#416ef0"/><rect x="3" y="27" width="26" height="2" rx="1" fill="#416ef0"/></svg>