<svg xmlns="http://www.w3.org/2000/svg" width="72" height="72" fill="none" xmlns:v="https://vecta.io/nano"><path d="M0 24C0 12.686 0 7.029 3.515 3.515S12.686 0 24 0h24c11.314 0 16.971 0 20.485 3.515S72 12.686 72 24v24c0 11.314 0 16.971-3.515 20.485S59.314 72 48 72H24c-11.314 0-16.971 0-20.485-3.515S0 59.314 0 48V24z" fill="#000"/><path fill-rule="evenodd" d="M46.352 20h5.52l-12.06 13.555 5.193 6.751c-.904.571-1.743 1.235-2.503 1.98L27.729 23.079h-3.282l16.416 21.106a14.98 14.98 0 0 0-1.702 3.02l-4.971-6.391L24.235 52h-5.524l12.9-14.498L18 20h11.391l7.865 10.225L46.352 20zM64 53c0 6.075-4.925 11-11 11s-11-4.925-11-11 4.925-11 11-11 11 4.925 11 11zm-5.67 1.035c-.81 1.545-2.401 3.189-5.027 4.778l-.302.187-.302-.187c-2.627-1.588-4.217-3.233-5.029-4.778-.816-1.557-.846-3.028-.308-4.155.532-1.115 1.588-1.813 2.76-1.875.991-.056 2.021.349 2.879 1.252.857-.903 1.888-1.308 2.878-1.252 1.172.062 2.228.76 2.76 1.875.538 1.127.508 2.598-.308 4.155z" fill="#fff"/></svg>