<svg xmlns="http://www.w3.org/2000/svg" width="72" height="72" fill="none" xmlns:v="https://vecta.io/nano"><path d="M0 24C0 12.686 0 7.029 3.515 3.515S12.686 0 24 0h24c11.314 0 16.971 0 20.485 3.515S72 12.686 72 24v24c0 11.314 0 16.971-3.515 20.485S59.314 72 48 72H24c-11.314 0-16.971 0-20.485-3.515S0 59.314 0 48V24z" fill="#ea3323"/><path fill-rule="evenodd" d="M19.466 22.433c10.973-1.91 22.11-1.91 33.083 0 2.573.46 4.451 2.643 4.451 5.214v9.893C55.727 37.188 54.385 37 53 37c-7.941 0-14.441 6.17-14.966 13.978L36 51c-5.516 0-11.048-.488-16.534-1.451C16.878 49.105 15 46.921 15 44.35V27.646c0-2.571 1.878-4.754 4.466-5.214zm14.136 19.396l7.926-4.996v-.012c.629-.4.629-1.258 0-1.634l-7.926-5.031c-.703-.412-1.602.035-1.602.823v10.027c0 .788.937 1.27 1.602.823zM64 52c0 6.075-4.925 11-11 11s-11-4.925-11-11 4.925-11 11-11 11 4.925 11 11zm-20 0c0 1.396 3.626 6 8.997 6C58.453 58 62 53.396 62 52c0-1.403-3.554-6-9.003-6C47.626 46 44 50.597 44 52zm12.505 0c0 1.984-1.573 3.657-3.501 3.657-1.942 0-3.501-1.673-3.508-3.657 0-2.039 1.566-3.657 3.508-3.657 1.928 0 3.501 1.624 3.501 3.657zM53 54a2 2 0 1 0 0-4 2 2 0 1 0 0 4z" fill="#fff"/></svg>