<?xml version="1.0" encoding="UTF-8"?>
<svg xmlns="http://www.w3.org/2000/svg" xmlns:xlink="http://www.w3.org/1999/xlink" viewBox="0 0 700 350">
  <defs>
    <style>
      .cls-1 {
        fill: url(#linear-gradient);
        mix-blend-mode: multiply;
      }

      .cls-1, .cls-2, .cls-3, .cls-4, .cls-5, .cls-6, .cls-7, .cls-8, .cls-9, .cls-10, .cls-11, .cls-12 {
        stroke-width: 0px;
      }

      .cls-2 {
        fill: url(#linear-gradient-2);
      }

      .cls-13 {
        isolation: isolate;
      }

      .cls-3 {
        fill: #759dff;
      }

      .cls-4 {
        fill: #2c41ff;
      }

      .cls-5 {
        fill: #4575ff;
      }

      .cls-6 {
        fill: #457cff;
      }

      .cls-7 {
        fill: #2046f9;
      }

      .cls-8 {
        fill: #dde4ff;
      }

      .cls-9 {
        fill: #fff;
      }

      .cls-10 {
        fill: #f6d518;
      }

      .cls-11 {
        fill: #e7f2ff;
      }

      .cls-12 {
        fill: #00ce88;
      }
    </style>
    <linearGradient id="linear-gradient" x1="477.69" y1="220.01" x2="615.99" y2="206" gradientUnits="userSpaceOnUse">
      <stop offset=".13" stop-color="#5c81f6"/>
      <stop offset="1" stop-color="#f5f6fa"/>
    </linearGradient>
    <linearGradient id="linear-gradient-2" x1="267.5" y1="271.33" x2="295.31" y2="243.96" gradientUnits="userSpaceOnUse">
      <stop offset="0" stop-color="#6c96ed"/>
      <stop offset=".21" stop-color="#96b4f2"/>
      <stop offset=".46" stop-color="#c3d4f7"/>
      <stop offset=".68" stop-color="#e3ebfb"/>
      <stop offset=".87" stop-color="#f7f9fe"/>
      <stop offset="1" stop-color="#fff"/>
    </linearGradient>
  </defs>
  <g class="cls-13">
    <g id="Layer_2" data-name="Layer 2">
      <g id="Layer_1-2" data-name="Layer 1">
        <g>
          <rect class="cls-7" width="700" height="350" transform="translate(700 350) rotate(180)"/>
          <g>
            <rect class="cls-5" x="122.18" y="79.15" width="268.4" height="180.78" rx="8" ry="8"/>
            <g>
              <path class="cls-5" d="m576.11,128h-227.57c-2.8,0-5.06,2.27-5.06,5.06v13.77h0v150.84c0,2.8,2.27,5.06,5.06,5.06h227.57c2.8,0,5.06-2.27,5.06-5.06v-164.61c0-2.8-2.27-5.06-5.06-5.06Z"/>
              <path class="cls-1" d="m568.33,139.95h-212c-2.61,0-4.72,2.11-4.72,4.72v12.82h0v140.53c0,2.61,2.11,4.72,4.72,4.72h216.72v-158.07c0-2.61-2.11-4.72-4.72-4.72Z"/>
              <path class="cls-8" d="m329.72,158.74v150.99c0,2.8,2.27,5.06,5.06,5.06h227.57c2.8,0,5.06-2.27,5.06-5.06v-150.99h-237.69Z"/>
              <path class="cls-11" d="m567.42,145.01v13.77h-237.69v-13.77c0-2.8,2.27-5.06,5.06-5.06h227.57c2.8,0,5.06,2.27,5.06,5.06Z"/>
              <g>
                <rect class="cls-3" x="543.75" y="144.63" width="8.63" height="8.63" rx="4.31" ry="4.31"/>
                <rect class="cls-12" x="530.93" y="144.63" width="8.63" height="8.63" rx="4.31" ry="4.31"/>
                <rect class="cls-10" x="518.73" y="144.63" width="8.63" height="8.63" rx="4.31" ry="4.31"/>
              </g>
              <g>
                <path class="cls-3" d="m420.1,198.28h-72.04c-.53,0-.96-.43-.96-.96s.43-.96.96-.96h72.04c.53,0,.96.43.96.96s-.43.96-.96.96Z"/>
                <path class="cls-3" d="m383.92,181.2h-35.86c-.53,0-.96-.43-.96-.96s.43-.96.96-.96h35.86c.53,0,.96.43.96.96s-.43.96-.96.96Z"/>
                <path class="cls-3" d="m383.92,215.37h-35.86c-.53,0-.96-.43-.96-.96s.43-.96.96-.96h35.86c.53,0,.96.43.96.96s-.43.96-.96.96Z"/>
              </g>
            </g>
            <g>
              <g>
                <rect class="cls-8" x="95.1" y="41.35" width="62.17" height="59.94"/>
                <rect class="cls-8" x="157.09" y="100.53" width="62.17" height="59.94"/>
              </g>
              <g>
                <path class="cls-8" d="m312.03,98.97c0-.77.62-1.39,1.39-1.39h9.64s0-9.64,0-9.64c0-.77.62-1.39,1.39-1.39s1.39.62,1.39,1.39v9.64s9.64,0,9.64,0c.77,0,1.39.62,1.39,1.39s-.62,1.39-1.39,1.39h-9.64s0,9.64,0,9.64c0,.77-.62,1.39-1.39,1.39s-1.39-.62-1.39-1.39v-9.64s-9.64,0-9.64,0c-.77,0-1.39-.62-1.39-1.39Z"/>
                <path class="cls-3" d="m258.3,52.53c0-.77.62-1.39,1.39-1.39h9.64s0-9.64,0-9.64c0-.77.62-1.39,1.39-1.39s1.39.62,1.39,1.39v9.64s9.64,0,9.64,0c.77,0,1.39.62,1.39,1.39s-.62,1.39-1.39,1.39h-9.64s0,9.64,0,9.64c0,.77-.62,1.39-1.39,1.39s-1.39-.62-1.39-1.39v-9.64s-9.64,0-9.64,0c-.77,0-1.39-.62-1.39-1.39Z"/>
              </g>
              <g>
                <path class="cls-4" d="m285.41,160.05c-.53-2.98-1.9-5.6-3.84-7.65-3.47-3.67-5.31-8.5-5.32-13.55-.01-4.24-1.82-8.44-5.32-11.37-2.31-1.93-5.02-3.05-7.8-3.38-5.03-.6-9.56-3.1-12.83-6.97-2.74-3.24-6.83-5.29-11.4-5.29-2.97,0-5.72.88-8.05,2.37-2.32-1.49-5.08-2.37-8.05-2.37-4.57,0-8.66,2.06-11.4,5.29-3.27,3.87-7.8,6.37-12.83,6.97-2.78.33-5.5,1.44-7.8,3.38-3.5,2.94-5.31,7.14-5.32,11.37-.01,5.05-1.86,9.88-5.32,13.55-1.93,2.05-3.31,4.66-3.84,7.65-.79,4.5.52,8.88,3.23,12.14,3.24,3.89,4.92,8.78,4.64,13.83-.16,2.8.47,5.68,1.98,8.29,2.28,3.96,6.11,6.47,10.28,7.23,4.98.9,9.41,3.56,12.44,7.62,1.68,2.25,4.01,4.05,6.84,5.08,5.4,1.96,11.18.61,15.16-3.01,3.97,3.62,9.76,4.98,15.16,3.01,2.83-1.03,5.16-2.83,6.84-5.08,3.03-4.05,7.46-6.71,12.44-7.62,4.17-.75,7.99-3.27,10.28-7.23,1.51-2.61,2.14-5.49,1.98-8.29-.29-5.05,1.4-9.94,4.64-13.83,2.71-3.26,4.02-7.64,3.23-12.14Z"/>
                <g>
                  <path class="cls-9" d="m299.81,229.69c-4-6.78-12-10.99-20.73-10.99h-91.43c-.47,0-.94.01-1.4.03-10.97.48-20.52,7.68-24.56,17.89l-9.65,24.39h58.09l.08-2.29v2.29h108.1l-18.49-31.32Z"/>
                  <path class="cls-2" d="m318.29,261.01h-37.64v-42.31c8.11.48,15.4,4.62,19.16,10.99l18.49,31.32Z"/>
                  <path class="cls-8" d="m230.86,211.99c-5.88,0-11.51-2.33-15.66-6.49-4.15-4.15-6.49-9.79-6.49-15.66v-17.23h44.3v17.23c0,5.88-2.33,11.51-6.49,15.66-4.15,4.15-9.79,6.49-15.66,6.49Z"/>
                  <path class="cls-8" d="m241.64,205.12c-6.95,2.74-14.62,2.74-21.57,0l-5.56-2.19v20.59c0,5.82,3.13,11.25,8.17,14.16,2.52,1.46,5.35,2.18,8.17,2.18s5.65-.73,8.18-2.18c5.04-2.91,8.17-8.34,8.17-14.16v-20.59l-5.56,2.19Z"/>
                </g>
              </g>
              <g>
                <rect class="cls-9" x="431.22" y="216.7" width="50.37" height="17.35"/>
                <rect class="cls-9" x="435.02" y="185.27" width="44.62" height="31.43"/>
                <g>
                  <path class="cls-4" d="m520.06,283.27c-4-6.78-12-10.99-20.73-10.99h-72.72c-.47,0-6.85.01-7.32.03-10.97.48-18.94,7.68-22.98,17.89l-9.66,24.39h50.03l.08-2.29v2.29h95.23l-11.94-31.32Z"/>
                  <path class="cls-3" d="m435.27,217.06v26.36c0,5.88,2.33,11.51,6.49,15.66,4.15,4.15,9.79,6.49,15.66,6.49s11.51-2.33,15.66-6.49c4.15-4.15,6.49-9.79,6.49-15.66v-26.36h-44.3Z"/>
                  <path class="cls-3" d="m468.21,258.7c-6.95,2.74-14.62,2.74-21.57,0l-5.56-2.19v20.59c0,5.82,3.13,11.25,8.17,14.16,2.52,1.46,5.35,2.18,8.17,2.18s5.65-.73,8.18-2.18c5.04-2.91,8.17-8.34,8.17-14.16v-20.59l-5.56,2.19Z"/>
                </g>
                <path class="cls-6" d="m445.15,271.2l15.01-8.95c-1.27.15-2.57.23-3.89.23-3.96,0-7.72-.7-11.11-1.94v10.66Z"/>
              </g>
            </g>
            <path class="cls-3" d="m601.38,166h-66.93c-21.42,0-38.78,17.36-38.78,38.78s17.36,38.78,38.78,38.78h66.93c21.42,0,38.78-17.36,38.78-38.78s-17.36-38.78-38.78-38.78Z"/>
            <polyline class="cls-3" points="529.46 260.33 529.46 239.86 559.24 239.86"/>
            <g>
              <circle class="cls-8" cx="579.01" cy="227.22" r="2.8"/>
              <circle class="cls-8" cx="591.15" cy="227.22" r="2.8"/>
              <circle class="cls-8" cx="568.34" cy="227.22" r="2.8"/>
            </g>
          </g>
        </g>
      </g>
    </g>
  </g>
</svg>