<?xml version="1.0" encoding="UTF-8"?>
<svg id="Layer_2" data-name="Layer 2" xmlns="http://www.w3.org/2000/svg" xmlns:xlink="http://www.w3.org/1999/xlink" viewBox="0 0 700 350">
  <defs>
    <style>
      .cls-1 {
        fill: none;
        stroke: url(#linear-gradient);
        stroke-miterlimit: 10;
      }

      .cls-2 {
        fill: #4c43ff;
      }

      .cls-2, .cls-3, .cls-4, .cls-5, .cls-6, .cls-7, .cls-8, .cls-9, .cls-10 {
        stroke-width: 0px;
      }

      .cls-3 {
        fill: #759dff;
      }

      .cls-4 {
        fill: #8343ff;
      }

      .cls-5 {
        fill: #4785ff;
      }

      .cls-6 {
        fill: #58e487;
      }

      .cls-7 {
        fill: #4575ff;
      }

      .cls-8 {
        fill: #406cf0;
      }

      .cls-9 {
        fill: #9ffba5;
      }

      .cls-10 {
        fill: #f5f9ff;
      }
    </style>
    <linearGradient id="linear-gradient" x1="227.2" y1="176.05" x2="466.08" y2="176.05" gradientUnits="userSpaceOnUse">
      <stop offset="0" stop-color="#f3f7fa"/>
      <stop offset="0" stop-color="#fff"/>
      <stop offset=".33" stop-color="#c9a5ff"/>
      <stop offset="1" stop-color="#1f85ff"/>
    </linearGradient>
  </defs>
  <g id="Layer_1-2" data-name="Layer 1">
    <g>
      <rect class="cls-4" width="700" height="350"/>
      <g>
        <circle class="cls-1" cx="346.64" cy="176.05" r="118.94"/>
        <g>
          <g>
            <path class="cls-8" d="m578.15,183.54h13.89c17.41-.3,33.04-8.58,43.93-21.64.65-.78,1.29-1.58,1.9-2.4,1.23-1.63,2.4-3.33,3.49-5.08.27-.44.54-.88.8-1.33.43-.73.84-1.47,1.24-2.21,1.08-2,2.07-4.07,2.95-6.2.76-1.82,1.44-3.69,2.04-5.6.09-.3.19-.6.28-.9.21-.71.42-1.42.61-2.14,1.58-5.88,2.43-12.11,2.43-18.54h0c0-36.14-26.63-65.49-59.67-66.03h0s-13.89-.01-13.89-.01"/>
            <g>
              <ellipse class="cls-10" cx="580.01" cy="117.5" rx="60.6" ry="66.05"/>
              <ellipse class="cls-5" cx="580.01" cy="117.5" rx="47.64" ry="51.92"/>
              <path class="cls-8" d="m538.07,117.5c0-27.63,19.81-50.22,44.79-51.82-.94-.06-1.89-.09-2.85-.09-26.31,0-47.64,23.24-47.64,51.92s21.33,51.92,47.64,51.92c.96,0,1.9-.03,2.85-.09-24.98-1.6-44.79-24.19-44.79-51.82Z"/>
              <path class="cls-2" d="m627.64,116.49c0,.34.01.67.01,1.01,0,28.67-21.33,51.92-47.64,51.92s-47.64-23.24-47.64-51.92c0-.34,0-.67.01-1.01h-12.96c0,.34-.01.67-.01,1.01,0,36.48,27.13,66.05,60.6,66.05s60.6-29.57,60.6-66.05c0-.34,0-.67-.01-1.01h-12.96Z"/>
            </g>
          </g>
          <g>
            <path class="cls-8" d="m163.81,303.28h20.42v-.02c25.6-.42,48.58-12.59,64.6-31.8.96-1.15,1.89-2.32,2.8-3.52,1.82-2.4,3.53-4.89,5.13-7.48.4-.65.79-1.3,1.18-1.95.63-1.07,1.23-2.16,1.83-3.25,1.59-2.95,3.04-5.99,4.34-9.12,1.11-2.68,2.11-5.43,3-8.23.14-.44.27-.88.41-1.32.31-1.04.61-2.09.9-3.14,2.32-8.65,3.57-17.8,3.57-27.27h0c0-53.14-39.16-96.31-87.75-97.1v-.02h-20.42"/>
            <g>
              <ellipse class="cls-10" cx="166.55" cy="206.15" rx="89.11" ry="97.12"/>
              <ellipse class="cls-3" cx="166.55" cy="206.15" rx="70.05" ry="76.34"/>
              <path class="cls-8" d="m104.88,206.15c0-40.63,29.13-73.85,65.86-76.21-1.39-.09-2.78-.14-4.18-.14-38.69,0-70.05,34.18-70.05,76.34s31.36,76.34,70.05,76.34c1.41,0,2.8-.05,4.18-.14-36.74-2.36-65.86-35.57-65.86-76.21Z"/>
              <path class="cls-2" d="m236.58,204.67c0,.49.02.99.02,1.48,0,42.16-31.36,76.34-70.05,76.34s-70.05-34.18-70.05-76.34c0-.5,0-.99.02-1.48h-19.06c0,.49-.02.99-.02,1.48,0,53.64,39.9,97.12,89.11,97.12s89.11-43.48,89.11-97.12c0-.5-.01-.99-.02-1.48h-19.06Z"/>
            </g>
            <path class="cls-7" d="m230.85,211.9c0-10.82-2.36-21.04-6.55-30.09l-107.68,64.01c10.67,19.72,30.36,32.95,52.88,32.95,33.88,0,61.35-29.94,61.35-66.87Z"/>
          </g>
          <g>
            <path class="cls-6" d="m356.77,314.19h13.11c16.43-.28,31.18-8.09,41.46-20.42.62-.74,1.21-1.49,1.8-2.26,1.17-1.54,2.26-3.14,3.29-4.8.26-.41.51-.83.76-1.25.4-.69.79-1.38,1.17-2.09,1.02-1.89,1.95-3.84,2.79-5.86.71-1.72,1.35-3.48,1.93-5.28.09-.28.18-.56.26-.85.2-.67.39-1.34.58-2.02,1.49-5.55,2.29-11.42,2.29-17.5h0c0-34.1-25.13-61.81-56.31-62.32h0s-13.11-.01-13.11-.01"/>
            <g>
              <ellipse class="cls-10" cx="358.53" cy="251.87" rx="57.19" ry="62.33"/>
              <ellipse class="cls-9" cx="358.53" cy="251.87" rx="44.95" ry="48.99"/>
              <path class="cls-6" d="m318.95,251.87c0-26.08,18.69-47.39,42.27-48.91-.89-.06-1.78-.09-2.69-.09-24.83,0-44.95,21.94-44.95,48.99s20.13,48.99,44.95,48.99c.9,0,1.8-.03,2.69-.09-23.58-1.51-42.27-22.83-42.27-48.91Z"/>
              <path class="cls-2" d="m403.47,250.92c0,.32.01.63.01.95,0,27.06-20.13,48.99-44.95,48.99s-44.95-21.94-44.95-48.99c0-.32,0-.64.01-.95h-12.23c0,.32-.01.63-.01.95,0,34.42,25.6,62.33,57.19,62.33s57.19-27.91,57.19-62.33c0-.32,0-.63-.01-.95h-12.23Z"/>
            </g>
          </g>
          <g>
            <path class="cls-6" d="m368.96,132.55h7.3c9.16-.16,17.38-4.51,23.1-11.38.34-.41.68-.83,1-1.26.65-.86,1.26-1.75,1.83-2.67.14-.23.28-.46.42-.7.23-.38.44-.77.65-1.16.57-1.05,1.09-2.14,1.55-3.26.4-.96.76-1.94,1.07-2.95.05-.16.1-.31.15-.47.11-.37.22-.75.32-1.12.83-3.09,1.28-6.37,1.28-9.75h0c0-19.01-14.01-34.44-31.38-34.73h0s-7.3,0-7.3,0"/>
            <g>
              <ellipse class="cls-10" cx="369.94" cy="97.81" rx="31.87" ry="34.73"/>
              <ellipse class="cls-9" cx="369.94" cy="97.81" rx="25.05" ry="27.3"/>
              <path class="cls-6" d="m347.88,97.81c0-14.53,10.42-26.41,23.56-27.25-.5-.03-.99-.05-1.5-.05-13.84,0-25.05,12.22-25.05,27.3s11.22,27.3,25.05,27.3c.5,0,1-.02,1.5-.05-13.14-.84-23.56-12.72-23.56-27.25Z"/>
              <path class="cls-2" d="m394.99,97.28c0,.18,0,.35,0,.53,0,15.08-11.22,27.3-25.05,27.3s-25.05-12.22-25.05-27.3c0-.18,0-.35,0-.53h-6.82c0,.18,0,.35,0,.53,0,19.18,14.27,34.73,31.87,34.73s31.87-15.55,31.87-34.73c0-.18,0-.35,0-.53h-6.82Z"/>
            </g>
          </g>
          <g>
            <path class="cls-6" d="m450.26,132.55h7.3c9.16-.16,17.38-4.51,23.1-11.38.34-.41.68-.83,1-1.26.65-.86,1.26-1.75,1.83-2.67.14-.23.28-.46.42-.7.23-.38.44-.77.65-1.16.57-1.05,1.09-2.14,1.55-3.26.4-.96.76-1.94,1.07-2.95.05-.16.1-.31.15-.47.11-.37.22-.75.32-1.12.83-3.09,1.28-6.37,1.28-9.75h0c0-19.01-14.01-34.44-31.38-34.73h0s-7.3,0-7.3,0"/>
            <g>
              <ellipse class="cls-10" cx="451.24" cy="97.81" rx="31.87" ry="34.73"/>
              <ellipse class="cls-9" cx="451.24" cy="97.81" rx="25.05" ry="27.3"/>
              <path class="cls-6" d="m429.18,97.81c0-14.53,10.42-26.41,23.56-27.25-.5-.03-.99-.05-1.5-.05-13.84,0-25.05,12.22-25.05,27.3s11.22,27.3,25.05,27.3c.5,0,1-.02,1.5-.05-13.14-.84-23.56-12.72-23.56-27.25Z"/>
              <path class="cls-2" d="m476.29,97.28c0,.18,0,.35,0,.53,0,15.08-11.22,27.3-25.05,27.3s-25.05-12.22-25.05-27.3c0-.18,0-.35,0-.53h-6.82c0,.18,0,.35,0,.53,0,19.18,14.27,34.73,31.87,34.73s31.87-15.55,31.87-34.73c0-.18,0-.35,0-.53h-6.82Z"/>
            </g>
          </g>
        </g>
      </g>
    </g>
  </g>
</svg>