<svg xmlns="http://www.w3.org/2000/svg" width="72" height="72" fill="none" xmlns:v="https://vecta.io/nano"><path d="M0 24C0 12.686 0 7.029 3.515 3.515S12.686 0 24 0h24c11.314 0 16.971 0 20.485 3.515S72 12.686 72 24v24c0 11.314 0 16.971-3.515 20.485S59.314 72 48 72H24c-11.314 0-16.971 0-20.485-3.515S0 59.314 0 48V24z" fill="#a55fff"/><path fill-rule="evenodd" d="M34 18a6 6 0 0 1 6-6h8a6 6 0 0 1 6 6v8a6 6 0 0 1-6 6h-8a6 6 0 0 1-6-6v-8zm10-1a1 1 0 0 0-1 1v3h-3a1 1 0 1 0 0 2h3v3a1 1 0 1 0 2 0v-3h3a1 1 0 1 0 0-2h-3v-3a1 1 0 0 0-1-1zm-15 0h1.006l-.006.357v8.286A10.36 10.36 0 0 0 40.357 36h8.286a10.59 10.59 0 0 0 .357-.006V54a6 6 0 0 1-6 6H29a6 6 0 0 1-6-6V23a6 6 0 0 1 6-6zm2.5 35a1.5 1.5 0 1 0 0 3h9a1.5 1.5 0 1 0 0-3h-9z" fill="#fff"/></svg>