<svg width="24" height="25" viewBox="0 0 24 25" fill="none" xmlns="http://www.w3.org/2000/svg">
<path d="M23.7609 7.53086C23.7609 7.53086 23.5266 5.87617 22.8047 5.14961C21.8906 4.19336 20.8688 4.18867 20.4 4.13242C17.0438 3.88867 12.0047 3.88867 12.0047 3.88867H11.9953C11.9953 3.88867 6.95625 3.88867 3.6 4.13242C3.13125 4.18867 2.10938 4.19336 1.19531 5.14961C0.473438 5.87617 0.24375 7.53086 0.24375 7.53086C0.24375 7.53086 0 9.47617 0 11.4168V13.2355C0 15.1762 0.239062 17.1215 0.239062 17.1215C0.239062 17.1215 0.473437 18.7762 1.19062 19.5027C2.10469 20.459 3.30469 20.4262 3.83906 20.5293C5.76094 20.7121 12 20.7684 12 20.7684C12 20.7684 17.0438 20.759 20.4 20.5199C20.8688 20.4637 21.8906 20.459 22.8047 19.5027C23.5266 18.7762 23.7609 17.1215 23.7609 17.1215C23.7609 17.1215 24 15.1809 24 13.2355V11.4168C24 9.47617 23.7609 7.53086 23.7609 7.53086ZM9.52031 15.4434V8.69805L16.0031 12.0824L9.52031 15.4434Z" fill="white"/>
</svg>
