<svg width="24" height="25" viewBox="0 0 24 25" fill="none" xmlns="http://www.w3.org/2000/svg">
<path d="M19.6239 5.12247C18.2217 4.47908 16.7181 4.00505 15.1459 3.73356C15.1173 3.72832 15.0887 3.74142 15.0739 3.7676C14.8805 4.11155 14.6663 4.56026 14.5163 4.91294C12.8254 4.65979 11.1431 4.65979 9.48679 4.91294C9.33676 4.55242 9.11478 4.11155 8.92053 3.7676C8.90578 3.74229 8.87718 3.72919 8.84855 3.73356C7.27725 4.00419 5.7736 4.47821 4.37052 5.12247C4.35838 5.1277 4.34797 5.13644 4.34106 5.14778C1.48894 9.40878 0.707629 13.565 1.09092 17.6698C1.09265 17.6899 1.10392 17.7091 1.11953 17.7213C3.00127 19.1032 4.82406 19.9421 6.61301 20.4982C6.64164 20.5069 6.67197 20.4965 6.69019 20.4729C7.11337 19.895 7.49059 19.2857 7.81402 18.6449C7.83311 18.6074 7.81489 18.5628 7.77588 18.548C7.17754 18.321 6.6078 18.0443 6.05975 17.73C6.0164 17.7047 6.01293 17.6427 6.05281 17.613C6.16814 17.5266 6.2835 17.4367 6.39363 17.3459C6.41355 17.3293 6.44131 17.3258 6.46474 17.3363C10.0652 18.9801 13.9631 18.9801 17.521 17.3363C17.5445 17.3249 17.5722 17.3284 17.593 17.345C17.7032 17.4358 17.8185 17.5266 17.9347 17.613C17.9746 17.6427 17.972 17.7047 17.9286 17.73C17.3806 18.0504 16.8108 18.321 16.2116 18.5471C16.1726 18.562 16.1553 18.6074 16.1744 18.6449C16.5047 19.2848 16.882 19.8941 17.2973 20.472C17.3147 20.4965 17.3459 20.5069 17.3745 20.4982C19.1721 19.9421 20.9949 19.1032 22.8766 17.7213C22.8931 17.7091 22.9035 17.6907 22.9053 17.6706C23.364 12.9251 22.1369 8.80294 19.6525 5.14865C19.6465 5.13644 19.6361 5.1277 19.6239 5.12247ZM8.35169 15.1704C7.26771 15.1704 6.37454 14.1753 6.37454 12.9531C6.37454 11.7309 7.25039 10.7357 8.35169 10.7357C9.46163 10.7357 10.3462 11.7396 10.3288 12.9531C10.3288 14.1753 9.45296 15.1704 8.35169 15.1704ZM15.6619 15.1704C14.5779 15.1704 13.6847 14.1753 13.6847 12.9531C13.6847 11.7309 14.5606 10.7357 15.6619 10.7357C16.7718 10.7357 17.6563 11.7396 17.639 12.9531C17.639 14.1753 16.7718 15.1704 15.6619 15.1704Z" fill="white"/>
</svg>
