<svg width="24" height="25" viewBox="0 0 24 25" fill="none" xmlns="http://www.w3.org/2000/svg">
<path fill-rule="evenodd" clip-rule="evenodd" d="M22 12.3311C22 17.8539 17.5228 22.3311 12 22.3311C6.47715 22.3311 2 17.8539 2 12.3311C2 6.80821 6.47715 2.33105 12 2.33105C17.5228 2.33105 22 6.80821 22 12.3311ZM12.3584 9.7135C11.3857 10.1181 9.44178 10.9554 6.52658 12.2255C6.05319 12.4137 5.80521 12.5979 5.78264 12.778C5.74449 13.0823 6.12559 13.2021 6.64456 13.3653C6.71515 13.3875 6.78829 13.4105 6.86328 13.4349C7.37386 13.6009 8.06069 13.795 8.41774 13.8027C8.74162 13.8097 9.10311 13.6762 9.5022 13.4022C12.226 11.5636 13.632 10.6342 13.7203 10.6142C13.7825 10.6001 13.8688 10.5823 13.9273 10.6343C13.9858 10.6862 13.98 10.7847 13.9738 10.8111C13.9361 10.972 12.4401 12.3628 11.6659 13.0825C11.4246 13.3069 11.2534 13.4661 11.2184 13.5024C11.14 13.5838 11.0601 13.6609 10.9833 13.7349C10.509 14.1922 10.1533 14.5351 11.003 15.095C11.4114 15.3641 11.7381 15.5867 12.0641 15.8087C12.4201 16.0511 12.7752 16.2929 13.2347 16.5941C13.3517 16.6708 13.4635 16.7505 13.5724 16.8282C13.9867 17.1235 14.359 17.3889 14.8188 17.3466C15.086 17.322 15.3621 17.0707 15.5022 16.3213C15.8335 14.5503 16.4847 10.7131 16.6352 9.13187C16.6484 8.99333 16.6318 8.81603 16.6185 8.7382C16.6051 8.66037 16.5773 8.54948 16.4761 8.46739C16.3563 8.37017 16.1714 8.34967 16.0886 8.35112C15.7125 8.35775 15.1355 8.5584 12.3584 9.7135Z" fill="white"/>
</svg>
