<svg width="202" height="32" viewBox="0 0 202 32" fill="none" xmlns="http://www.w3.org/2000/svg">
<path d="M11.7637 21.7359L13.5605 11.4619H16.8163L15.0042 21.7359H18.567L18.0756 24.4849H11.2723L11.7637 21.7359ZM14.267 7.4997H21.8074C25.1093 7.4997 26.645 9.43473 26.1689 12.0762C25.8618 13.8269 24.5565 15.2398 23.0668 15.7158C24.6485 16.1305 25.7235 17.6355 25.355 19.7396C24.8636 22.4885 22.4524 24.4849 19.2735 24.4849L19.7649 21.6899C21.0243 21.4902 21.8842 20.707 22.0839 19.5399C22.3143 18.2038 21.6231 17.267 19.9645 17.267H17.0159L17.4767 14.5334H20.0721C21.5771 14.5334 22.6368 13.6887 22.8671 12.3987C23.0974 11.1087 22.4064 10.2947 20.7938 10.2947H13.7756L14.267 7.4997ZM17.9066 3.01536C10.0591 3.58358 3.25576 9.91081 3.25576 9.91081L5.20614 10.2794C3.35556 12.0754 1.61691 13.9834 0 15.9923C1.61691 18.0014 3.35556 19.9092 5.20614 21.7053L3.25576 22.0738C3.25576 22.0738 10.7194 29 19.0278 29H19.2735C26.7679 29 32.8494 23.1796 32.8494 15.9769C32.8494 9.14294 27.3515 3.53751 20.3485 3C20.3638 3.01536 17.9066 3.01536 17.9066 3.01536Z" fill="url(#paint0_linear_3135_14350)"/>
<path fill-rule="evenodd" clip-rule="evenodd" d="M100.498 23.1027V8.55933H102.909V14.7022C103.508 13.7655 104.645 13.1512 106.042 13.1512C108.423 13.1512 109.682 14.6562 109.682 17.1595V23.1027H107.301V17.7277C107.301 16.0997 106.503 15.3166 105.29 15.3166C103.785 15.3166 102.909 16.3762 102.909 17.8199V23.1027H100.498ZM48.4369 20.8145H54.4262V23.1181H45.9336V8.82041H48.4369V20.8145ZM55.6709 20.3538C55.6709 18.5724 56.9609 17.4512 59.2492 17.2823L62.1517 17.0673V16.8523C62.1517 15.5469 61.3685 15.0095 60.1552 15.0095C58.7424 15.0095 57.9591 15.593 57.9591 16.6066H55.932C55.932 14.518 57.652 13.1512 60.2781 13.1512C62.8734 13.1512 64.486 14.5641 64.486 17.2363V23.1027H62.3974L62.2284 21.6746C61.8138 22.6728 60.5084 23.3638 59.0035 23.3638C56.9148 23.3638 55.6709 22.1814 55.6709 20.3538ZM62.167 19.202V18.6952L60.1552 18.8488C58.6656 18.9869 58.0973 19.4784 58.0973 20.2617C58.0973 21.137 58.6809 21.567 59.7559 21.567C61.2302 21.567 62.167 20.6917 62.167 19.202ZM75.7582 23.1181V13.4583H73.3624V18.5263C73.3624 20.3692 72.6405 21.2445 71.1356 21.2445C69.7995 21.2445 69.0777 20.5074 69.0777 18.6644V13.4583H66.6973V19.5091C66.6973 21.8741 68.018 23.3792 70.2449 23.3792C71.5349 23.3792 72.7942 22.7496 73.3778 21.8281L73.5466 23.1181H75.7582ZM78.2148 23.1181V13.4583H80.4263L80.6259 14.7176C81.2249 13.7348 82.4073 13.1665 83.7128 13.1665C86.1392 13.1665 87.3832 14.6716 87.3832 17.1749V23.1181H85.0028V17.7431C85.0028 16.1151 84.2042 15.3319 82.9757 15.3319C81.5014 15.3319 80.6106 16.3456 80.6106 17.912V23.1181H78.2148ZM98.7019 16.9598C98.4409 14.6408 96.644 13.1665 94.0027 13.1665C91.1461 13.1665 89.1804 15.2705 89.165 18.2805C89.165 21.352 91.0847 23.3792 94.0179 23.3792C96.552 23.3792 98.4255 21.8281 98.7173 19.5859H96.3063C96.0452 20.6455 95.2159 21.2291 94.0179 21.2291C92.4976 21.2291 91.5608 20.1081 91.5608 18.2805C91.5608 16.453 92.5898 15.3012 94.1101 15.3012C95.2465 15.3012 96.0452 15.8694 96.3215 16.9598H98.7019ZM112.108 8.71294V23.1027H113.767L113.905 21.3674C114.535 22.6882 115.809 23.3484 117.315 23.3484C120.094 23.3484 121.814 21.2753 121.814 18.3727C121.814 15.4241 120.171 13.2741 117.437 13.2741C115.871 13.2741 114.581 13.9344 113.951 15.1938V8.71294H112.108ZM119.986 18.3113C119.986 20.277 118.865 21.6899 116.992 21.6899C115.103 21.6899 113.966 20.2924 113.981 18.3113C113.981 16.3609 115.118 14.9481 116.992 14.9481C118.865 14.9481 119.986 16.3456 119.986 18.3113ZM123.888 23.1027V8.71294H125.73V23.1027H123.888ZM137.77 18.3113C137.77 15.3627 135.651 13.2894 132.795 13.2894C129.908 13.2894 127.804 15.3627 127.804 18.3113C127.804 21.2599 129.938 23.3331 132.795 23.3331C135.651 23.3331 137.77 21.2599 137.77 18.3113ZM135.928 18.3267C135.928 20.323 134.637 21.7052 132.795 21.7052C130.937 21.7052 129.662 20.323 129.662 18.3267C129.662 16.3302 130.952 14.948 132.795 14.948C134.637 14.948 135.928 16.3302 135.928 18.3267ZM143.853 13.274C146.263 13.274 147.938 14.6408 148.276 16.7755H146.432C146.126 15.5623 145.143 14.9173 143.914 14.9173C142.179 14.9173 140.981 16.2534 140.981 18.3266C140.981 20.3998 142.102 21.7052 143.838 21.7052C145.143 21.7052 146.126 21.0142 146.464 19.893H148.306C147.938 21.9663 146.156 23.3484 143.853 23.3484C141.043 23.3484 139.184 21.3521 139.184 18.342C139.184 15.332 141.058 13.274 143.853 13.274ZM150.271 8.71294V23.1027H152.099V20.3846L153.727 18.6798L156.522 23.1027H158.641L155.002 17.3591L158.658 13.5505H156.353L152.115 18.0502V8.71294H150.271ZM160.131 21.9817C160.126 21.7047 160.202 21.4321 160.351 21.1987C160.501 20.9652 160.715 20.7814 160.97 20.6704C161.223 20.5595 161.504 20.5266 161.777 20.5758C162.05 20.6249 162.301 20.754 162.5 20.9466C162.7 21.1392 162.837 21.3867 162.895 21.6576C162.953 21.9284 162.929 22.2104 162.828 22.4678C162.725 22.7252 162.548 22.9464 162.319 23.1032C162.091 23.26 161.821 23.3454 161.545 23.3484C161.177 23.3514 160.822 23.2098 160.558 22.9541C160.294 22.6984 160.141 22.3493 160.131 21.9817ZM173.476 16.7755C173.138 14.6408 171.465 13.274 169.054 13.274C166.259 13.274 164.355 15.3473 164.385 18.342C164.385 21.3521 166.243 23.3484 169.054 23.3484C171.357 23.3484 173.138 21.9663 173.508 19.893H171.665C171.327 21.0142 170.343 21.7052 169.038 21.7052C167.304 21.7052 166.182 20.3998 166.182 18.3266C166.182 16.2534 167.379 14.9173 169.115 14.9173C170.343 14.9173 171.327 15.5623 171.634 16.7755H173.476ZM179.789 13.2894C182.646 13.2894 184.765 15.3627 184.765 18.3113C184.765 21.2599 182.646 23.3331 179.789 23.3331C176.932 23.3331 174.798 21.2599 174.798 18.3113C174.798 15.3627 176.917 13.2894 179.789 13.2894ZM179.789 21.7052C181.632 21.7052 182.922 20.323 182.922 18.3267C182.922 16.3302 181.632 14.948 179.789 14.948C177.946 14.948 176.656 16.3302 176.656 18.3267C176.656 20.323 177.93 21.7052 179.789 21.7052ZM186.792 13.5505V23.1027H188.62V17.4358C188.62 15.9001 189.54 14.948 190.923 14.948C192.228 14.948 193.042 15.7772 193.042 17.2823V23.1181H194.854V17.4512C194.854 15.9309 195.776 14.948 197.158 14.948C198.448 14.948 199.293 15.808 199.293 17.313V23.1335H201.09V16.8676C201.09 14.6562 199.769 13.2894 197.572 13.2894C196.083 13.2894 194.931 14.0266 194.486 15.2244C194.01 14.0266 192.95 13.2894 191.46 13.2894C190.109 13.2894 189.095 13.9037 188.604 14.8098L188.435 13.5505H186.792Z" fill="#18181A"/>
<defs>
<linearGradient id="paint0_linear_3135_14350" x1="10.8223" y1="27.154" x2="24.3537" y2="3.71719" gradientUnits="userSpaceOnUse">
<stop stop-color="#ED7678"/>
<stop offset="0.5" stop-color="#9D4E97"/>
<stop offset="0.61" stop-color="#764D98"/>
<stop offset="0.71" stop-color="#564D9A"/>
<stop offset="0.82" stop-color="#404C9A"/>
<stop offset="0.91" stop-color="#334C9B"/>
<stop offset="1" stop-color="#2E4C9B"/>
</linearGradient>
</defs>
</svg>
