<svg xmlns="http://www.w3.org/2000/svg" width="32" height="32" fill="none" xmlns:v="https://vecta.io/nano"><path fill-rule="evenodd" d="M8 3a5 5 0 0 0-5 5v16a5 5 0 0 0 5 5h16a5 5 0 0 0 5-5V8a5 5 0 0 0-5-5H8zm13.723 8.293a1.04 1.04 0 0 1 0 1.414l-3.782 3.992-.008.008c-.161.17-.366.266-.576.288-.273.028-.555-.067-.764-.288l-.009-.009-2.479-2.617-2.488 2.626a.91.91 0 0 1-1.34 0 1.04 1.04 0 0 1 0-1.414l3.158-3.333a.92.92 0 0 1 .67-.293.92.92 0 0 1 .67.293l2.488 2.626 3.119-3.293a.91.91 0 0 1 1.34 0zM10 20c0-.552.424-1 .947-1h10.105c.523 0 .947.448.947 1s-.424 1-.947 1H10.947c-.523 0-.947-.448-.947-1z" fill="#416ef0"/></svg>