<svg width="168" height="32" viewBox="0 0 168 32" fill="none" xmlns="http://www.w3.org/2000/svg">
<g clip-path="url(#clip0_7774_29183)">
<path fill-rule="evenodd" clip-rule="evenodd" d="M42.1887 15.9867C42.1887 11.4594 44.8491 9.03595 48.0473 9.03595C51.2454 9.03595 53.9058 11.4594 53.9058 15.9867C53.9058 20.5406 51.2454 22.9641 48.0473 22.9641C44.8491 22.9641 42.1887 20.5406 42.1887 15.9867ZM58.0945 15.9867C58.0945 9.99467 54.1605 6 48.0473 6C41.934 6 38 9.99467 38 15.9867C38 21.9787 41.934 26 48.0473 26C54.1605 26 58.0945 21.9787 58.0945 15.9867ZM73.2422 25.6539L78.28 11.1399V25.6539H82.0442V6.34627H76.1007L71.2611 21.3929L66.2799 6.34627H60.3931V25.6539H64.1573V11.1399L69.2234 25.6539H73.2422ZM102.437 6.34627V25.6539H97.1726L88.965 10.9268V25.6539H85.1442V6.34627H90.4085L98.6161 21.0733V6.34627H102.437ZM109.603 6.34627H105.556V25.6539H109.603V6.34627ZM114.744 25.6539H110.612L118.254 6.34627H122.329L129.999 25.6539H125.613L124.169 21.7391H116.188L114.744 25.6539ZM123.009 18.6232L120.178 11.0067L117.348 18.6232H123.009Z" fill="white"/>
</g>
<defs>
<clipPath id="clip0_7774_29183">
<rect width="92" height="20" fill="white" transform="translate(38 6)"/>
</clipPath>
</defs>
</svg>
