<svg width="24" height="24" viewBox="0 0 24 24" fill="none" xmlns="http://www.w3.org/2000/svg">
<path fill-rule="evenodd" clip-rule="evenodd" d="M9 1C8.44772 1 8 1.44772 8 2V3H7C4.79086 3 3 4.79086 3 7V8H2C1.44772 8 1 8.44772 1 9C1 9.55229 1.44772 10 2 10H3V14H2C1.44772 14 1 14.4477 1 15C1 15.5523 1.44772 16 2 16H3V17C3 19.2091 4.79086 21 7 21H8V22C8 22.5523 8.44772 23 9 23C9.55229 23 10 22.5523 10 22V21H14V22C14 22.5523 14.4477 23 15 23C15.5523 23 16 22.5523 16 22V21H17C19.2091 21 21 19.2091 21 17V16H22C22.5523 16 23 15.5523 23 15C23 14.4477 22.5523 14 22 14H21V10H22C22.5523 10 23 9.55229 23 9C23 8.44772 22.5523 8 22 8H21V7C21 4.79086 19.2091 3 17 3H16V2C16 1.44772 15.5523 1 15 1C14.4477 1 14 1.44772 14 2V3H10V2C10 1.44772 9.55229 1 9 1ZM14.1429 6.64286C14.1429 6.28782 13.855 6 13.5 6C13.145 6 12.8571 6.28782 12.8571 6.64286C12.8571 8.41782 11.4178 9.85714 9.64286 9.85714C9.28782 9.85714 9 10.145 9 10.5C9 10.855 9.28782 11.1429 9.64286 11.1429C11.4178 11.1429 12.8571 12.5822 12.8571 14.3571C12.8571 14.7122 13.145 15 13.5 15C13.855 15 14.1429 14.7122 14.1429 14.3571C14.1429 12.5822 15.5822 11.1429 17.3571 11.1429C17.7122 11.1429 18 10.855 18 10.5C18 10.145 17.7122 9.85714 17.3571 9.85714C15.5822 9.85714 14.1429 8.41782 14.1429 6.64286ZM8.85714 13.3571C8.85714 13.1599 8.69724 13 8.5 13C8.30276 13 8.14286 13.1599 8.14286 13.3571C8.14286 14.3432 7.34323 15.1429 6.35714 15.1429C6.1599 15.1429 6 15.3028 6 15.5C6 15.6972 6.1599 15.8571 6.35714 15.8571C7.34323 15.8571 8.14286 16.6568 8.14286 17.6429C8.14286 17.8401 8.30276 18 8.5 18C8.69724 18 8.85714 17.8401 8.85714 17.6429C8.85714 16.6568 9.65677 15.8571 10.6429 15.8571C10.8401 15.8571 11 15.6972 11 15.5C11 15.3028 10.8401 15.1429 10.6429 15.1429C9.65677 15.1429 8.85714 14.3432 8.85714 13.3571Z" fill="#3CBE78"/>
</svg>
