<svg width="72" height="72" viewBox="0 0 72 72" fill="none" xmlns="http://www.w3.org/2000/svg">
<rect width="72" height="72" rx="12" fill="#22E082"/>
<path d="M0 24C0 12.6863 0 7.02944 3.51472 3.51472C7.02944 0 12.6863 0 24 0H48C59.3137 0 64.9706 0 68.4853 3.51472C72 7.02944 72 12.6863 72 24V48C72 59.3137 72 64.9706 68.4853 68.4853C64.9706 72 59.3137 72 48 72H24C12.6863 72 7.02944 72 3.51472 68.4853C0 64.9706 0 59.3137 0 48V24Z" fill="#22E082"/>
<path fill-rule="evenodd" clip-rule="evenodd" d="M24 15C17.3883 15 12 20.3782 12 26.9935C12 33.6088 17.3753 39 24 39C30.6247 39 36 33.6218 36 26.9935C36 20.3652 30.6247 15 24 15ZM24 37C18.5857 37 14 32.4173 14 27C14 21.5827 18.5857 17 24 17C29.4143 17 34 21.5827 34 27C34 32.4173 29.4143 37 24 37ZM24 35C28.4124 35 32 31.4124 32 27C32 22.5876 28.4124 19 24 19C19.5876 19 16 22.5876 16 27C16 31.4124 19.5876 35 24 35ZM48.2277 27.821C44.6512 26.2582 40.4612 26 38.1378 26H38.1117V26.462C38.1117 30.3215 36.6236 34.0315 34 36.7358C38.0595 37.2658 43.8028 37.1163 48.2408 35.1866C50.6294 34.1402 52 32.7948 52 31.5038C52 30.2128 50.6294 28.8674 48.2408 27.821H48.2277ZM51.9736 43V47.3341H52C52 48.6624 50.6152 50.0465 48.2016 51.123C42.5699 53.6257 33.4169 53.6257 27.7984 51.123C25.3848 50.0465 24 48.6624 24 47.3341V43.0419C25.0815 43.9787 26.3081 44.6917 27.6269 45.1811C33.6147 47.5858 42.5699 47.5439 48.4786 45.1112C49.7579 44.6218 50.9317 43.9088 51.9736 43ZM48.9697 36.9437C50.0751 36.4682 51.0896 35.825 52 35.014V39.6564C51.7009 41.4463 49.2818 42.7048 47.8772 43.2921C42.5188 45.5434 34.065 45.5714 28.6286 43.362C26.9639 42.6768 25.7153 41.8658 25 40.9848C27.5621 40.859 30.0332 39.9641 32.1532 38.3979C37.9017 39.5446 44.4957 38.9713 48.9697 36.9437Z" fill="white"/>
</svg>
