<svg width="88" height="88" viewBox="0 0 88 88" fill="none" xmlns="http://www.w3.org/2000/svg">
<path d="M44 88C68.3005 88 88 68.3005 88 44C88 19.6995 68.3005 0 44 0C19.6995 0 0 19.6995 0 44C0 68.3005 19.6995 88 44 88Z" fill="#001D46"/>
<path fill-rule="evenodd" clip-rule="evenodd" d="M58.7081 24.2929C58.3176 23.9024 57.6844 23.9024 57.2939 24.2929L53.2929 28.2939C52.9024 28.6844 52.9024 29.3176 53.2929 29.7081C53.6834 30.0986 54.3166 30.0986 54.7071 29.7081L57.001 27.4142L57.001 39.001C57.001 39.5533 57.4487 40.001 58.001 40.001C58.5533 40.001 59.001 39.5533 59.001 39.001L59.001 27.4142L61.2949 29.7081C61.6854 30.0986 62.3186 30.0986 62.7091 29.7081C63.0996 29.3176 63.0996 28.6844 62.7091 28.2939L58.7081 24.2929ZM28.3012 28.2836C28.0733 28.5132 28.0733 28.8505 28.3012 29.08C28.6272 29.4082 29.1953 29.7919 30.0465 30.1544C31.7388 30.8751 34.2 31.3636 37.01 31.3636C39.82 31.3636 42.2812 30.8751 43.9735 30.1544C44.8246 29.7919 45.3928 29.4082 45.7187 29.08C45.9112 28.8863 45.9756 28.76 45.9963 28.7028C45.9988 28.6957 45.9999 28.6882 45.9999 28.6806C45.9999 28.6747 45.9991 28.6688 45.9971 28.6633C45.9774 28.6073 45.914 28.4802 45.7187 28.2836C45.3928 27.9554 44.8246 27.5717 43.9735 27.2092C42.2812 26.4885 39.82 26 37.01 26C34.2 26 31.7388 26.4885 30.0465 27.2092C29.1953 27.5717 28.6272 27.9554 28.3012 28.2836ZM45.9999 34.1511C45.9999 33.8015 45.6306 33.572 45.309 33.709C43.0953 34.6518 40.1604 35.1921 37.01 35.1921C33.8596 35.1921 30.9247 34.6518 28.711 33.709C28.3873 33.5712 28.0157 33.802 28.0157 34.1538V38.6821C28.0157 38.8235 28.0318 38.967 28.1141 39.082C28.1564 39.141 28.2164 39.2134 28.3012 39.2988C28.6272 39.627 29.1953 40.0107 30.0465 40.3732C31.7388 41.0939 34.2 41.5824 37.01 41.5824C39.82 41.5824 42.2812 41.0939 43.9735 40.3732C44.8246 40.0107 45.3928 39.627 45.7187 39.2988C45.7651 39.2521 45.804 39.2094 45.8367 39.1706C45.9684 39.0141 45.9999 38.8068 45.9999 38.6023V34.1511ZM28.0157 59.3123C28.0152 59.1468 28.0152 58.9805 28.0157 58.8149L28.0157 58.8091V54.5805C28.0157 54.2287 28.3873 53.9979 28.711 54.1357C30.9247 55.0785 33.8596 55.6188 37.01 55.6188C37.1815 55.6188 37.3524 55.6172 37.5225 55.614C38.1679 55.6019 38.6948 56.1444 38.6948 56.7899C38.6948 57.6584 38.7769 58.5065 38.9333 59.3259C39.1815 60.6261 38.3761 61.9976 37.0524 62L37.01 62C34.2 62 31.7388 61.5115 30.0465 60.7908C29.1953 60.4283 28.6272 60.0446 28.3012 59.7164C28.0685 59.482 28.023 59.3464 28.0157 59.3123ZM45.6129 45.2835C45.8462 45.1689 45.9999 44.9348 45.9999 44.6748V44.3699C45.9999 44.0203 45.6306 43.7908 45.309 43.9278C43.0953 44.8706 40.1604 45.4109 37.01 45.4109C33.8596 45.4109 30.9247 44.8706 28.711 43.9278C28.3873 43.79 28.0157 44.0208 28.0157 44.3726V48.89C28.0157 49.0314 28.0318 49.1749 28.1141 49.2899C28.1564 49.3489 28.2164 49.4213 28.3012 49.5067C28.6272 49.8349 29.1953 50.2186 30.0465 50.5811C31.7388 51.3018 34.2 51.7903 37.01 51.7903C37.5406 51.7903 38.0589 51.7729 38.5618 51.7398C39.2806 51.6925 39.8835 51.2163 40.2206 50.5797C41.4459 48.2653 43.335 46.4023 45.6129 45.2835ZM50.9999 65C55.9705 65 59.9999 60.9706 59.9999 56C59.9999 51.0294 55.9705 47 50.9999 47C46.0294 47 41.9999 51.0294 41.9999 56C41.9999 60.9706 46.0294 65 50.9999 65Z" fill="white"/>
</svg>
