<svg width="88" height="88" viewBox="0 0 88 88" fill="none" xmlns="http://www.w3.org/2000/svg">
<path d="M44 88C68.3005 88 88 68.3005 88 44C88 19.6995 68.3005 0 44 0C19.6995 0 0 19.6995 0 44C0 68.3005 19.6995 88 44 88Z" fill="#001D46"/>
<path fill-rule="evenodd" clip-rule="evenodd" d="M43 42.5856L40.7061 40.2917C40.3156 39.9011 39.6825 39.9011 39.2919 40.2917C38.9014 40.6822 38.9014 41.3154 39.2919 41.7059L43.2929 45.7069C43.6835 46.0974 44.3166 46.0974 44.7071 45.7069L48.7081 41.7059C49.0987 41.3154 49.0987 40.6822 48.7081 40.2917C48.3176 39.9011 47.6845 39.9011 47.2939 40.2917L45 42.5856V23.9988C45 23.4465 44.5523 22.9988 44 22.9988C43.4478 22.9988 43 23.4465 43 23.9988V42.5856ZM62.6413 29.4069C61.0521 27.7874 59.194 27 56.9635 27H48.6528V29.0817H56.9635C58.634 29.0817 60.0667 29.6779 61.2211 30.8575C62.3754 32.0338 62.9635 33.4939 62.9635 35.1963V38.9932L61.975 38.1388C61.3149 37.5682 60.5516 37.1219 59.707 36.819C58.8592 36.513 57.9333 36.3599 56.9635 36.3599H50.6528V38.4417H56.9635C58.0772 38.4417 59.1095 38.7318 60.0292 39.3025C61.4056 40.16 62.2596 41.7158 62.2628 43.3576V46.8516H55.8342C53.2565 46.8516 50.8478 48.028 49.3962 49.995C48.048 51.8249 45.9896 52.8738 43.7466 52.8738C41.5036 52.8738 39.4453 51.8249 38.097 49.995C36.6455 48.0248 34.2398 46.8516 31.659 46.8516H25.2054V44.3299C25.2054 42.5319 25.9656 40.8741 27.2888 39.787L27.3201 39.7615C28.3962 38.888 29.6475 38.4449 31.0428 38.4449H37.1157V36.3631H31.0428C30.0699 36.3631 29.147 36.5193 28.2993 36.8222C27.4546 37.1251 26.6913 37.5714 26.0313 38.142L25.0428 38.9964V35.1995C25.0428 33.4971 25.6277 32.037 26.7852 30.8606C27.9395 29.6843 29.3723 29.0849 31.0428 29.0849H39.1157V27.0032H31.0428C28.8123 27.0032 26.9541 27.7906 25.365 29.4101C23.7727 31.0296 23 32.9201 23 35.1963V52.8068C23 55.0799 23.7727 56.9735 25.3618 58.593C26.951 60.2125 28.8092 61 31.0396 61H56.9604C59.1908 61 61.049 60.2125 62.6382 58.593C64.2273 56.9735 65 55.0799 65 52.8068V35.1963C65 32.9233 64.2273 31.0296 62.6382 29.4101L62.6413 29.4069Z" fill="white"/>
</svg>
