<svg xmlns="http://www.w3.org/2000/svg" width="72" height="72" fill="none" xmlns:v="https://vecta.io/nano"><path d="M0 24C0 12.686 0 7.029 3.515 3.515S12.686 0 24 0h24c11.314 0 16.971 0 20.485 3.515S72 12.686 72 24v24c0 11.314 0 16.971-3.515 20.485S59.314 72 48 72H24c-11.314 0-16.971 0-20.485-3.515S0 59.314 0 48V24z" fill="#7870ff"/><path fill-rule="evenodd" d="M49.862 22.653a31.86 31.86 0 0 0-8.142-2.65c-.052-.01-.104.015-.131.065-.352.656-.741 1.513-1.014 2.186a29.03 29.03 0 0 0-9.145 0c-.273-.688-.676-1.529-1.029-2.186-.027-.048-.079-.073-.131-.065-2.857.516-5.591 1.421-8.142 2.65-.022.01-.041.027-.054.048-5.186 8.131-6.606 16.063-5.909 23.896.003.038.024.075.052.098 3.421 2.637 6.735 4.238 9.988 5.299.052.017.107-.003.14-.048.769-1.103 1.455-2.266 2.043-3.488.035-.072.002-.157-.069-.185-1.088-.433-2.124-.961-3.12-1.561-.079-.048-.085-.167-.013-.223.21-.165.419-.337.62-.51.036-.032.087-.038.129-.018 4.171 1.998 8.56 2.724 12.87 2.176.843-2.461 2.308-4.633 4.208-6.329a3.17 3.17 0 0 1-.356.02c-1.971 0-3.595-1.899-3.595-4.231s1.592-4.231 3.595-4.231c2.018 0 3.626 1.916 3.595 4.231a4.8 4.8 0 0 1-.575 2.31C47.843 38.692 50.341 38 53 38a15.09 15.09 0 0 1 2.71.244c-.714-5.655-2.728-10.804-5.797-15.542-.011-.023-.03-.04-.052-.05zM29.367 41.827c-1.971 0-3.595-1.899-3.595-4.231s1.592-4.231 3.595-4.231c2.018 0 3.626 1.916 3.595 4.231 0 2.332-1.593 4.231-3.595 4.231zM64 53c0 6.075-4.925 11-11 11s-11-4.925-11-11 4.925-11 11-11 11 4.925 11 11zm-11-.682c-1.851 0-3.364-1.403-3.364-3.184C49.636 47.403 51.166 46 53 46s3.364 1.389 3.364 3.127c0 1.788-1.514 3.191-3.364 3.191zM47.604 59C46.601 59 46 58.58 46 57.882c0-1.823 2.731-4.317 7-4.317 4.261 0 7 2.493 7 4.317C60 58.58 59.4 59 58.396 59H47.604z" fill="#fff"/></svg>