<svg xmlns="http://www.w3.org/2000/svg" width="72" height="72" fill="none" xmlns:v="https://vecta.io/nano"><path d="M0 24C0 12.686 0 7.029 3.515 3.515S12.686 0 24 0h24c11.314 0 16.971 0 20.485 3.515S72 12.686 72 24v24c0 11.314 0 16.971-3.515 20.485S59.314 72 48 72H24c-11.314 0-16.971 0-20.485-3.515S0 59.314 0 48V24z" fill="#000"/><path fill-rule="evenodd" d="M46.352 20h5.52l-12.06 13.555 5.193 6.751c-.904.571-1.743 1.235-2.503 1.98L27.729 23.079h-3.282l16.416 21.106a14.98 14.98 0 0 0-1.702 3.02l-4.971-6.391L24.235 52h-5.524l12.9-14.498L18 20h11.391l7.865 10.225L46.352 20zM64 53c0 6.075-4.925 11-11 11s-11-4.925-11-11 4.925-11 11-11 11 4.925 11 11zm-11-.682c-1.851 0-3.364-1.403-3.364-3.184C49.636 47.403 51.166 46 53 46s3.364 1.389 3.364 3.127c0 1.788-1.514 3.191-3.364 3.191zM47.604 59C46.601 59 46 58.58 46 57.882c0-1.823 2.731-4.317 7-4.317 4.261 0 7 2.493 7 4.317C60 58.58 59.4 59 58.396 59H47.604z" fill="#fff"/></svg>