<svg xmlns="http://www.w3.org/2000/svg" width="168" height="32" fill="none" xmlns:v="https://vecta.io/nano"><path fill-rule="evenodd" d="M71.829 9.63v9.63h2.332 2.332v-3.704-3.926c.073-.37.146-.741.364-1.037.292-.518.802-.741 1.385-.667.802.074 1.312.518 1.458 1.481v4 3.778h2.332 2.332v-4.444l-.073-4.889c-.146-1.333-.583-2.37-1.385-3.111-.656-.667-1.458-1.037-2.405-1.185-.364-.074-1.385 0-1.676.074-.874.222-1.531.519-2.114 1.185l-.364.296V3.556 0h-2.332-2.332v9.63h.146zM121.388.148c-.146.296-4.883 11.926-4.883 11.926h2.77 2.769l2.478-6L127 0h-2.769-2.77l-.073.148zM61.625 5.63c-1.02.148-1.822.444-2.624.963-1.603 1.037-2.624 2.815-2.915 4.889-.146.963-.073 2.148.146 3.037.583 2.296 2.114 4.074 4.081 4.741.729.222 1.02.296 1.895.296.656 0 .874 0 1.093-.074.948-.222 1.603-.593 2.186-1.185L65.78 18v.593.593h2.259 2.259v-6.667-6.667h-2.259-2.259v.593.593l-.219-.222c-.51-.593-1.239-.963-2.186-1.185-.291-.074-.437-.074-1.02-.074-.364.074-.656.074-.729.074zm29.736 0c-1.239.148-2.551.741-3.498 1.481-1.822 1.556-2.77 4-2.405 6.518.364 2.815 2.332 4.963 5.102 5.704.583.148 1.166.222 1.895.222 1.312 0 2.259-.222 3.28-.741 2.041-1.037 3.352-2.889 3.644-5.185a9.87 9.87 0 0 0 0-2.074c-.146-1.111-.583-2.222-1.239-3.111-.291-.37-.875-1.037-1.239-1.333-1.02-.815-2.186-1.333-3.498-1.481a9.4 9.4 0 0 0-2.041 0zm14.868 0c-1.239.148-2.478.667-3.426 1.481-.364.296-1.02.963-1.239 1.333-.656.889-1.02 2-1.239 3.111-.072.518-.072 1.556 0 2.074.438 2.963 2.551 5.259 5.467 5.852.583.148.874.148 1.53.148 1.239 0 2.332-.222 3.353-.815 2.696-1.407 4.154-4.519 3.498-7.704-.583-2.963-2.915-5.111-5.904-5.481-.51-.074-1.53-.074-2.04 0zM41 5.926l2.77 6.741 2.77 6.741s-.437 1.111-1.02 2.445-1.02 2.37-1.02 2.444 1.093 0 2.478 0h2.478l3.717-9.111L56.888 6s-.51-.074-2.478 0h-2.478l-1.531 3.852c-.656 2.074-1.312 3.852-1.312 3.852s-.656-1.778-1.53-3.852L46.102 6h-2.551C42.166 5.926 41 5.926 41 5.926zm22.885 4c.947.222 1.676.963 1.968 1.926a4.56 4.56 0 0 1 0 1.407c-.219.963-.947 1.704-1.895 1.926-.364.074-1.02.074-1.385 0-.802-.222-1.53-.815-1.822-1.556-.364-.815-.219-1.852.219-2.593.656-.963 1.749-1.333 2.915-1.111zm29.08.074c1.02.148 1.822.963 2.041 2 .073.37.073.963 0 1.333-.219.963-.948 1.63-1.822 1.926a4.35 4.35 0 0 1-1.385 0c-.729-.222-1.312-.741-1.676-1.407-.219-.444-.219-.667-.219-1.185 0-.444.073-.667.219-1.037.219-.444.51-.889.948-1.185.437-.444 1.166-.593 1.895-.444zm14.795 0c.875.148 1.604.741 1.895 1.556.146.37.219.592.219 1.037 0 .519-.073.741-.219 1.185-.291.667-.947 1.185-1.676 1.407-.292.074-1.093.074-1.385 0-.874-.222-1.603-.963-1.822-1.926a4.55 4.55 0 0 1 0-1.407c.292-1.185 1.312-2 2.478-2 .146.074.365.074.51.148zm9.912 3.259c-1.385.148-2.405 1.185-2.696 2.518a4.55 4.55 0 0 0 0 1.407c.291 1.185 1.166 2 2.332 2.296.146 0 .437.074.656.074.874 0 1.603-.296 2.186-.889.656-.667.875-1.333.875-2.222 0-1.111-.51-2.074-1.385-2.593-.583-.519-1.385-.667-1.968-.593zm-38.408 7.259c-.947.296-1.385 1.407-.875 2.222.146.222.437.519.656.593s.219.074.656.074c.364 0 .437 0 .656-.074a1.77 1.77 0 0 0 .729-.741c.365-.741 0-1.63-.729-2-.219-.148-.291-.148-.583-.148s-.364 0-.51.074zm-3.936.074c-1.239.222-2.041 1.037-2.405 2.37-.073.222-.073.444-.073.741v.518h-.51-.51v1.111 1.111h.51.51v2.667 2.667h1.385 1.385v-2.667-2.667h.948.947v-1.111-1.111h-.947-.948V24c.073-.518.292-.889.729-.963.291-.074.729-.074 1.02.074.146.074.219.074.219.074V22v-1.185l-.219-.074c-.291-.148-.656-.148-1.166-.148-.364-.074-.656 0-.875 0zm11.078 3.482c-.583.148-1.02.444-1.312.815l-.146.222v-.444-.444h-1.385-1.385V28v3.778h1.385 1.385v-2.074-2.296c.073-.296.219-.593.364-.741.364-.296 1.02-.222 1.312.148.219.296.219.296.219 2.667v2.222h1.385 1.385v-2.519c0-2.667 0-2.963-.146-3.481-.146-.444-.291-.815-.656-1.111-.292-.296-.583-.518-1.02-.593-.364 0-1.093 0-1.385.074zM93.329 24c-.437.074-1.093.296-1.458.593-.802.593-1.312 1.482-1.531 2.593-.073.444-.073 1.259 0 1.704.146.667.364 1.333.729 1.778.51.667 1.166 1.111 1.968 1.259.437.074 1.166.074 1.531-.074.437-.148.729-.296 1.093-.593l.291-.296v.37.37h1.385 1.385v-3.778-3.778h-1.385-1.385v.37.37l-.219-.074a2.52 2.52 0 0 0-1.458-.741C94.058 24 93.548 24 93.329 24zm10.568.074c-.511.074-1.021.444-1.312.815l-.146.148v-.444-.445h-1.385-1.385v3.778 3.778h1.385 1.385v-2.148c0-2.296 0-2.296.146-2.667a.8.8 0 0 1 .729-.444c.291 0 .437.074.655.222.292.296.292.222.292 2.741v2.222h1.385 1.385v-2.741c0-2.741 0-2.741-.073-3.037-.073-.148-.146-.445-.219-.667-.146-.296-.219-.37-.437-.593A2.79 2.79 0 0 0 105.5 24c-.51 0-1.093-.074-1.603.074zm7.215 0c-1.239.222-2.187.815-2.77 1.852-.145.296-.291.667-.437 1.037-.073.37-.073.444-.073 1.037 0 .667 0 .889.219 1.407.437 1.259 1.457 2.222 2.842 2.518.219.074.438.074.948.074.728 0 1.02-.074 1.53-.296l.292-.148v-1.259-1.259l-.219.148a1.65 1.65 0 0 1-1.02.296c-.438 0-.656 0-.948-.148s-.51-.37-.656-.667c-.073-.222-.073-.222-.073-.593 0-.296 0-.37.073-.593.219-.593.729-.889 1.458-.963.51 0 .729 0 1.458.37V25.63 24.37l-.219-.074c-.802-.296-1.676-.37-2.405-.222zm6.268 0c-2.114.37-3.426 2.222-3.28 4.37.073.741.292 1.407.656 1.926.51.815 1.312 1.333 2.332 1.555.437.074 1.604.074 2.114 0a3.7 3.7 0 0 0 1.895-1.037c.218-.222.583-.741.583-.741s-.51-.222-1.166-.444l-1.167-.444-.145.148a1.18 1.18 0 0 1-.656.37c-.802.222-1.604-.222-1.749-.963v-.148h2.55 2.551V28c0-.444 0-.741-.073-.889-.145-.889-.51-1.482-1.02-2.074-.51-.518-1.093-.815-1.895-.963a5.29 5.29 0 0 0-1.53 0zM78.315 28v3.778H79.7h1.385V28v-3.778H79.7h-1.385V28zm40.158-1.852c.219.074.291.148.51.296.146.148.292.296.292.519v.148h-1.239c-1.385 0-1.312 0-1.167-.296.219-.519.875-.815 1.604-.667zm-23.541.37a1.49 1.49 0 0 1 .948.815c.364.815 0 1.778-.875 2.074a2.37 2.37 0 0 1-1.02 0c-.437-.148-.874-.518-.947-.963-.073-.222-.073-.296-.073-.519 0-.296 0-.37.146-.593.291-.667 1.02-.963 1.822-.815z" fill="#000"/></svg>