<svg width="72" height="72" viewBox="0 0 72 72" fill="none" xmlns="http://www.w3.org/2000/svg">
<path d="M0 24C0 12.6863 0 7.02944 3.51472 3.51472C7.02944 0 12.6863 0 24 0H48C59.3137 0 64.9706 0 68.4853 3.51472C72 7.02944 72 12.6863 72 24V48C72 59.3137 72 64.9706 68.4853 68.4853C64.9706 72 59.3137 72 48 72H24C12.6863 72 7.02944 72 3.51472 68.4853C0 64.9706 0 59.3137 0 48V24Z" fill="#A55FFF"/>
<path fill-rule="evenodd" clip-rule="evenodd" d="M36 25C37.6568 25 39 23.6568 39 22C39 20.3432 37.6568 19 36 19C34.3432 19 33 20.3432 33 22C33 23.6568 34.3432 25 36 25ZM54 31.6032C54 30.5231 53.6733 29.5588 53.0077 28.7101C52.0881 27.5529 50.9021 27 49.4985 27L25.9018 27.09C25.3936 27.1093 24.8884 27.1061 24.3832 27.1028H24.3832C23.8779 27.0996 23.3727 27.0964 22.8645 27.1157C20.4201 27.2185 18 29.1601 18 32.3746V44.3968C18 45.4769 18.3267 46.4412 18.9923 47.2899C19.9119 48.4471 21.0978 49 22.5015 49H25.2363L46.0739 48.91H46.0981C46.6064 48.8907 47.1116 48.8939 47.6168 48.8972C48.122 48.9004 48.6272 48.9036 49.1354 48.8843C51.5798 48.7815 54 46.8399 54 43.6254V31.6032ZM46.078 34.0034C47.7643 34.0685 48.9871 35.4359 49 37.1028C49 38.5613 47.2622 40.1109 45.8849 39.9937C44.2372 39.8505 42.95 38.5223 43.0015 36.8814C43.053 35.2015 44.4046 33.9253 46.078 34.0034ZM26.1013 34.0024C27.7999 34.0677 29.1095 35.4396 28.9928 37.1512C28.8761 38.8759 27.6183 40.0257 25.9068 39.9996C24.26 39.9734 22.9375 38.5493 23.0023 36.9422C23.0801 35.2175 24.4156 33.9371 26.1142 34.0024H26.1013ZM34.7104 42.8082C35.5003 43.0691 36.342 43.0537 37.1319 42.8235V42.8541C37.611 42.716 38.0901 42.4858 38.5174 42.0868C38.9447 41.6724 39.1649 41.1506 38.8541 40.5214C38.5304 39.8768 38.0642 39.9075 37.5592 40.2298C36.5362 40.859 35.5003 40.8744 34.4643 40.2298C33.9852 39.9228 33.4803 39.8461 33.1565 40.4907C32.8198 41.1353 33.0658 41.6878 33.5191 42.1175C33.8816 42.4551 34.283 42.67 34.7104 42.8082ZM15.1507 34.1022C15.4795 33.8649 16 34.0683 16 34.4299V41.5702C16 41.9317 15.4795 42.1351 15.1507 41.8978C13.8356 40.9488 13 39.5591 13 38C13 36.4409 13.8356 35.0512 15.1507 34.1022ZM56.8493 41.8978C56.5205 42.1351 56 41.9317 56 41.5701V34.4299C56 34.0683 56.5205 33.8649 56.8493 34.1022C58.1644 35.0512 59 36.4409 59 38C59 39.5591 58.1644 40.9488 56.8493 41.8978Z" fill="white"/>
</svg>
