<svg width="72" height="72" viewBox="0 0 72 72" fill="none" xmlns="http://www.w3.org/2000/svg">
<path d="M0 24C0 12.6863 0 7.02944 3.51472 3.51472C7.02944 0 12.6863 0 24 0H48C59.3137 0 64.9706 0 68.4853 3.51472C72 7.02944 72 12.6863 72 24V48C72 59.3137 72 64.9706 68.4853 68.4853C64.9706 72 59.3137 72 48 72H24C12.6863 72 7.02944 72 3.51472 68.4853C0 64.9706 0 59.3137 0 48V24Z" fill="#FF5F37"/>
<path d="M55.2552 48.948C54.3099 47.9369 48.0624 41.8157 47.3887 41.2177C46.8564 40.7502 46.0415 40.7502 45.5743 41.2829L43.0209 40C42.4125 40.9459 41.7388 41.7505 41 42.555L42.4777 44.773C42.0104 45.3057 42.0758 46.1212 42.6082 46.5887C43.2818 47.1975 50.1377 52.6446 51.2786 53.4491C52.4194 54.2537 53.9622 54.1885 55.0379 53.1773C56.2439 52.101 56.3199 50.1548 55.2443 48.9371L55.2552 48.948Z" fill="white"/>
<path d="M29.962 45C22.2427 45 16 38.7742 16 31C16 23.2258 22.3079 17 30.038 17C37.7682 17 44 23.2908 44 31C44 38.7092 37.6921 45 29.962 45ZM29.962 19.6852C23.7192 19.6852 18.6166 24.7742 18.6166 31C18.6166 37.2258 23.7192 42.3148 29.962 42.3148C36.2047 42.3148 41.3075 37.2908 41.3075 31C41.3075 24.7092 36.2698 19.6852 29.962 19.6852Z" fill="white"/>
<path d="M37.9329 30.0561C37.9329 29.991 37.8679 29.8501 37.8028 29.8501L36.0578 29.2432C35.9928 29.2432 35.9278 29.1781 35.9278 29.1131C35.7977 28.7771 35.6568 28.4411 35.5267 28.1051C35.4617 28.04 35.4617 27.975 35.5267 27.8991L36.3288 26.2191C36.3938 26.1541 36.3288 26.0132 36.3288 25.9482C35.9277 25.4821 35.5267 25.0811 35.0497 24.6692C34.9847 24.6041 34.8438 24.6041 34.7788 24.6692L33.0989 25.4712H32.8929C32.5569 25.3412 32.2209 25.2003 31.8849 25.0702C31.8199 25.0702 31.7549 25.0052 31.7549 24.9402L31.1478 23.1951C31.1478 23.1301 31.0178 23.065 30.942 23.065C30.671 23.065 30.3349 23 29.9989 23C29.6629 23 29.3919 23 29.0559 23.065C28.9909 23.065 28.85 23.1301 28.85 23.1951L28.243 24.9402C28.243 25.0052 28.178 25.0702 28.1129 25.0702C27.7769 25.2003 27.441 25.3412 27.105 25.4712C27.04 25.5363 26.9749 25.5363 26.899 25.4712L25.2191 24.6692C25.154 24.6041 25.0131 24.6692 24.9481 24.6692C24.482 25.0702 24.0051 25.4712 23.6691 25.9482C23.604 26.0132 23.604 26.1541 23.6691 26.2191L24.4711 27.8991V28.1051C24.3411 28.4411 24.2002 28.7771 24.0701 29.1131C24.0701 29.1781 24.0051 29.2432 23.94 29.2432L22.195 29.8501C22.13 29.8501 22.065 29.9802 22.065 30.0561C22.065 30.327 22 30.663 22 30.999C22 31.335 21.9999 31.606 22.065 31.942C22.065 32.007 22.13 32.1479 22.195 32.1479L23.94 32.7549C24.0051 32.7549 24.0701 32.8199 24.0701 32.885C24.2002 33.221 24.3411 33.557 24.4711 33.893C24.5362 33.958 24.5362 34.023 24.4711 34.0989L23.6691 35.7789C23.604 35.844 23.6691 35.9849 23.6691 36.0499C24.0701 36.516 24.4712 36.917 24.9481 37.3289C25.0131 37.3939 25.154 37.3939 25.2191 37.3289L26.899 36.5268C26.964 36.4618 27.0291 36.5268 27.105 36.5268C27.441 36.6569 27.7769 36.7978 28.1129 36.9278C28.178 36.9278 28.243 36.9929 28.243 37.0579L28.85 38.803C28.85 38.868 28.98 38.933 29.0559 38.933C29.3269 38.933 29.6629 38.9981 29.9989 38.9981C30.3349 38.9981 30.606 38.9981 30.942 38.933C31.007 38.933 31.1478 38.868 31.1478 38.803L31.7549 37.0579C31.7549 36.9929 31.8199 36.9278 31.8849 36.9278C32.2209 36.7978 32.5569 36.6569 32.8929 36.5268C32.9579 36.4618 33.023 36.4618 33.0989 36.5268L34.7788 37.3289C34.8438 37.3939 34.9847 37.3289 35.0497 37.3289C35.5158 36.9278 35.9169 36.5268 36.3288 36.0499C36.3938 35.9849 36.3938 35.844 36.3288 35.7789L35.5267 34.0989V33.893C35.6568 33.557 35.7977 33.221 35.9278 32.885C35.9278 32.8199 35.9928 32.7549 36.0578 32.7549L37.8028 32.1479C37.8679 32.1479 37.9329 32.0179 37.9329 31.942C37.9329 31.671 37.9979 31.335 37.9979 30.999C37.9979 30.663 37.9329 30.327 37.9329 30.0561ZM29.8905 34.8793C27.6794 34.8793 25.9343 33.1343 25.9343 30.9231C25.9343 28.712 27.6794 26.967 29.8905 26.967C32.1016 26.967 33.8467 28.712 33.8467 30.9231C33.8467 33.1343 32.1016 34.8793 29.8905 34.8793Z" fill="white"/>
</svg>
