<svg xmlns="http://www.w3.org/2000/svg" xmlns:xlink="http://www.w3.org/1999/xlink" viewBox="0 0 700 350" xmlns:v="https://vecta.io/nano"><style><![CDATA[.AC{fill:#16192c}.AD{fill:#3d62ff}.AE{fill:#dae0fe}]]></style><defs><linearGradient id="A" x1="302.709" y1="178.833" x2="598.399" y2="141.929" gradientUnits="userSpaceOnUse"><stop offset="0" stop-color="#afb6e5"/><stop offset=".14" stop-color="#b5bce8"/><stop offset=".35" stop-color="#c7cdf0"/><stop offset=".58" stop-color="#e5e9ff"/><stop offset=".86" stop-color="#f4f6ff"/><stop offset="1" stop-color="#fff"/></linearGradient><linearGradient id="B" x1="312.638" y1="258.439" x2="608.335" y2="221.542" xlink:href="#A"/><linearGradient id="C" x1="301.542" y1="169.464" x2="597.232" y2="132.56" xlink:href="#A"/><linearGradient id="D" x1="304.565" y1="193.733" x2="600.255" y2="156.83" xlink:href="#A"/><linearGradient id="E" x1="301.468" y1="168.922" x2="597.158" y2="132.019" xlink:href="#A"/><linearGradient id="F" x1="309.084" y1="229.947" x2="604.774" y2="193.043" xlink:href="#A"/><linearGradient id="G" x1="305.829" y1="203.841" x2="601.519" y2="166.937" xlink:href="#A"/><linearGradient id="H" x1="311.999" y1="253.237" x2="607.682" y2="216.341" xlink:href="#A"/><linearGradient id="I" x1="311.613" y1="250.19" x2="607.303" y2="213.286" xlink:href="#A"/><linearGradient id="J" x1="301.396" y1="168.289" x2="597.086" y2="131.385" xlink:href="#A"/><linearGradient id="K" x1="307.239" y1="215.152" x2="602.929" y2="178.248" xlink:href="#A"/><linearGradient id="L" x1="301.42" y1="168.5" x2="597.111" y2="131.61" xlink:href="#A"/><linearGradient id="M" x1="307.363" y1="216.158" x2="603.06" y2="179.261" xlink:href="#A"/><linearGradient id="N" x1="302.478" y1="177.01" x2="598.167" y2="140.106" xlink:href="#A"/><linearGradient id="O" x1="302.143" y1="174.307" x2="597.833" y2="137.403" xlink:href="#A"/><linearGradient id="P" x1="302.885" y1="180.226" x2="598.575" y2="143.322" xlink:href="#A"/><linearGradient id="Q" x1="301.033" y1="165.41" x2="596.723" y2="128.506" xlink:href="#A"/><linearGradient id="R" x1="301.531" y1="169.387" x2="597.221" y2="132.483" xlink:href="#A"/><linearGradient id="S" x1="301.866" y1="172.09" x2="597.556" y2="135.186" xlink:href="#A"/><linearGradient id="T" x1="303.232" y1="183.049" x2="598.922" y2="146.145" xlink:href="#A"/><linearGradient id="U" x1="303.955" y1="188.87" x2="599.653" y2="151.973" xlink:href="#A"/><linearGradient id="V" x1="305.165" y1="198.548" x2="600.855" y2="161.644" xlink:href="#A"/><linearGradient id="W" x1="303.672" y1="186.511" x2="599.362" y2="149.608" xlink:href="#A"/><linearGradient id="X" x1="305.973" y1="204.988" x2="579.097" y2="170.903" xlink:href="#A"/><linearGradient id="Y" x1="300.144" y1="158.287" x2="595.842" y2="121.39" xlink:href="#A"/><linearGradient id="Z" x1="304.332" y1="191.868" x2="600.029" y2="154.971" xlink:href="#A"/><linearGradient id="a" x1="301.267" y1="167.304" x2="596.964" y2="130.407" xlink:href="#A"/><linearGradient id="b" x1="300.491" y1="161.11" x2="596.189" y2="124.213" xlink:href="#A"/><linearGradient id="c" x1="300.664" y1="162.433" x2="596.354" y2="125.529" xlink:href="#A"/><linearGradient id="d" x1="300.321" y1="159.695" x2="596.011" y2="122.791" xlink:href="#A"/><linearGradient id="e" x1="313.353" y1="264.091" x2="609.043" y2="227.187" xlink:href="#A"/><linearGradient id="f" x1="315.287" y1="279.604" x2="610.977" y2="242.7" xlink:href="#A"/><linearGradient id="g" x1="314.996" y1="277.238" x2="610.686" y2="240.335" xlink:href="#A"/><linearGradient id="h" x1="310.048" y1="237.654" x2="605.745" y2="200.757" xlink:href="#A"/><linearGradient id="i" x1="310.537" y1="241.567" x2="606.227" y2="204.664" xlink:href="#A"/><linearGradient id="j" x1="312.282" y1="255.581" x2="607.972" y2="218.678" xlink:href="#A"/><linearGradient id="k" x1="311.413" y1="248.585" x2="607.111" y2="211.688" xlink:href="#A"/><linearGradient id="l" x1="309.167" y1="230.538" x2="604.857" y2="193.634" xlink:href="#A"/><linearGradient id="m" x1="310.98" y1="245.101" x2="606.67" y2="208.197" xlink:href="#A"/><linearGradient id="n" x1="306.504" y1="209.211" x2="602.194" y2="172.307" xlink:href="#A"/><linearGradient id="o" x1="307.514" y1="217.312" x2="603.204" y2="180.409" xlink:href="#A"/><linearGradient id="p" x1="309.548" y1="233.635" x2="605.238" y2="196.731" xlink:href="#A"/><linearGradient id="q" x1="308.47" y1="224.984" x2="604.16" y2="188.081" xlink:href="#A"/><path id="r" d="M527.58 141.56l-2.05-.36 2.05.36z"/><path id="s" d="M548.27 157.39c-4.9-8.58-12.2-14.01-20.69-15.82 8.49 1.81 15.78 7.24 20.68 15.82z"/><path id="t" d="m469.87,184.71c1.51-3.73,3.26-7.35,5.24-10.82-1.98,3.47-3.73,7.09-5.24,10.82-1.04,2.56-1.96,5.18-2.76,7.82.8-2.64,1.72-5.26,2.76-7.82Z"/><path id="u" d="M464.79 229.73s0-.03-.01-.05l.63 2.69-.62-2.64z"/><path id="v" d="M521.18 140.89c-.16 0-.31-.01-.47 0h.47 0z"/><path id="w" d="M550.96 133.79s.03.03.05.04l1.38 1.36-2.17-2.05.75.64z"/><path id="x" d="M562.32 150.24l.41 1c0 .02.02.05.03.07l-.52-1.24c.02.06.05.11.08.17z"/><path id="y" d="M566.31 162.86l.48 2.46.12.61.47 3.14.1.89c-.33-2.8-.8-5.52-1.4-8.16l.24 1.04z"/><path id="z" d="M563.82 154.05l.37 1.07-.77-2.17.4 1.1z"/><path id="AA" d="M567.73 172.3l.04.54h0l-.11-1.06.06.52z"/><path id="AB" d="M543.79 128.54l-1.99-1.08.11.06 1.88 1.02z"/><path id="AC" d="M548.56 131.75l.52.42-1.68-1.28 1.15.86z"/><path id="AD" d="M544.48 128.94l1.19.76-1.67-1.04.48.28z"/><path id="AE" d="M555.87 229.85l-.69 1.36-2.01 3.71-.35.63-2.48 4.1a112.46 112.46 0 0 0 6.16-11.03h-.03l-.6 1.23z"/><path id="AF" d="M564.73 206.25l-.06.22.31-1.23-.15.62-.11.39z"/><path id="AG" d="M563.31 211.28l.77-2.63-.58 2.01-.19.61z"/><path id="AH" d="M557.31 226.86l-.85 1.75h.03l3.32-7.45-1.89 4.38-.62 1.32z"/><path id="AI" d="M567.82 173.52l.14 2.07.06 1.33.06 2.03.01 1.37-.31-7.47h0l.05.67z"/><path id="AJ" d="M567.92 185.97l-.07 1.23.21-4.79-.03 1.34-.11 2.23z"/><path id="AK" d="M567.12 194.2l-.16 1.02.64-5.08-.05.55-.43 3.52z"/></defs><path d="M0 0h700v350H0z" fill="#7ffbd3"/><path d="M337.78 0H700v350H337.78z" fill="#7148e9"/><path d="M120.33 123.51c4.88-1.26 9.86-.62 14.78-.63h196.91c2.03 0 4.14-.47 6.05.71l-.29 31.59-.23 129.57.1-.1-83.46-.33c5.33-7.94 12.59-14.14 19.24-20.86 3.5-3.54 3.85-5.8.05-9.43l-39.82-39.07c-6.5-6.37-6.52-6.21 2.15-9.9l40.93-17.7c-1.35-.87-1.95-1.41-2.66-1.69l-126.09-50.11c-9.31-3.75-19.26-6.14-27.64-12.05z" fill="#214cfc"/><path d="M514.97 284.51H337.56V123.59h185.7l-8.29 160.92z" fill="#fff"/><g class="AD"><path d="M507.55 143.57l-1.54.65 1.54-.65zm-31.24 108.44l1.19 1.08-1.19-1.08zm-8.92-13.61s.01.03.02.04l.54 1.31c.01.03.03.06.05.1l-.6-1.45zm1.01 2.32l.66 1.38-.66-1.38zm54.96-99.75l-2.02-.08 2.02.08zm-58.57 88.76l.62 2.64-.62-2.64zm60.71-88.54l-2.04-.22 2.04.22zm-24.94 5.79l-1.47.91 1.47-.91zm.93-.52l1.41-.78-1.41.78z"/><use xlink:href="#r"/><path d="M466.48 235.92l.54 1.55-.54-1.55zm38.74-91.37l-1.47.71 1.47-.71zm-39.56 88.68l.46 1.61c.01.05.03.09.05.13l-.51-1.74zm10.21 18.35l-1.09-1.13 1.09 1.13zm36.3-109.51l-1.71.49 1.71-.49zm9.01-1.18c-.16 0-.31-.01-.47 0l-1.5.07 1.98-.06zm-2.21.07l-1.92.18 1.92-.18zm-9.1 1.79l-1.62.57 1.62-.57zm4.59-1.2l-1.78.4 1.78-.4zm-42.5 105.38l.9 1.23-.9-1.23zm44.77-105.75l-1.86.3 1.86-.3zm-43.4 107.57l.99 1.18-.99-1.18z"/></g><path d="M529.36 263.52l-.67.53-1.85 1.41-.65.47-2.43 1.69-3.22 2.02-1.99 1.13-5.06 2.48-.56.25-.75.31-2.26.87c-2.69.97-5.38 1.7-8.06 2.2l-.69.14-.23.03-.77.11c-2.86.43-5.71.58-8.52.44l-1.39-.08a38.56 38.56 0 0 1-4.16-.59l-1.5-.3-3.18-.9-2.37-.86h0l17.29 7.01 2.37.86.69.22 1.85.52.63.16 2.43.49.42.06a36.63 36.63 0 0 0 2.07.27 18.5 18.5 0 0 0 .74.07l2.01.12.52.02 2.5-.02.62-.03 1.97-.15.75-.08a45.76 45.76 0 0 0 2.31-.32l.24-.04 2.54-.52.71-.17a46.84 46.84 0 0 0 1.95-.52l.7-.2 2.54-.83.3-.11 2.26-.88.75-.32 1.99-.89a15.74 15.74 0 0 0 .59-.28 65.22 65.22 0 0 0 2.5-1.27l.54-.3 1.99-1.14.74-.44 2.11-1.34.37-.24a71.56 71.56 0 0 0 2.43-1.7l.64-.48a81.58 81.58 0 0 0 1.84-1.41l.68-.54.51-.42-17.29-7.01-.51.42zm14.65-134.86l1.67 1.04.85.55.37.27.5.38 1.68 1.28 1.14.98 2.17 2.05.31.31.71.76.87.98.9 1.07h0l1.02 1.31.94 1.3.7 1.02.53.8 1.13 1.88c0 .01.02.03.03.04l.27.46 1.32 2.49.32.69s0 .02.01.03l.79 1.72.52 1.24.65 1.64.77 2.17.22.64.36 1.14v.02l.51 1.77v.02l.31 1.14.46 1.94v.03c.6 2.63 1.07 5.36 1.4 8.16v.02l.19 1.8.11 1.06 17.28 7-.04-.54-.25-2.31-.1-.91-.47-3.15-.11-.61-.48-2.47-.24-1.06-.47-1.94-.32-1.16-.51-1.77-.37-1.16-.58-1.71-.4-1.11-.68-1.71-.41-1-.87-1.89-.34-.72-1.32-2.5-.29-.49-.99-1.66-.15-.22-.53-.8-1.01-1.47-.63-.85-1.02-1.31-.69-.83-1.09-1.23-.71-.76-.33-.35-1.36-1.31c-.02-.01-.03-.03-.04-.04l-1.88-1.62-.52-.42-1.66-1.24-.38-.27a1.43 1.43 0 0 1-.15-.11l-1.89-1.2-.48-.28-2.09-1.13-.12-.06-1.67-.77-.88-.37-17.29-7.01 2.54 1.14 1.99 1.08.21.11z" class="AC"/><g fill="#1bf5ae"><path d="M568.09 180.32h0l-.02 2.07v.02l-.21 4.79-.25 2.87v.06l-.64 5.08v.02l-.4 2.52-.24 1.32-.26 1.32-.52 2.5-.55 2.34-.31 1.23-.59 2.18-.77 2.63-.25.83v.02l-1.04 3.15-.48 1.39-.54 1.45-1.13 2.94-.03.08-3.32 7.46 17.27 7 .85-1.75.62-1.32 1.89-4.38v-.02c0-.02.02-.04.02-.07l1.67-4.41.48-1.39 1.05-3.18.27-.81.18-.63 1.23-4.41.1-.39 1.08-4.75.12-.51.28-1.51.25-1.34.4-2.52.16-1.04.43-3.52.05-.6.23-2.56a3.23 3.23 0 0 1 .02-.32l.07-1.22.11-2.24.03-1.35.02-2.08-.01-1.36-.06-2.04-.06-1.33-.14-2.07-.05-.67-17.28-7 .31 7.47z"/><path d="M556.49 228.62c-1.89 3.86-3.95 7.54-6.16 11.03-.22.35-.45.69-.68 1.04a107.19 107.19 0 0 1-2.87 4.21c-.12.17-.23.34-.35.5l-.34.45s0 .01-.01.02l-1.75 2.32c-.24.31-.48.61-.73.91l-1.49 1.82-.65.77c-.29.34-.59.67-.89 1.01s-.59.69-.9 1.02h0l-.39.45-2.21 2.33c-2.21 2.26-4.5 4.35-6.84 6.28-.11.09-.22.19-.34.28l17.29 7.01 1.85-1.54c.03-.02.05-.05.08-.07a105.66 105.66 0 0 0 2.25-2.03l.66-.62a70.97 70.97 0 0 0 1.76-1.72l.58-.58 2.21-2.33c.14-.15.27-.3.4-.45.3-.33.6-.68.9-1.02l.89-1.01.64-.75c.19-.22.38-.44.56-.67l.94-1.18.74-.92c.6-.76 1.18-1.54 1.76-2.33.11-.16.23-.31.35-.46a99.98 99.98 0 0 0 2.03-2.9l.57-.86 1.07-1.62c.08-.12.15-.25.23-.38a127.54 127.54 0 0 0 2.49-4.1l.35-.63a100.62 100.62 0 0 0 2.01-3.71l.33-.6c.13-.25.24-.51.37-.76.21-.41.4-.83.6-1.24l-17.27-7z"/></g><use xlink:href="#s" class="AD"/><use xlink:href="#s" fill="url(#A)"/><path d="M467.94 239.75l-.54-1.31.54 1.31z" class="AD"/><path d="M467.94 239.75l-.54-1.31.54 1.31z" fill="url(#B)"/><use xlink:href="#r" class="AD"/><use xlink:href="#r" fill="url(#C)"/><path d="M475.11 173.89l1.88-3.12-1.88 3.12z" class="AD"/><path d="M475.11 173.89l1.88-3.12-1.88 3.12z" fill="url(#D)"/><path d="M525.5 141.19h0l-2.04-.22h0l2.04.22z" class="AD"/><path d="M525.5 141.19h0l-2.04-.22h0l2.04.22z" fill="url(#E)"/><path d="M553.59 198.61l-.31 1.67.31-1.67z" class="AD"/><path d="M553.59 198.61l-.31 1.67.31-1.67z" fill="url(#F)"/><use xlink:href="#t" class="AD"/><use xlink:href="#t" fill="url(#G)"/><path d="M465.65 233.22l.46 1.62-.46-1.61z" class="AD"/><path d="M465.65 233.22l.46 1.62-.46-1.61z" fill="url(#H)"/><use xlink:href="#u" class="AD"/><use xlink:href="#u" fill="url(#I)"/><use xlink:href="#v" class="AD"/><use xlink:href="#v" fill="url(#J)"/><path d="M466.16 195.88l.32-1.16-.32 1.16z" class="AD"/><path d="M466.16 195.88l.32-1.16-.32 1.16z" fill="url(#K)"/><path d="M523.36 140.97h0l-2.02-.08h0l2.02.08z" class="AD"/><path d="M523.36 140.97h0l-2.02-.08h0l2.02.08z" fill="url(#L)"/><path d="M554.76 188.1l.03-5.65-.03 5.65z" class="AD"/><path d="M554.76 188.1l.03-5.65-.03 5.65z" fill="url(#M)"/><path d="M559.8 145.14l-.27-.46.27.46z" class="AC"/><path d="M559.8 145.14l-.27-.46.27.46z" fill="url(#N)"/><path d="M558.37 142.75l-.53-.8.53.8z" class="AC"/><path d="M558.37 142.75l-.53-.8.53.8z" fill="url(#O)"/><path d="M561.44 148.32l-.32-.69.32.69z" class="AC"/><path d="M561.44 148.32l-.32-.69.32.69z" fill="url(#P)"/><use xlink:href="#w" class="AC"/><use xlink:href="#w" fill="url(#Q)"/><path d="M554.49 137.49l.69.83-.9-1.07.22.24z" class="AC"/><path d="M554.49 137.49l.69.83-.9-1.07.22.24z" fill="url(#R)"/><path d="M556.83 140.48l.31.45-.94-1.3.63.85z" class="AC"/><path d="M556.83 140.48l.31.45-.94-1.3.63.85z" fill="url(#S)"/><use xlink:href="#x" class="AC"/><use xlink:href="#x" fill="url(#T)"/><path d="M564.77 156.91l-.36-1.14.36 1.14z" class="AC"/><path d="M564.77 156.91l-.36-1.14.36 1.14z" fill="url(#U)"/><use xlink:href="#y" class="AC"/><use xlink:href="#y" fill="url(#V)"/><use xlink:href="#z" class="AC"/><use xlink:href="#z" fill="url(#W)"/><use xlink:href="#AA" class="AC"/><use xlink:href="#AA" fill="url(#X)"/><use xlink:href="#AB" class="AC"/><use xlink:href="#AB" fill="url(#Y)"/><path d="M565.6 159.85l-.31-1.14.31 1.14z" class="AC"/><path d="M565.6 159.85l-.31-1.14.31 1.14z" fill="url(#Z)"/><path d="M552.69 135.5l.71.76-.71-.76z" class="AC"/><path d="M552.69 135.5l.71.76-.71-.76z" fill="url(#a)"/><path d="M546.9 130.51l-.37-.27.37.27z" class="AC"/><path d="M546.9 130.51l-.37-.27.37.27z" fill="url(#b)"/><use xlink:href="#AC" class="AC"/><use xlink:href="#AC" fill="url(#c)"/><use xlink:href="#AD" class="AC"/><use xlink:href="#AD" fill="url(#d)"/><use xlink:href="#AE"/><use xlink:href="#AE" fill="url(#e)"/><path d="M541.45 251.71l.65-.77-.02.02-.63.75z"/><path d="M541.45 251.71l.65-.77-.02.02-.63.75z" fill="url(#f)"/><path d="M544.32 248.21l-.72.91.72-.91z"/><path d="M544.32 248.21l-.72.91.72-.91z" fill="url(#g)"/><use xlink:href="#AF" class="AE"/><use xlink:href="#AF" fill="url(#h)"/><use xlink:href="#AG" class="AE"/><use xlink:href="#AG" fill="url(#i)"/><use xlink:href="#AH" class="AE"/><use xlink:href="#AH" fill="url(#j)"/><path d="M561.52 216.68l-.54 1.45.54-1.45z" class="AE"/><path d="M561.52 216.68l-.54 1.45.54-1.45z" fill="url(#k)"/><path d="M566.55 197.77l-.24 1.31.24-1.31z" class="AE"/><path d="M566.55 197.77l-.24 1.31.24-1.31z" fill="url(#l)"/><path d="M563.05 212.13l-1.04 3.15 1.04-3.15z" class="AE"/><path d="M563.05 212.13l-1.04 3.15 1.04-3.15z" fill="url(#m)"/><use xlink:href="#AI" class="AE"/><use xlink:href="#AI" fill="url(#n)"/><use xlink:href="#AJ" class="AE"/><use xlink:href="#AJ" fill="url(#o)"/><path d="M565.52 202.9l.52-2.5-.14.71-.39 1.79z" class="AE"/><path d="M565.52 202.9l.52-2.5-.14.71-.39 1.79z" fill="url(#p)"/><use xlink:href="#AK" class="AE"/><use xlink:href="#AK" fill="url(#q)"/><path d="M467.99 239.85h0l.41.87.66 1.38.43.81.74 1.33.45.74.81 1.28.46.66.9 1.23.46.58.99 1.18h0l.46.51 1.09 1.13.44.43 1.19 1.08.41.35 1.3 1.03.37.28 1.43.97.32.21 1.57.9.25.14 1.73.84c.05.02.1.05.15.07l1.94.77c-9.65-4.36-17.04-14.02-19.98-28.09-2.97-14.27-.81-30.37 5.09-44.94 6.04-14.9 15.99-28.2 28.38-36.3 11.63-7.61 23.31-9.25 33.02-5.82-1.9-.86-3.88-1.51-5.94-1.95h0c-.67-.14-1.36-.27-2.05-.36h-.04 0a27.07 27.07 0 0 0-2.04-.22h0-.09 0c-.67-.05-1.34-.07-2.02-.08h0-.16 0c-.65 0-1.31.02-1.98.06-.08 0-.15 0-.23.01-.64.04-1.28.11-1.92.18l-.32.03h0c-.62.08-1.23.18-1.86.3a5.85 5.85 0 0 0-.41.07 56.86 56.86 0 0 0-1.78.4c-.17.04-.34.07-.5.12h0a36.75 36.75 0 0 0-1.71.5l-.6.17c-.54.17-1.08.37-1.62.57h-.03l-.67.24a33.7 33.7 0 0 0-1.54.65c-.01 0-.02.01-.04.02-.25.11-.5.2-.75.32-.49.22-.98.47-1.47.71-.02 0-.04.02-.06.03l-.8.39c-.47.24-.94.51-1.41.78-.04.02-.08.05-.12.07l-.8.44a58.59 58.59 0 0 0-1.47.91c-.14.09-.28.17-.42.26s-.29.17-.43.27c-8.34 5.46-15.58 13.28-21.26 22.36l-1.88 3.12c-1.98 3.47-3.73 7.09-5.24 10.82-1.04 2.56-1.96 5.18-2.76 7.82l-.63 2.19-.32 1.16c-2.96 11.35-3.62 23.08-1.39 33.78v.03c0 .02 0 .03.01.05.19.9.39 1.78.62 2.64l.24.85a36.44 36.44 0 0 0 .51 1.75h0c.1.32.21.63.32.94h0l.54 1.55h0c.12.32.25.62.37.93h0a31.42 31.42 0 0 0 .6 1.45z"/><path d="M527.59 141.57c2.05.44 4.04 1.09 5.94 1.95-9.71-3.44-21.39-1.79-33.02 5.82-12.39 8.1-22.34 21.4-28.38 36.3-5.91 14.57-8.07 30.68-5.09 44.94 2.94 14.07 10.33 23.73 19.98 28.09a29.34 29.34 0 0 0 5.43 1.35c8.49 1.29 18.82.6 28.35-5.63 3.87-2.53 6.73-7.11 10.08-10.55 7.37-7.56 13.37-17.05 17.53-27.3a90.12 90.12 0 0 0 4.87-16.26l.31-1.67c.62-3.51 1.02-7.02 1.17-10.5a76.12 76.12 0 0 0 .03-5.65c-.13-3.69-.55-7.33-1.28-10.84-.94-4.51-2.34-8.56-4.12-12.14a51.25 51.25 0 0 0-1.11-2.09c-4.9-8.58-12.19-14-20.68-15.82z" fill="#7ffbd3"/><path d="M481.4 275.8l.69.22 1.85.52.63.16 1.5.31.93.19.42.06 2.07.27.73.07 1.4.08.62.04.52.02 2.5-.02.62-.03 1.97-.15.74-.08 1.54-.22.78-.11.23-.03.69-.14 1.86-.38.71-.17 1.95-.52.7-.2 2.54-.83.27-.1 2.28-.89.75-.31.57-.25 1.42-.64.6-.28 2.5-1.27.54-.3 2-1.14.74-.44 2.11-1.33.37-.24 2.43-1.7.64-.47 1.86-1.42.67-.53.85-.71 1.52-1.26c.03-.02.05-.05.08-.07l2.24-2.03.66-.63 1.76-1.72.57-.57 2.22-2.34.39-.44 1.8-2.05.63-.75.02-.02 1.49-1.83.72-.91 1.77-2.34.34-.45.35-.5 1.68-2.4.57-.86.62-.95.68-1.05 2.48-4.1.35-.63 2.01-3.71.69-1.36.6-1.24.85-1.75.62-1.32 1.89-4.38 1.17-3.03.54-1.45.49-1.41 1.04-3.15.26-.84.19-.61.58-2.01.59-2.18.06-.22.11-.39.15-.62.55-2.34.39-1.79.14-.71.26-1.32.24-1.31.41-2.54.16-1.02.43-3.52.05-.55.25-2.94.07-1.23.11-2.23.03-1.34.02-2.09-.01-1.37-.06-2.03-.06-1.33-.14-2.07-.05-.67h0 0l-.04-.55-.06-.52-.19-1.81-.1-.89-.47-3.14-.12-.61-.48-2.46-.24-1.04-.47-1.97-.31-1.14-.52-1.8-.36-1.14-.22-.64-.37-1.07-.4-1.1-.66-1.65c0-.02-.02-.05-.03-.07l-.41-1c-.02-.06-.05-.11-.08-.17l-.8-1.75-.32-.69-1.32-2.5-.27-.46-1.16-1.93-.53-.8-.7-1.02-.31-.45-.63-.85-1.03-1.32-.69-.83-.22-.24-.88-.99-.71-.76-.31-.31-1.38-1.36c-.02-.01-.03-.03-.05-.04l-.75-.64-1.14-.98-.52-.42-1.15-.86-.51-.38-.37-.27-.86-.55-1.19-.76-.48-.28-.21-.11-1.88-1.02-.11-.06-2.55-1.14c-27.99-11.34-64.16 12.73-80.79 53.76-16.63 41.04-7.42 83.51 20.57 94.85.78.32 1.57.6 2.37.86zm-14.37-38.33c-.19-.51-.36-1.03-.54-1.55l-.32-.94c-.01-.05-.03-.09-.05-.13-.17-.53-.31-1.08-.46-1.62-.08-.28-.17-.56-.24-.85a52.94 52.94 0 0 1-.63-2.69v-.03c-2.23-10.7-1.57-22.43 1.39-33.78.1-.39.22-.77.32-1.16l.63-2.19c.8-2.64 1.72-5.26 2.76-7.82 1.51-3.73 3.26-7.35 5.24-10.82.6-1.06 1.23-2.1 1.88-3.12 5.68-9.08 12.92-16.9 21.26-22.36.14-.09.29-.17.43-.27l1.89-1.17c.27-.16.53-.29.8-.44l1.54-.85c.27-.14.53-.26.8-.39l1.53-.74.75-.32c.53-.23 1.05-.46 1.58-.66.22-.09.45-.16.67-.24.55-.2 1.1-.41 1.65-.58.19-.06.39-.11.58-.17a41.11 41.11 0 0 1 1.72-.5l.49-.12a30.43 30.43 0 0 1 1.79-.4 5.85 5.85 0 0 1 .41-.07 29.97 29.97 0 0 1 1.86-.3l.32-.03c.65-.08 1.29-.14 1.93-.18.08 0 .15 0 .23-.01l1.51-.07h.47.16a27.06 27.06 0 0 1 2.02.08h.09a27.07 27.07 0 0 1 2.04.22h.04a35.12 35.12 0 0 1 2.05.36h0c8.49 1.81 15.78 7.24 20.69 15.82a34.52 34.52 0 0 1 1.11 2.09c1.78 3.57 3.18 7.63 4.12 12.14.73 3.52 1.15 7.15 1.28 10.84a66.58 66.58 0 0 1-.03 5.65c-.15 3.48-.55 7-1.17 10.5l-.31 1.67c-1.09 5.51-2.73 10.98-4.87 16.26-4.15 10.25-10.16 19.74-17.53 27.3-3.35 3.44-6.98 6.48-10.85 9.01-9.53 6.24-19.09 8.46-27.58 7.17-1.87-.28-3.68-.73-5.43-1.35-.66-.23-1.31-.49-1.95-.77-.05-.02-.1-.05-.15-.07-.59-.26-1.17-.54-1.74-.84a3.14 3.14 0 0 1-.25-.14 30.51 30.51 0 0 1-1.57-.91l-.32-.21a32.7 32.7 0 0 1-1.43-.97c-.13-.09-.25-.19-.37-.28-.44-.33-.88-.67-1.31-1.03l-.41-.35c-.41-.35-.8-.71-1.2-1.09a17.64 17.64 0 0 1-.44-.43 39.4 39.4 0 0 1-1.09-1.14l-.46-.51c-.34-.39-.67-.78-.99-1.19-.16-.19-.31-.39-.46-.58-.31-.4-.61-.81-.9-1.23l-.46-.66a55.76 55.76 0 0 1-.82-1.28c-.15-.25-.31-.49-.45-.74-.25-.43-.5-.88-.74-1.33l-.43-.81a44.86 44.86 0 0 1-.67-1.39l-.41-.87c-.01-.03-.03-.06-.05-.1-.19-.43-.36-.87-.54-1.31 0-.01-.01-.03-.02-.04l-.37-.93z" fill="#05ffae"/><path d="M337.78 284.75h-155.4l-65.96-162.02h221.36v162.02z" fill="#7148e9"/><path d="M278.32 259.86l-50.26-50.26 48.66-22.24-160.3-64.63 65.56 161.4 25.25-46.82 46.82 46.82 24.27-24.27z" class="AC"/></svg>