<?xml version="1.0" encoding="UTF-8"?>
<svg id="Layer_2" data-name="Layer 2" xmlns="http://www.w3.org/2000/svg" xmlns:xlink="http://www.w3.org/1999/xlink" viewBox="0 0 703.8 351.9">
  <defs>
    <style>
      .cls-1, .cls-2, .cls-3, .cls-4, .cls-5, .cls-6, .cls-7, .cls-8, .cls-9 {
        stroke-width: 0px;
      }

      .cls-1, .cls-10 {
        fill: none;
      }

      .cls-2 {
        fill: url(#linear-gradient);
      }

      .cls-10 {
        stroke: #fff;
        stroke-miterlimit: 10;
        stroke-width: .61px;
      }

      .cls-3 {
        fill: #759dff;
      }

      .cls-4 {
        fill: #79f29e;
      }

      .cls-5 {
        fill: #2374e8;
      }

      .cls-6 {
        fill: #2046f9;
      }

      .cls-7 {
        fill: #dde4ff;
      }

      .cls-8 {
        fill: #e2edfe;
      }

      .cls-9 {
        fill: #ffc81a;
      }
    </style>
    <linearGradient id="linear-gradient" x1="791.59" y1="-109.45" x2="76.13" y2="664.77" gradientUnits="userSpaceOnUse">
      <stop offset="0" stop-color="#4573fe"/>
      <stop offset=".27" stop-color="#4270fb"/>
      <stop offset=".46" stop-color="#3c66f4"/>
      <stop offset=".63" stop-color="#3157e9"/>
      <stop offset=".78" stop-color="#2141d8"/>
      <stop offset=".92" stop-color="#0d25c3"/>
      <stop offset="1" stop-color="#0012b5"/>
    </linearGradient>
  </defs>
  <g id="Layer_1-2" data-name="Layer 1">
    <g>
      <g>
        <g>
          <rect class="cls-1" width="351.9" height="351.9"/>
          <rect class="cls-4" width="175.95" height="351.9"/>
          <rect class="cls-3" x="175.95" width="175.95" height="351.9"/>
          <circle class="cls-6" cx="263.92" cy="175.95" r="87.97"/>
          <g>
            <circle class="cls-7" cx="95.31" cy="307.91" r="7.33"/>
            <circle class="cls-7" cx="197.94" cy="307.91" r="7.33"/>
            <circle class="cls-7" cx="146.62" cy="307.91" r="7.33"/>
            <circle class="cls-7" cx="95.31" cy="263.92" r="7.33"/>
            <circle class="cls-7" cx="197.94" cy="263.92" r="7.33"/>
            <circle class="cls-7" cx="146.62" cy="263.92" r="7.33"/>
            <circle class="cls-7" cx="95.31" cy="219.94" r="7.33"/>
            <circle class="cls-7" cx="197.94" cy="219.94" r="7.33"/>
            <circle class="cls-7" cx="146.62" cy="219.94" r="7.33"/>
            <circle class="cls-7" cx="95.31" cy="175.95" r="7.33"/>
            <circle class="cls-7" cx="197.94" cy="175.95" r="7.33"/>
            <circle class="cls-7" cx="146.62" cy="175.95" r="7.33"/>
            <circle class="cls-7" cx="95.31" cy="131.96" r="7.33"/>
            <circle class="cls-7" cx="197.94" cy="131.96" r="7.33"/>
            <circle class="cls-7" cx="146.62" cy="131.96" r="7.33"/>
            <circle class="cls-7" cx="95.31" cy="87.97" r="7.33"/>
            <circle class="cls-7" cx="197.94" cy="87.97" r="7.33"/>
            <circle class="cls-7" cx="146.62" cy="87.97" r="7.33"/>
            <circle class="cls-7" cx="95.31" cy="43.99" r="7.33"/>
            <circle class="cls-7" cx="197.94" cy="43.99" r="7.33"/>
            <circle class="cls-7" cx="146.62" cy="43.99" r="7.33"/>
          </g>
        </g>
        <g>
          <rect class="cls-1" x="351.9" width="351.9" height="351.9"/>
          <rect class="cls-2" x="351.9" width="351.9" height="351.9"/>
          <polygon class="cls-9" points="615.82 351.9 351.9 351.9 351.9 87.97 498.52 87.97 615.82 205.27 615.82 351.9"/>
          <polygon class="cls-8" points="615.82 205.27 498.52 205.27 498.52 87.97 615.82 205.27"/>
        </g>
        <circle class="cls-10" cx="263.42" cy="176.6" r="69.85"/>
      </g>
      <path class="cls-5" d="m426.2,204.69h-.62l-31.73,21.27v-27.6l32.26-21.97h32.17v126.83h-32.08v-98.53Z"/>
    </g>
  </g>
</svg>