<?xml version="1.0" encoding="UTF-8"?>
<svg id="Layer_2" data-name="Layer 2" xmlns="http://www.w3.org/2000/svg" viewBox="0 0 700 350">
  <defs>
    <style>
      .cls-1, .cls-2 {
        fill: none;
      }

      .cls-1, .cls-3, .cls-4, .cls-5, .cls-6, .cls-7, .cls-8, .cls-9, .cls-10, .cls-11, .cls-12 {
        stroke-width: 0px;
      }

      .cls-2 {
        stroke: #fff;
        stroke-linecap: round;
        stroke-linejoin: round;
        stroke-width: .85px;
      }

      .cls-3 {
        fill: #759dff;
      }

      .cls-4 {
        fill: #4785ff;
      }

      .cls-5 {
        fill: #597bff;
      }

      .cls-6 {
        fill: #0e0643;
      }

      .cls-7 {
        fill: #406cf0;
      }

      .cls-8 {
        fill: #23272a;
      }

      .cls-9 {
        fill: #231f20;
      }

      .cls-10 {
        fill: #fff;
      }

      .cls-11 {
        fill: #efe7dc;
      }

      .cls-12 {
        fill: #faf9fe;
      }
    </style>
  </defs>
  <g id="Layer_1-2" data-name="Layer 1">
    <g>
      <rect class="cls-6" width="700" height="350"/>
      <g>
        <g>
          <path class="cls-7" d="m566.04,150.77v86.12c0,2.75-2.36,4.98-5.27,4.98h-123.92c-2.91,0-5.27-2.23-5.27-4.98v-86.12c0-2.75,2.36-4.98,5.27-4.98h123.92c2.91,0,5.27,2.23,5.27,4.98Z"/>
          <path class="cls-8" d="m566.04,150.77v9.31h-134.46v-9.31c0-2.75,2.36-4.98,5.27-4.98h123.92c2.91,0,5.27,2.23,5.27,4.98Z"/>
          <g>
            <ellipse class="cls-10" cx="555.4" cy="152.94" rx="2.25" ry="2.27"/>
            <ellipse class="cls-10" cx="546.65" cy="152.94" rx="2.25" ry="2.27"/>
            <ellipse class="cls-10" cx="537.31" cy="152.94" rx="2.25" ry="2.27"/>
          </g>
        </g>
        <g>
          <rect class="cls-11" x="234.46" y="39.1" width="178.54" height="286.76" rx="7.22" ry="7.22" transform="translate(141.25 506.21) rotate(-90)"/>
          <rect class="cls-10" x="234.46" y="39.1" width="178.54" height="286.76" rx="5.95" ry="5.95" transform="translate(141.25 506.21) rotate(-90)"/>
          <rect class="cls-3" x="239.66" y="43.91" width="168.13" height="276.86" rx="3.1" ry="3.1" transform="translate(141.39 506.07) rotate(-90)"/>
          <rect class="cls-1" x="239.66" y="43.91" width="168.13" height="276.86" rx="5.95" ry="5.95" transform="translate(141.39 506.07) rotate(-90)"/>
        </g>
        <g>
          <rect class="cls-5" x="141.93" y="87.03" width="98.8" height="155.02" rx="4.07" ry="4.07" transform="translate(25.81 355.02) rotate(-89.71)"/>
          <rect class="cls-1" x="141.93" y="87.03" width="98.8" height="155.02" rx="4.07" ry="4.07" transform="translate(25.81 355.02) rotate(-89.71)"/>
          <path class="cls-10" d="m269.07,119.6l-.05,9.55-155.02-.8.05-9.55c.01-2.25,1.84-4.06,4.09-4.05l146.89.76c2.25.01,4.06,1.84,4.05,4.09Z"/>
          <path class="cls-1" d="m269.07,119.6l-.05,9.55-155.02-.8.05-9.55c.01-2.25,1.84-4.06,4.09-4.05l146.89.76c2.25.01,4.06,1.84,4.05,4.09Z"/>
          <g>
            <circle class="cls-10" cx="187.16" cy="166.48" r="22.57"/>
            <path class="cls-9" d="m186.01,153.65l12.99,10.66c1.4,1.15,1.4,3.28,0,4.43l-13.1,10.78c-1.88,1.54-4.7.2-4.69-2.23l.11-21.44c.01-2.41,2.82-3.73,4.68-2.2Z"/>
          </g>
          <g>
            <path class="cls-4" d="m261.9,122.55c0,.86-.7,1.55-1.56,1.55-.86,0-1.55-.7-1.55-1.56,0-.86.7-1.55,1.56-1.55.86,0,1.55.7,1.55,1.56Z"/>
            <path class="cls-4" d="m247.6,122.48c0,.86-.7,1.55-1.56,1.55-.86,0-1.55-.7-1.55-1.56,0-.86.7-1.55,1.56-1.55.86,0,1.55.7,1.55,1.56Z"/>
            <path class="cls-4" d="m254.75,122.52c0,.86-.7,1.55-1.56,1.55-.86,0-1.55-.7-1.55-1.56,0-.86.7-1.55,1.56-1.55.86,0,1.55.7,1.55,1.56Z"/>
          </g>
        </g>
        <g>
          <path class="cls-10" d="m483.42,116.19l-142.63,1.04c-13.37.1-24.28-10.66-24.38-24.02h0c-.1-13.37,10.66-24.28,24.02-24.38l142.63-1.04c13.37-.1,24.28,10.66,24.38,24.02h0c.1,13.37-10.66,24.28-24.02,24.38Z"/>
          <g>
            <circle class="cls-4" cx="480.92" cy="91.63" r="19.13" transform="translate(318.94 553.63) rotate(-81.47)"/>
            <g>
              <circle class="cls-2" cx="478.61" cy="87.97" r="7.7"/>
              <line class="cls-2" x1="482.72" y1="94.48" x2="489.05" y2="104.49"/>
            </g>
          </g>
        </g>
        <polygon class="cls-12" points="590.43 225.87 618.4 134.48 606.72 134.48 582.79 212.66 558.26 176.46 544.41 176.46 577.89 225.87 590.43 225.87"/>
      </g>
    </g>
  </g>
</svg>