<svg xmlns="http://www.w3.org/2000/svg" width="700" height="350" fill="none" xmlns:v="https://vecta.io/nano"><mask id="A" maskUnits="userSpaceOnUse" x="0" y="0" width="700" height="350"><path d="M700 0H0V350H700V0Z" fill="#fff"/></mask><g mask="url(#A)"><mask id="B" maskUnits="userSpaceOnUse" x="-13" y="-140" width="726" height="508"><path d="M712.06-139.64H-12.06v506.87h724.12v-506.87z" fill="#fff"/></mask><g mask="url(#B)"><path d="M700 0H0V350H700V0Z" fill="#2046f9"/><path d="M613.88 96.26L505.84 283.39c-7.02 12.13-22.58 16.31-34.73 9.29s-16.33-22.56-9.31-34.72L569.85 70.83c7.02-12.15 22.56-16.33 34.72-9.31 12.15 7.04 16.31 22.56 9.31 34.73v.01z" fill="#ff567d"/><path d="M604.58 61.53c12.15 7.04 16.31 22.56 9.31 34.73l-15.77 27.34c-4.74 2.24-10.46 2.2-15.35-.6-7.89-4.57-10.62-14.67-6.04-22.58l23.56-40.81c1.46.5 2.91 1.12 4.3 1.92h-.01z" fill="#e34d6f"/><path d="M144.8 256.73L36.75 443.86c-7.01 12.15-22.55 16.33-34.72 9.29-12.15-7.02-16.32-22.58-9.3-34.72L100.77 231.3a25.41 25.41 0 0 1 34.72-9.31c12.17 7.02 16.33 22.58 9.31 34.73v.01zm597.94-44.22l-86.11 149.13c-4.55 7.91-14.68 10.61-22.58 6.06-7.9-4.58-10.61-14.67-6.06-22.58l86.13-149.13c4.55-7.92 14.66-10.62 22.56-6.08 7.91 4.58 10.62 14.67 6.06 22.6zM45.31 14.41l-86.12 149.13c-4.55 7.91-14.66 10.61-22.57 6.06-7.9-4.58-10.62-14.67-6.05-22.58L16.69-2.11c4.56-7.92 14.66-10.62 22.57-6.08 7.9 4.58 10.62 14.68 6.05 22.6z" fill="#ff567d"/><path d="M370.33 326.6l-86.1 149.15c-4.56 7.91-14.67 10.62-22.56 6.06-7.92-4.57-10.61-14.67-6.05-22.58l86.1-149.15c4.57-7.91 14.68-10.61 22.56-6.04 7.92 4.57 10.62 14.66 6.05 22.56z" fill="#6a7efc"/><path d="M700.09-20.55L613.98 128.6c-4.57 7.91-14.67 10.61-22.58 6.06-7.89-4.58-10.61-14.67-6.04-22.58l86.11-149.15c4.57-7.91 14.66-10.61 22.56-6.05 7.91 4.56 10.61 14.66 6.06 22.57z" fill="#142fd8"/><path d="M604.72 282.2L487.46 485.3a9.51 9.51 0 0 1-13 3.5c-4.55-2.65-6.11-8.46-3.5-13.02l117.28-203.11c2.63-4.57 8.46-6.13 13.02-3.48 4.57 2.63 6.11 8.46 3.46 13.01zm-355.05-65.38l-117.25 203.1c-2.63 4.57-8.47 6.11-13.03 3.5a9.55 9.55 0 0 1-3.49-13.02l117.27-203.1c2.64-4.58 8.46-6.13 13.01-3.48 4.57 2.63 6.13 8.44 3.49 13z" fill="#6a7efc"/><path d="M247.671 343.02L122.441 562.9c-1.53 2.61-4.88 3.52-7.5 2.01s-3.52-4.87-2-7.5l125.25-219.89c1.5-2.59 4.85-3.52 7.49-1.99 2.61 1.49 3.51 4.87 1.99 7.5v-.01zm25.959-235.58c-3.51 0-6.359 2.85-6.359 6.36s2.849 6.34 6.359 6.34a6.34 6.34 0 0 0 6.35-6.34c0-3.51-2.84-6.36-6.35-6.36z" fill="#142fd8"/><path d="M430.31 235.07c-5.28 0-9.539 4.26-9.539 9.54 0 5.26 4.259 9.52 9.539 9.52s9.54-4.26 9.54-9.52-4.28-9.54-9.54-9.54zM143.28 48.95a15.87 15.87 0 0 0-15.88 15.88c0 8.76 7.1 15.88 15.88 15.88 8.79 0 15.88-7.12 15.88-15.88a15.87 15.87 0 0 0-15.88-15.88zm363.3-34.96c-8.78 0-15.88 7.11-15.88 15.88s7.11 15.88 15.88 15.88c8.78 0 15.88-7.12 15.88-15.88 0-8.78-7.11-15.88-15.88-15.88z" fill="#6a7efc"/><path d="M40.97 171.82c-8.77 0-15.88 7.11-15.88 15.88a15.89 15.89 0 0 0 15.88 15.88 15.88 15.88 0 1 0 0-31.76z" fill="#142fd8"/><path d="M318.63 228.71c-8.77 0-15.88 7.14-15.88 15.9 0 8.78 7.12 15.88 15.88 15.88a15.87 15.87 0 0 0 15.88-15.88c0-8.76-7.1-15.9-15.88-15.9z" fill="#ff567d"/><path d="M651.19 151.69c-14.04 0-25.41 11.39-25.41 25.42 0 14.04 11.37 25.42 25.41 25.42a25.41 25.41 0 0 0 25.42-25.42c0-14.04-11.35-25.42-25.42-25.42z" fill="#6a7efc"/><path d="M302.47-81.6L216.36 67.57c-4.56 7.89-14.66 10.61-22.56 6.04-7.91-4.58-10.62-14.67-6.05-22.56l86.1-149.16c4.56-7.91 14.68-10.61 22.56-6.05 7.91 4.57 10.62 14.67 6.06 22.56z" fill="#ff567d"/><path d="M496.09 267.46l-16.1 28.3c-3.06-.48-6.08-1.44-8.88-3.07-.5-.3-.92-.69-1.42-1.01l16.91-29.71c1.51-2.59 4.87-3.52 7.5-1.99 2.59 1.51 3.52 4.87 1.99 7.48z" fill="#e34d6f"/><path d="M505.85 267.46L380.6 487.35a5.46 5.46 0 0 1-7.48 1.99c-2.59-1.51-3.5-4.85-1.99-7.48l125.25-219.89c1.49-2.59 4.85-3.52 7.46-1.99 2.63 1.51 3.52 4.87 2.01 7.48z" fill="#142fd8"/><path d="M135.49 221.99c.41.23.72.55 1.09.78l-22.44 39.58c-4.55 7.92-14.66 10.62-22.55 6.06-3.51-2.04-5.93-5.19-7.2-8.72l16.38-28.39a25.41 25.41 0 0 1 34.72-9.31z" fill="#e34d6f"/><path d="M165.37 157.09l-51.23 90.43c-4.56 7.92-14.66 10.62-22.55 6.06-7.92-4.57-10.62-14.66-6.06-22.58l51.22-90.43c4.57-7.91 14.66-10.61 22.57-6.06 7.92 4.57 10.62 14.67 6.05 22.58zM415.1 57.1l-64.83 112.51c-4.55 7.9-14.64 10.62-22.54 6.05-7.91-4.56-10.61-14.68-6.06-22.57l64.81-112.51c4.55-7.92 14.66-10.62 22.56-6.05 7.91 4.56 10.62 14.66 6.06 22.57z" fill="#6a7efc"/><path d="M367.79 81c0-14.03 11.37-25.42 25.42-25.42 7.16 0 13.59 2.99 18.23 7.76l-24.61 42.17c-10.94-2.83-19.05-12.68-19.05-24.51h.01z" fill="#5369f5"/><path d="M410.96 51.76c-14.04 0-25.439 11.37-25.439 25.41s11.409 25.43 25.439 25.43 25.41-11.39 25.41-25.43S425 51.76 410.96 51.76z" fill="#ff567d"/><path d="M189.27-108.05L72.021 95.04a9.52 9.52 0 0 1-13.02 3.48c-4.56-2.63-6.11-8.46-3.49-13.01L172.75-117.6c2.64-4.56 8.47-6.12 13.04-3.48 4.56 2.63 6.11 8.44 3.47 13.02l.01.01z" fill="#142fd8"/></g></g></svg>