<svg width="72" height="72" viewBox="0 0 72 72" fill="none" xmlns="http://www.w3.org/2000/svg">
<path d="M0 24C0 12.6863 0 7.02944 3.51472 3.51472C7.02944 0 12.6863 0 24 0H48C59.3137 0 64.9706 0 68.4853 3.51472C72 7.02944 72 12.6863 72 24V48C72 59.3137 72 64.9706 68.4853 68.4853C64.9706 72 59.3137 72 48 72H24C12.6863 72 7.02944 72 3.51472 68.4853C0 64.9706 0 59.3137 0 48V24Z" fill="#416EF0"/>
<path fill-rule="evenodd" clip-rule="evenodd" d="M33.4542 27.0544C34.8601 25.6485 37.1395 25.6485 38.5454 27.0544C39.9513 28.4603 39.9513 30.7397 38.5454 32.1456C37.1395 33.5515 34.8601 33.5515 33.4542 32.1456C32.0483 30.7397 32.0483 28.4603 33.4542 27.0544ZM43.1998 41.4379L43.1998 41.4458L43.1998 41.4537V42.4393C43.1998 43.301 42.5265 44 41.6965 44H30.3031C29.4731 44 28.7998 43.301 28.7998 42.4393V41.4379C28.7998 39.7012 29.7613 37.3688 31.1088 36.438C32.4527 35.5098 34.2243 35 35.9998 35C37.7754 35 39.547 35.5101 40.8908 36.4384C42.2383 37.3693 43.1998 39.7017 43.1998 41.4379Z" fill="white"/>
<circle cx="22" cy="22" r="4" fill="white"/>
<circle cx="50" cy="22" r="4" fill="white"/>
<circle cx="50" cy="50" r="4" fill="white"/>
<circle cx="22" cy="50" r="4" fill="white"/>
</svg>
