<svg xmlns="http://www.w3.org/2000/svg" width="168" height="32" fill="none" xmlns:v="https://vecta.io/nano"><path d="M34.132 24.916h13.441v-3.342h-9.367v-4.1h7.761v-3.342h-7.761v-3.791h9.427V7h-13.5v17.916zm29.618-6.627L54.947 7h-6.066l1.903 2.275v15.697h4.044V13.206l9.099 11.71h3.896V7h-4.074v11.289zm-35.743-2.583c1.784-.309 3.271-1.881 3.271-4.1C31.277 9.218 29.433 7 25.776 7H14l1.844 2.218v15.725h10.348c3.658 0 5.561-2.162 5.561-4.858-.089-2.218-1.695-4.128-3.747-4.381zm-8.118-5.335h5.085c1.368 0 2.23.758 2.23 1.882s-.862 1.881-2.23 1.881h-5.085V10.37zm5.263 11.233h-5.263v-4.128h5.263c1.546 0 2.409.927 2.409 2.05 0 1.292-.922 2.05-2.409 2.078zm102.086-3.314h2.111v2.106c-1.1.842-2.468 1.32-3.895 1.348-3.39 0-5.769-2.443-5.769-5.729s2.409-5.728 5.769-5.728c1.754 0 3.39.87 4.341 2.275l3.212-1.685C131.638 8.825 129.229 7 125.423 7c-5.382 0-9.843 3.51-9.843 8.958s4.401 8.958 9.843 8.958c2.974.056 5.799-1.151 7.761-3.229v-6.627h-8.683l2.736 3.229zm-18.288 0L100.117 7h-6.036l1.873 2.275v15.697h4.074V13.206l9.099 11.71h3.866V7h-4.044v11.289zM146.625 7h-7.82l1.873 2.275-.327.871-6.066 14.827h4.579l1.19-3.033h8.177l1.19 3.033H154L146.625 7zm-5.531 11.569l2.974-7.722 2.974 7.722h-5.948zM87.658 7h4.074v18h-4.074V7zm-3.241 3.089V7H70.113v3.342h8.981l-8.981 11.513v3.061h14.452v-3.342h-9.189l9.04-11.485z" fill="#000"/></svg>