<svg width="168" height="32" viewBox="0 0 168 32" fill="none" xmlns="http://www.w3.org/2000/svg">
<path fill-rule="evenodd" clip-rule="evenodd" d="M24.0002 8.32842L18.1741 13.7658L14.7841 10.6018L24.0002 2L33.2195 10.6047L29.8294 13.7687L24.0002 8.32842ZM12.3901 12.8356L15.7801 15.9995L12.39 19.1636L9 15.9997L12.3901 12.8356ZM18.1743 18.2342L24.0004 23.6716L29.8294 18.2315L33.2213 21.3937L33.2197 21.3955L24.0004 30L14.7841 21.3984L14.7793 21.394L18.1743 18.2342ZM39.0004 16.001L35.6103 19.1651L32.2203 16.0012L35.6104 12.8371L39.0004 16.001ZM27.4395 15.9983H27.4409L24.0009 12.7877L21.4587 15.1604H21.4584L21.1665 15.4331L20.5639 15.9955L20.5592 15.9999L20.5639 16.0045L24.0009 19.2123L27.4409 16.0017L27.4426 15.9999L27.4395 15.9983ZM51.659 8.78466H44.2859V23.6324H51.8413C52.7334 23.6324 53.5463 23.5477 54.2799 23.3781C55.0135 23.2083 55.6412 22.9539 56.1632 22.6145C56.6852 22.275 57.0861 21.8506 57.366 21.3418C57.6458 20.8325 57.7856 20.2387 57.7856 19.5597V19.5175C57.7856 18.5279 57.5214 17.7536 56.9937 17.1948C56.4658 16.6361 55.7417 16.1945 54.8218 15.869C55.1078 15.7279 55.3749 15.558 55.6234 15.3599C55.8718 15.1622 56.0902 14.9324 56.2781 14.6706C56.4665 14.4089 56.6172 14.1159 56.73 13.7904C56.843 13.4653 56.8992 13.0904 56.8992 12.6663V12.6238C56.8992 11.62 56.5364 10.7785 55.8106 10.0996C54.8728 9.22297 53.489 8.78466 51.659 8.78466ZM52.7628 14.4162C52.3085 14.6639 51.6948 14.7873 50.9219 14.7873H47.6947V11.6481H51.1491C51.8913 11.6481 52.4595 11.779 52.8535 12.0406C53.2473 12.3025 53.4445 12.6807 53.4445 13.1754V13.2178C53.4445 13.7691 53.2172 14.1688 52.7628 14.4162ZM53.6719 20.3769C53.2322 20.6387 52.6265 20.7692 51.8538 20.7692L47.6947 20.7694V17.5028H51.7401C52.6493 17.5028 53.3082 17.6479 53.7174 17.9374C54.1264 18.2275 54.3311 18.6199 54.3311 19.1148V19.157C54.3311 19.7086 54.1112 20.1153 53.6719 20.3769ZM62.1771 8.78466H65.6773V23.6329H62.1771V8.78466ZM74.204 8.78466H70.9772V23.6329H74.4315V14.1938L82.1361 23.6329H85.1132V8.78466H81.6587V17.927L74.204 8.78466ZM95.711 8.67873H98.938L105.756 23.6329H102.097L100.643 20.3028H93.9154L92.461 23.6329H88.8923L95.711 8.67873ZM99.3927 17.4177L97.2789 12.6028L95.1657 17.4177H99.3927ZM112.761 8.78466H109.534V23.6329H112.988V14.1938L120.693 23.6329H123.67V8.78466H120.215V17.927L112.761 8.78466ZM136.266 23.8872C135.099 23.8872 134.016 23.6891 133.016 23.2934C132.015 22.8978 131.152 22.3566 130.425 21.6706C129.697 20.9848 129.129 20.1752 128.72 19.2419C128.311 18.3085 128.107 17.3115 128.107 16.2509V16.2087C128.107 15.148 128.311 14.1548 128.72 13.2284C129.129 12.3023 129.697 11.4891 130.425 10.7892C131.152 10.0892 132.023 9.53745 133.038 9.13452C134.053 8.73158 135.175 8.53011 136.402 8.53011C137.144 8.53011 137.822 8.58695 138.436 8.69974C139.049 8.81319 139.606 8.96843 140.106 9.16636C140.606 9.36451 141.068 9.6049 141.493 9.88753C141.916 10.1706 142.311 10.4815 142.674 10.821L140.447 13.2178C139.825 12.6948 139.193 12.2844 138.549 11.9876C137.905 11.6908 137.182 11.5422 136.379 11.5422C135.712 11.5422 135.095 11.6625 134.527 11.9029C133.959 12.1433 133.47 12.4754 133.061 12.8996C132.652 13.3238 132.334 13.8154 132.106 14.3738C131.879 14.9326 131.766 15.5299 131.766 16.1662V16.2084C131.766 16.8447 131.879 17.446 132.106 18.0112C132.334 18.5772 132.648 19.0719 133.05 19.496C133.451 19.9202 133.936 20.2564 134.504 20.5038C135.073 20.7515 135.697 20.8749 136.379 20.8749C137.288 20.8749 138.057 20.7194 138.686 20.4083C139.314 20.0976 139.94 19.6732 140.561 19.1356L142.788 21.2356C142.379 21.6458 141.954 22.0136 141.515 22.3385C141.076 22.664 140.595 22.9431 140.072 23.1766C139.549 23.4097 138.977 23.5869 138.356 23.7067C137.735 23.8268 137.038 23.8872 136.266 23.8872ZM158.886 8.78466H146.909V23.6329H159V20.727H150.363V17.6088H157.863V14.7028H150.363V11.6908H158.886V8.78466Z" fill="white"/>
</svg>
