<svg width="168" height="32" viewBox="0 0 168 32" fill="none" xmlns="http://www.w3.org/2000/svg">
<path d="M25 1.06667V24.1133L37.1026 32L49.2052 24.1133V1.06667H25ZM46.5157 22.7112L37.1026 28.8453L27.6895 22.7112V15.438H31.0603V21.0988C31.0586 21.1747 31.0738 21.25 31.1048 21.3196C31.1357 21.3892 31.1817 21.4514 31.2396 21.5019C31.2931 21.5563 31.357 21.5998 31.4278 21.6299C31.4986 21.66 31.5748 21.6761 31.6519 21.6772H38.5011C39.1913 21.6936 39.8767 21.562 40.5093 21.2916C41.0572 21.0498 41.5508 20.7043 41.9616 20.2751C42.3476 19.8634 42.6462 19.3808 42.8401 18.8555C43.0378 18.3458 43.1411 17.8058 43.1449 17.2607C43.1449 16.4369 42.9656 15.7534 42.5891 15.2101C42.268 14.7228 41.8541 14.3004 41.3699 13.9658C41.5166 13.8803 41.6496 13.774 41.7643 13.6503C41.944 13.4681 42.1117 13.2749 42.2664 13.072C42.4461 12.8132 42.5851 12.5297 42.6788 12.2307C42.7975 11.8681 42.858 11.4897 42.8581 11.109C42.8484 10.649 42.7637 10.1934 42.607 9.75955C42.4369 9.25983 42.1621 8.80024 41.8002 8.41005C41.3861 7.96462 40.8785 7.6119 40.312 7.37601C39.7024 7.0956 38.9314 6.97292 38.017 6.97292H31.6519C31.5743 6.97131 31.4973 6.98615 31.4261 7.0164C31.3549 7.04665 31.2913 7.09161 31.2396 7.14818C31.1839 7.20047 31.1394 7.26301 31.1087 7.3322C31.0779 7.40138 31.0614 7.47584 31.0603 7.55127V12.8441H27.6895V3.73061H46.5157V22.7112ZM34.5924 15.438H37.9632C38.7163 15.438 39.29 15.6132 39.6666 15.9462C39.8463 16.113 39.9897 16.3134 40.0882 16.5356C40.1868 16.7579 40.2384 16.9972 40.2401 17.2394C40.2418 17.4816 40.1934 17.7216 40.098 17.9451C40.0025 18.1686 39.8619 18.3709 39.6845 18.5401C39.3259 18.873 38.7342 19.0308 37.9453 19.0308H33.9828V15.438H34.5924ZM33.9828 12.8091V9.56676H37.7839C38.537 9.56676 39.0749 9.70697 39.4155 9.96986C39.5904 10.1197 39.728 10.3064 39.8181 10.5159C39.9082 10.7254 39.9483 10.9522 39.9355 11.1791C39.9483 11.4061 39.9082 11.6329 39.8181 11.8424C39.728 12.0519 39.5904 12.2386 39.4155 12.3884C39.0749 12.6689 38.5191 12.7915 37.7839 12.7915H33.9828V12.8091ZM60.1782 20.6782C60.0451 20.6765 59.9173 20.6265 59.8196 20.538C59.7712 20.4932 59.7333 20.4387 59.7085 20.3782C59.6838 20.3176 59.6727 20.2526 59.6762 20.1875V8.41005C59.678 8.27988 59.7291 8.15498 59.8196 8.05953C59.8655 8.01219 59.9213 7.97513 59.9832 7.95093C60.0451 7.92672 60.1116 7.91594 60.1782 7.91932H65.6827C66.3636 7.90245 67.0408 8.02173 67.6729 8.26984C68.1603 8.47989 68.5994 8.78389 68.9638 9.16366C69.277 9.50394 69.515 9.90367 69.6631 10.3379C69.7993 10.7154 69.872 11.1119 69.8782 11.5121C69.8797 11.8444 69.8314 12.175 69.7348 12.4936C69.6442 12.7515 69.5239 12.9984 69.3762 13.2297C69.2462 13.4096 69.1024 13.5795 68.9459 13.7379C68.844 13.8441 68.7296 13.9382 68.6052 14.0184C69.0229 14.3142 69.3815 14.6825 69.6631 15.105C70.0011 15.6348 70.1696 16.2511 70.1472 16.8751C70.1393 17.8406 69.7693 18.7698 69.1073 19.4865C68.7593 19.8646 68.331 20.1637 67.8522 20.3628C67.304 20.5956 66.7106 20.7093 66.113 20.6957H60.1782V20.6782ZM67.3501 11.5998C67.3636 11.4026 67.3301 11.205 67.2524 11.0225C67.1746 10.8401 67.0546 10.6777 66.9019 10.5482C66.5971 10.3029 66.1309 10.1977 65.4854 10.1977H62.1864V13.0018H65.4854C66.1309 13.0018 66.5971 12.8792 66.9019 12.6513C67.0546 12.5218 67.1746 12.3595 67.2524 12.177C67.3301 11.9946 67.3636 11.797 67.3501 11.5998ZM62.1864 18.3998H65.6289C66.3102 18.3998 66.8122 18.2596 67.135 17.9792C67.2944 17.838 67.4202 17.6644 67.5039 17.4707C67.5875 17.277 67.6268 17.0677 67.6191 16.8576C67.6276 16.6457 67.5869 16.4346 67.4999 16.2403C67.413 16.0461 67.2821 15.8736 67.1171 15.7359C66.7943 15.438 66.2923 15.2978 65.6289 15.2978H62.1864V18.3998ZM73.5718 7.74406C73.7049 7.74579 73.8327 7.79575 73.9304 7.88427C73.9788 7.92907 74.0167 7.98361 74.0415 8.04413C74.0662 8.10465 74.0773 8.16969 74.0738 8.23479V9.65439C74.072 9.78456 74.0209 9.90946 73.9304 10.0049C73.8845 10.0522 73.8287 10.0893 73.7668 10.1135C73.7049 10.1377 73.6384 10.1485 73.5718 10.1451H71.976C71.8429 10.1434 71.7151 10.0934 71.6174 10.0049C71.569 9.96011 71.5311 9.90556 71.5063 9.84505C71.4816 9.78453 71.4705 9.71948 71.474 9.65439V8.23479C71.4758 8.10462 71.5269 7.97972 71.6174 7.88427C71.6633 7.83693 71.7191 7.79987 71.781 7.77567C71.8429 7.75146 71.9094 7.74068 71.976 7.74406H73.5718ZM73.9842 20.1875C73.9824 20.3177 73.9313 20.4426 73.8407 20.538C73.7949 20.5854 73.7391 20.6224 73.6772 20.6466C73.6153 20.6708 73.5487 20.6816 73.4821 20.6782H72.0477C71.9146 20.6765 71.7868 20.6265 71.6891 20.538C71.6407 20.4932 71.6028 20.4387 71.578 20.3782C71.5533 20.3176 71.5423 20.2526 71.5457 20.1875V11.6874C71.5475 11.5572 71.5986 11.4323 71.6891 11.3369C71.735 11.2895 71.7908 11.2525 71.8527 11.2283C71.9146 11.2041 71.9812 11.1933 72.0477 11.1967H73.4642C73.5974 11.1984 73.7251 11.2484 73.8228 11.3369C73.8712 11.3817 73.9091 11.4362 73.9339 11.4967C73.9587 11.5573 73.9697 11.6223 73.9662 11.6874V20.1875H73.9842ZM79.0583 17.2431C79.0429 17.5677 79.1515 17.8863 79.3631 18.137C79.5603 18.3648 79.9548 18.47 80.5106 18.47H81.6402C81.7733 18.4717 81.9011 18.5216 81.9988 18.6102C82.0472 18.655 82.0851 18.7095 82.1099 18.77C82.1346 18.8305 82.1457 18.8956 82.1422 18.9607V20.17C82.1404 20.3001 82.0893 20.425 81.9988 20.5205C81.9529 20.5678 81.8971 20.6049 81.8352 20.6291C81.7733 20.6533 81.7068 20.6641 81.6402 20.6607H80.2596C79.0941 20.6607 78.1977 20.3803 77.5701 19.837C76.9426 19.2937 76.6198 18.4349 76.6198 17.2957V13.3874H75.3827C75.2495 13.3857 75.1217 13.3357 75.0241 13.2472C74.9757 13.2024 74.9377 13.1479 74.913 13.0874C74.8882 13.0268 74.8772 12.9618 74.8806 12.8967V11.6874C74.8824 11.5572 74.9335 11.4323 75.0241 11.3369C75.0699 11.2895 75.1257 11.2525 75.1876 11.2283C75.2495 11.2041 75.3161 11.1933 75.3827 11.1967H76.6198V8.21726C76.6216 8.08709 76.6727 7.96219 76.7633 7.86674C76.8081 7.8181 76.8637 7.78017 76.9259 7.75586C76.9881 7.73155 77.0551 7.72152 77.1219 7.72653H78.5383C78.6715 7.72826 78.7993 7.77822 78.8969 7.86674C78.9454 7.91154 78.9833 7.96609 79.008 8.0266C79.0328 8.08712 79.0438 8.15217 79.0404 8.21726V11.1967H81.4429C81.5761 11.1984 81.7039 11.2484 81.8015 11.3369C81.85 11.3817 81.8879 11.4362 81.9126 11.4967C81.9374 11.5573 81.9484 11.6223 81.945 11.6874V12.8967C81.9432 13.0269 81.8921 13.1518 81.8015 13.2472C81.7557 13.2946 81.6999 13.3316 81.638 13.3558C81.5761 13.38 81.5095 13.3908 81.4429 13.3874H79.0404V17.2431H79.0583ZM88.5252 7.91932C89.3403 7.90685 90.152 8.02526 90.9278 8.26984C91.5624 8.4878 92.1428 8.83418 92.6311 9.28634C93.0906 9.7323 93.4454 10.2705 93.6711 10.8637C93.9327 11.5305 94.0781 12.2355 94.1014 12.9493C94.1552 13.8482 94.1552 14.7494 94.1014 15.6483C94.0588 16.3598 93.914 17.0619 93.6711 17.7339C93.443 18.3259 93.0885 18.8636 92.6311 19.3112C92.1562 19.7629 91.5875 20.1095 90.9637 20.3277C90.2085 20.581 89.4129 20.6997 88.6149 20.6782H83.9173C83.7841 20.6765 83.6563 20.6265 83.5587 20.538C83.5102 20.4932 83.4723 20.4387 83.4476 20.3782C83.4228 20.3176 83.4118 20.2526 83.4152 20.1875V8.41005C83.417 8.27988 83.4681 8.15498 83.5587 8.05953C83.6045 8.01219 83.6603 7.97513 83.7222 7.95093C83.7841 7.92672 83.8507 7.91594 83.9173 7.91932H88.5252ZM91.5733 12.9493C91.553 12.5775 91.4744 12.2111 91.3402 11.8627C91.2161 11.5334 91.0203 11.2344 90.7664 10.9864C90.4911 10.7263 90.1605 10.5289 89.7982 10.408C89.3546 10.2576 88.887 10.1864 88.4176 10.1977H85.9254V18.3998H88.5252C88.9768 18.4086 89.4263 18.3373 89.852 18.1895C90.2016 18.0643 90.5196 17.867 90.7844 17.6112C91.0361 17.3615 91.2316 17.0629 91.3581 16.7349C91.4923 16.3865 91.5709 16.02 91.5912 15.6483C91.6271 14.7544 91.6271 13.8431 91.5733 12.9493ZM95.1413 15.9462C95.1376 15.2905 95.2467 14.6388 95.464 14.0184C95.6637 13.4459 95.9741 12.9163 96.3785 12.4585C96.7975 11.9959 97.3144 11.6278 97.8933 11.3797C98.4722 11.1316 99.0993 11.0093 99.7313 11.0214C100.384 11.0129 101.032 11.1383 101.632 11.3895C102.18 11.6233 102.674 11.9631 103.084 12.3884C103.483 12.8168 103.794 13.3167 103.999 13.8606C104.214 14.4269 104.324 15.0265 104.321 15.6307V16.4545C104.32 16.5846 104.268 16.7095 104.178 16.805C104.132 16.8523 104.076 16.8894 104.014 16.9136C103.952 16.9378 103.886 16.9486 103.819 16.9452H97.5977C97.5888 17.2018 97.6507 17.4561 97.777 17.6813C97.8978 17.8934 98.0627 18.0785 98.2611 18.2246C98.4668 18.3733 98.6973 18.486 98.9424 18.5576C99.2053 18.6281 99.4767 18.6634 99.7493 18.6627C100.077 18.6747 100.404 18.6332 100.717 18.5401C100.936 18.473 101.141 18.3725 101.327 18.2421C101.431 18.1629 101.546 18.098 101.668 18.0493C101.783 18.0093 101.904 17.9914 102.026 17.9967H103.515C103.648 17.9985 103.775 18.0484 103.873 18.137C103.925 18.1792 103.965 18.2333 103.99 18.2945C104.015 18.3557 104.024 18.422 104.017 18.4875C103.975 18.7229 103.877 18.9452 103.73 19.1359C103.508 19.4411 103.235 19.7077 102.923 19.9246C102.517 20.2062 102.07 20.425 101.596 20.5731C101.006 20.7638 100.388 20.8585 99.7672 20.8535C99.1163 20.8591 98.4707 20.74 97.8666 20.503C97.3166 20.2646 96.8224 19.9186 96.4143 19.4865C96.01 19.0287 95.6995 18.4991 95.4999 17.9266C95.2489 17.2958 95.1271 16.6229 95.1413 15.9462ZM99.7134 13.2122C99.4008 13.2039 99.0898 13.2576 98.799 13.3699C98.5627 13.4687 98.3446 13.6049 98.1535 13.773C97.9851 13.9256 97.8508 14.1106 97.759 14.3163C97.6668 14.498 97.6062 14.6935 97.5798 14.8947H101.793C101.767 14.6974 101.719 14.5035 101.65 14.3163C101.578 14.1131 101.462 13.9276 101.309 13.773C101.134 13.6014 100.927 13.4645 100.7 13.3699C100.384 13.2564 100.049 13.2029 99.7134 13.2122ZM109.808 22.5009C110.082 22.5018 110.354 22.4604 110.615 22.3782C110.882 22.2912 111.136 22.1673 111.368 22.0102C111.594 21.8314 111.783 21.6112 111.924 21.3617C112.072 21.0804 112.146 20.767 112.139 20.4504V19.7669C112.015 19.8919 111.883 20.009 111.744 20.1174C111.561 20.2558 111.363 20.3734 111.153 20.4679C110.891 20.5802 110.621 20.6739 110.346 20.7483C110.004 20.8226 109.655 20.8579 109.306 20.8535C108.724 20.8595 108.149 20.7398 107.62 20.503C107.134 20.2688 106.696 19.9478 106.329 19.5566C105.97 19.1516 105.685 18.6892 105.487 18.1895C105.283 17.6742 105.168 17.1293 105.146 16.5771C105.128 16.4019 105.128 16.1741 105.128 15.9462C105.128 15.7184 105.128 15.4905 105.146 15.3153C105.168 14.7631 105.283 14.2182 105.487 13.7029C105.683 13.202 105.968 12.7391 106.329 12.3359C106.686 11.9342 107.126 11.6116 107.62 11.3895C108.146 11.1443 108.724 11.0242 109.306 11.0389C109.655 11.0355 110.004 11.0708 110.346 11.1441C110.626 11.2027 110.897 11.297 111.153 11.4245C111.363 11.519 111.561 11.6366 111.744 11.775C111.883 11.8834 112.015 12.0005 112.139 12.1256V11.6874C112.141 11.5572 112.192 11.4323 112.282 11.3369C112.328 11.2895 112.384 11.2525 112.446 11.2283C112.508 11.2041 112.574 11.1933 112.641 11.1967H114.057C114.19 11.1984 114.318 11.2484 114.416 11.3369C114.464 11.3817 114.502 11.4362 114.527 11.4967C114.552 11.5573 114.563 11.6223 114.559 11.6874V20.2401C114.559 21.7123 114.147 22.8164 113.304 23.57C112.461 24.3236 111.314 24.6917 109.826 24.6917C109.231 24.6938 108.639 24.6112 108.069 24.4463C107.567 24.298 107.09 24.0796 106.652 23.7978C106.28 23.5479 105.958 23.233 105.702 22.869C105.482 22.5499 105.347 22.1826 105.307 21.7999C105.3 21.7344 105.309 21.6681 105.334 21.6069C105.359 21.5458 105.399 21.4916 105.451 21.4494C105.498 21.4033 105.554 21.3671 105.615 21.3429C105.677 21.3188 105.743 21.3073 105.81 21.3092H107.083C107.166 21.3062 107.248 21.3202 107.326 21.3504C107.403 21.3806 107.473 21.4262 107.531 21.4844L107.854 21.7999C108.03 22.0184 108.258 22.1927 108.517 22.3081C108.929 22.4577 109.369 22.5233 109.808 22.5009ZM107.585 15.4204C107.549 15.7584 107.549 16.099 107.585 16.4369C107.656 17.2256 107.907 17.7864 108.338 18.137C108.776 18.4773 109.32 18.6626 109.88 18.6626C110.44 18.6626 110.983 18.4773 111.422 18.137C111.637 17.9447 111.812 17.7124 111.935 17.4537C112.058 17.1949 112.127 16.9149 112.139 16.6297C112.157 16.4545 112.175 16.2091 112.175 15.9287C112.175 15.6483 112.157 15.4204 112.139 15.2276C112.108 14.6586 111.85 14.124 111.422 13.7379C110.998 13.3698 110.446 13.1752 109.88 13.1946C109.317 13.1775 108.767 13.3648 108.338 13.7204C107.907 14.0709 107.656 14.6318 107.585 15.4204ZM120.906 13.3874C120.153 13.3874 119.615 13.5452 119.293 13.8781C118.97 14.2111 118.791 14.7194 118.791 15.4555V20.1875C118.789 20.3177 118.738 20.4426 118.647 20.538C118.601 20.5854 118.546 20.6224 118.484 20.6466C118.422 20.6708 118.355 20.6816 118.289 20.6782H116.872C116.739 20.6765 116.611 20.6265 116.514 20.538C116.465 20.4932 116.427 20.4387 116.402 20.3782C116.378 20.3176 116.367 20.2526 116.37 20.1875V11.6874C116.372 11.5572 116.423 11.4323 116.514 11.3369C116.559 11.2895 116.615 11.2525 116.677 11.2283C116.739 11.2041 116.806 11.1933 116.872 11.1967H118.289C118.422 11.1984 118.55 11.2484 118.647 11.3369C118.696 11.3817 118.734 11.4362 118.758 11.4967C118.783 11.5573 118.794 11.6223 118.791 11.6874V12.108C119.094 11.8267 119.446 11.6011 119.831 11.442C120.292 11.2628 120.787 11.1793 121.283 11.1967H122.126C122.259 11.1984 122.387 11.2484 122.484 11.3369C122.533 11.3817 122.571 11.4362 122.595 11.4967C122.62 11.5573 122.631 11.6223 122.628 11.6874V12.8967C122.626 13.0269 122.575 13.1518 122.484 13.2472C122.438 13.2946 122.383 13.3316 122.321 13.3558C122.259 13.38 122.192 13.3908 122.126 13.3874H120.906ZM122.789 15.9462C122.785 15.2905 122.894 14.6388 123.112 14.0184C123.311 13.4459 123.622 12.9163 124.026 12.4585C124.445 11.9959 124.962 11.6278 125.541 11.3797C126.12 11.1316 126.747 11.0093 127.379 11.0214C128.032 11.0129 128.679 11.1383 129.28 11.3895C129.828 11.6233 130.322 11.9631 130.732 12.3884C131.131 12.8168 131.442 13.3167 131.646 13.8606C131.862 14.4269 131.971 15.0265 131.969 15.6307V16.4545C131.967 16.5846 131.916 16.7095 131.826 16.805C131.78 16.8523 131.724 16.8894 131.662 16.9136C131.6 16.9378 131.534 16.9486 131.467 16.9452H125.245C125.236 17.2018 125.298 17.4561 125.425 17.6813C125.544 17.889 125.702 18.0732 125.891 18.2246C126.101 18.3768 126.338 18.4897 126.59 18.5576C126.853 18.6281 127.124 18.6634 127.397 18.6627C127.724 18.6747 128.052 18.6332 128.365 18.5401C128.583 18.473 128.789 18.3725 128.975 18.2421C129.079 18.1629 129.193 18.098 129.315 18.0493C129.43 18.0093 129.552 17.9914 129.674 17.9967H131.162C131.295 17.9985 131.423 18.0484 131.521 18.137C131.569 18.1818 131.607 18.2363 131.632 18.2968C131.657 18.3573 131.668 18.4224 131.664 18.4875C131.623 18.7229 131.525 18.9452 131.377 19.1359C131.155 19.4411 130.883 19.7077 130.571 19.9246C130.165 20.2062 129.718 20.425 129.244 20.5731C128.654 20.7638 128.036 20.8585 127.415 20.8535C126.764 20.8591 126.118 20.74 125.514 20.503C124.962 20.2691 124.467 19.9225 124.062 19.4865C123.658 19.0287 123.347 18.4991 123.148 17.9266C122.897 17.2958 122.775 16.6229 122.789 15.9462ZM127.361 13.2122C127.049 13.2039 126.738 13.2576 126.447 13.3699C126.21 13.4687 125.992 13.6049 125.801 13.773C125.633 13.9256 125.499 14.1106 125.407 14.3163C125.315 14.498 125.254 14.6935 125.227 14.8947H129.423C129.397 14.6974 129.349 14.5035 129.28 14.3163C129.208 14.1131 129.092 13.9276 128.939 13.773C128.764 13.6014 128.557 13.4645 128.329 13.3699C128.021 13.2548 127.691 13.2012 127.361 13.2122ZM132.74 15.9462C132.736 15.2905 132.845 14.6388 133.063 14.0184C133.262 13.4459 133.573 12.9163 133.977 12.4585C134.396 11.9959 134.913 11.6278 135.492 11.3797C136.071 11.1316 136.698 11.0093 137.33 11.0214C137.983 11.0129 138.63 11.1383 139.231 11.3895C139.779 11.6233 140.273 11.9631 140.683 12.3884C141.082 12.8168 141.393 13.3167 141.597 13.8606C141.813 14.4269 141.922 15.0265 141.92 15.6307V16.4545C141.918 16.5846 141.867 16.7095 141.777 16.805C141.731 16.8523 141.675 16.8894 141.613 16.9136C141.551 16.9378 141.485 16.9486 141.418 16.9452H135.196C135.188 17.2018 135.249 17.4561 135.376 17.6813C135.497 17.8934 135.661 18.0785 135.86 18.2246C136.066 18.3733 136.296 18.486 136.541 18.5576C136.804 18.6281 137.075 18.6634 137.348 18.6627C137.675 18.6747 138.003 18.6332 138.316 18.5401C138.534 18.473 138.74 18.3725 138.926 18.2421C139.03 18.1629 139.144 18.098 139.267 18.0493C139.381 18.0093 139.503 17.9914 139.625 17.9967H141.113C141.246 17.9985 141.374 18.0484 141.472 18.137C141.524 18.1792 141.564 18.2333 141.589 18.2945C141.614 18.3557 141.623 18.422 141.615 18.4875C141.574 18.7229 141.476 18.9452 141.328 19.1359C141.107 19.4411 140.834 19.7077 140.522 19.9246C140.116 20.2062 139.669 20.425 139.195 20.5731C138.605 20.7638 137.987 20.8585 137.366 20.8535C136.715 20.8591 136.069 20.74 135.465 20.503C134.915 20.2646 134.421 19.9186 134.013 19.4865C133.602 19.0331 133.291 18.5022 133.099 17.9266C132.848 17.2958 132.726 16.6229 132.74 15.9462ZM137.312 13.2122C137 13.2039 136.689 13.2576 136.398 13.3699C136.161 13.4687 135.943 13.6049 135.752 13.773C135.584 13.9256 135.45 14.1106 135.358 14.3163C135.266 14.498 135.205 14.6935 135.178 14.8947H139.392C139.366 14.6974 139.318 14.5035 139.249 14.3163C139.177 14.1131 139.061 13.9276 138.908 13.773C138.733 13.6014 138.526 13.4645 138.298 13.3699C137.984 13.2532 137.648 13.1996 137.312 13.2122Z" fill="white"/>
</svg>
