<svg xmlns="http://www.w3.org/2000/svg" width="168" height="32" fill="none" xmlns:v="https://vecta.io/nano"><path fill-rule="evenodd" d="M45.131 30h2.14V18.8h-2.14V30zm7.845-.168h1.917v-7.067L62.962 30V18.968H61.05v6.946L52.976 18.8v11.032zm14.361-2.713c1.043.796 2.296 1.257 3.638 1.257 1.308 0 2.225-.441 2.225-1.415 0-.849-.585-1.181-1.61-1.553l-1.659-.564c-1.529-.532-2.692-1.309-2.692-3.095 0-1.91 1.76-2.949 3.866-2.949 1.29 0 2.465.318 3.383.88v1.894c-.955-.691-2-1.167-3.342-1.167-1.156 0-2.019.423-2.019 1.304 0 .796.542 1.115 1.497 1.435l1.848.635c1.791.617 2.613 1.573 2.613 3.146 0 1.979-1.777 3.072-4.11 3.072-1.533 0-2.836-.42-3.638-.95v-1.93zM80.078 30h2.139V18.8h-2.139V30zm12.175-1.695c2.412 0 3.7-1.515 3.7-3.908 0-2.41-1.29-3.92-3.7-3.92h-2.385v7.828h2.385zM87.921 18.8h4.404c3.39 0 5.582 2.188 5.582 5.597S95.714 30 92.325 30h-4.404V18.8zm20.684 0v1.677h-5.178v2.695h4.644v1.658h-4.645v3.475h5.179V30h-7.132V18.8h7.132zm7.594 5.072h2.123c1.257 0 1.965-.675 1.965-1.714s-.708-1.715-1.965-1.715h-2.123v3.429zm0 1.584V30h-1.889V18.8h4.048c2.308 0 3.801 1.165 3.801 3.357 0 1.875-.828 2.952-2.594 3.229L123.581 30h-2.149l-3.889-4.544H116.2l-.001-.001zM44.384 7.766c.837-.3 1.489-1.2 1.489-2.439 0-2.063-1.489-3.133-3.871-3.133H38v11.518h4.373c2.382 0 3.871-1.145 3.871-3.301 0-1.22-.782-2.289-1.861-2.645zm-4.504-.732V3.884h2.104c1.322 0 2.029.469 2.029 1.557s-.708 1.594-2.029 1.594h-2.104zm0 1.614h2.456c1.304 0 2.011.637 2.011 1.688 0 1.032-.707 1.689-2.01 1.689H39.88V8.647l-.001.001zM54.975 13.9c2.736 0 4.579-1.614 4.579-4.764v-6.94h-1.936V8.91c0 2.214-.931 3.246-2.643 3.246s-2.642-1.033-2.642-3.246V2.195h-1.935v6.921c0 3.17 1.861 4.784 4.578 4.784zm9.136-1.013c.8.564 2.103 1.013 3.629 1.013 2.327 0 4.094-1.164 4.094-3.264 0-1.669-.818-2.683-2.605-3.339l-1.842-.676c-.95-.337-1.489-.675-1.489-1.519 0-.938.856-1.388 2.01-1.388 1.34 0 2.382.506 3.332 1.238V2.945c-.912-.599-2.085-.937-3.369-.937-2.103 0-3.852 1.107-3.852 3.133 0 1.894 1.154 2.72 2.68 3.282l1.657.6c1.024.394 1.601.751 1.601 1.651 0 1.032-.912 1.501-2.215 1.501-1.34 0-2.587-.488-3.629-1.332v2.044zm14.64-10.692h-1.935v11.517h1.935V2.195zm5.522 11.503h1.865V6.205l7.85 7.671V2.178h-1.86v7.365L84.272 2v11.698zm21.81-11.5v1.725h-5.025v2.772h4.506V8.4h-4.506v3.573h5.025v1.743H99.16V2.198h6.922zm4.506 10.681c.8.563 2.103 1.013 3.629 1.013 2.326 0 4.095-1.163 4.095-3.264 0-1.67-.82-2.682-2.606-3.339l-1.843-.675c-.949-.338-1.489-.675-1.489-1.52 0-.938.856-1.388 2.01-1.388 1.34 0 2.382.507 3.332 1.238V2.938c-.912-.6-2.085-.938-3.369-.938-2.103 0-3.853 1.107-3.853 3.133 0 1.894 1.154 2.72 2.68 3.282l1.657.6c1.023.394 1.6.751 1.6 1.651 0 1.032-.911 1.501-2.215 1.501-1.34 0-2.587-.487-3.628-1.332v2.044zm11.688 0c.801.563 2.104 1.013 3.63 1.013 2.326 0 4.094-1.163 4.094-3.264 0-1.67-.819-2.682-2.605-3.339l-1.843-.675c-.949-.338-1.489-.675-1.489-1.52 0-.938.856-1.388 2.01-1.388 1.339 0 2.383.507 3.331 1.238V2.938c-.911-.6-2.084-.938-3.368-.938-2.104 0-3.852 1.107-3.852 3.133 0 1.894 1.154 2.72 2.679 3.282l1.657.6c1.024.394 1.601.751 1.601 1.651 0 1.032-.912 1.501-2.215 1.501-1.34 0-2.587-.487-3.63-1.332v2.044z" fill="#000"/></svg>