<svg width="72" height="72" viewBox="0 0 72 72" fill="none" xmlns="http://www.w3.org/2000/svg">
<path d="M0 24C0 12.6863 0 7.02944 3.51472 3.51472C7.02944 0 12.6863 0 24 0H48C59.3137 0 64.9706 0 68.4853 3.51472C72 7.02944 72 12.6863 72 24V48C72 59.3137 72 64.9706 68.4853 68.4853C64.9706 72 59.3137 72 48 72H24C12.6863 72 7.02944 72 3.51472 68.4853C0 64.9706 0 59.3137 0 48V24Z" fill="#416EF0"/>
<path fill-rule="evenodd" clip-rule="evenodd" d="M51.3892 29.0061H45.7978C46.1328 28.3517 46.4042 27.6592 46.6038 26.9369H51.6851C52.0582 26.9369 52.4743 26.937 52.9048 26.9945C53.7659 27.1241 54.469 27.4841 55 28.0024V25.8427C54.9856 24.2588 54.182 23.2653 52.747 23.0494C52.4119 22.9933 52.0595 22.9984 51.7099 23.0033C51.6103 23.0048 51.511 23.0062 51.4124 23.0062H46.9559C46.8943 22.3174 46.7691 21.6468 46.5863 21.0005H52.4213C52.9684 21.0005 53.53 21.0597 54.0627 21.1929C55.6178 21.5777 56.7408 22.9099 56.9136 24.538C56.9712 25.0708 57 25.6036 57 26.1365V47.9237C57 48.5601 56.9712 49.2114 56.8416 49.8478C56.4817 51.5944 55.0418 52.8524 53.2996 52.9265C51.903 52.9857 50.5063 53.0005 49.1097 53.0005H35.964L35.9784 52.9857H21.0041C20.0394 52.9857 19.0603 52.9856 18.1244 52.8228C16.4542 52.5416 15.2736 51.1503 15.0864 49.4186C15.0288 48.9302 15 48.4269 15 47.9385V26.0921C15 25.4852 15.0288 24.8784 15.1296 24.2863C15.3888 22.599 16.7998 21.2669 18.47 21.1041C19.0027 21.0449 19.5355 21.0005 20.0682 21.0005H25.414C25.2312 21.6468 25.106 22.3174 25.0443 23.0062H20.6163H19.54C18.3776 23.0494 17.4162 23.7693 17.1435 24.806C17.0431 25.1803 17 25.5835 17 25.9722V27.988C17.6458 27.3689 18.5211 26.9801 19.5113 26.9369H20.3867H25.3964C25.596 27.6592 25.8674 28.3517 26.2025 29.0061H20.6395H19.5648C18.4042 29.049 17.4442 29.7635 17.1719 30.7924C17.0716 31.164 17.0286 31.5641 17.0286 31.95C17.0286 33.3808 17.0146 34.7976 17.0004 36.2281L17 36.2656H17.6735H24.5513C26.9155 36.5229 28.592 37.8233 29.681 40.0812C29.9819 40.71 30.3688 41.3388 30.8416 41.8389C34.1229 45.3686 40.4992 44.454 42.4193 39.9811C43.3793 37.7518 45.0988 36.5086 47.4057 36.2514H54.3552H55C54.9998 34.7747 54.9856 33.298 54.9714 31.8213C54.957 30.2494 54.1546 29.2634 52.7217 29.049C52.3872 28.9934 52.0352 28.9984 51.6862 29.0033C51.5868 29.0047 51.4876 29.0061 51.3892 29.0061Z" fill="white"/>
<path d="M35.999 32.0005C31.5847 32.0005 27.999 28.4148 27.999 24.0005C27.999 19.5862 31.5847 16.0005 35.999 16.0005C40.4133 16.0005 43.999 19.5862 43.999 24.0005C43.999 28.4148 40.4133 32.0005 35.999 32.0005Z" fill="white"/>
</svg>
