<svg width="32" height="32" viewBox="0 0 32 32" fill="none" xmlns="http://www.w3.org/2000/svg">
<path fill-rule="evenodd" clip-rule="evenodd" d="M16 30C23.732 30 30 23.732 30 16C30 8.26801 23.732 2 16 2C8.26801 2 2 8.26801 2 16C2 23.732 8.26801 30 16 30ZM22.6108 14.3275C23.1297 13.795 23.1297 12.9318 22.6108 12.3993C22.0918 11.8669 21.2505 11.8669 20.7315 12.3993L14.5822 18.7085L11.2685 15.3086C10.7495 14.7762 9.90816 14.7762 9.38921 15.3086C8.87026 15.8411 8.87026 16.7043 9.38921 17.2367L13.6426 21.6007C14.1615 22.1331 15.0029 22.1331 15.5219 21.6007L22.6108 14.3275Z" fill="#416EF0"/>
</svg>
