<svg xmlns="http://www.w3.org/2000/svg" width="168" height="32" fill="none" xmlns:v="https://vecta.io/nano"><path fill-rule="evenodd" d="M7.022 7.84c1.117 0 2.023-.86 2.023-1.92S8.139 4 7.022 4 5 4.86 5 5.92s.906 1.92 2.022 1.92zM55.554 16a7.81 7.81 0 0 1-.506 2.64c-.305.883-.825 1.684-1.517 2.34-.723.707-1.581 1.277-2.528 1.68-1.182.46-2.451.684-3.729.66h-6.32l-.789.03-.354.019-.437.011c0-.06-.063-.18-.063-.24v-.18l.001-.13c.004-.085.017-.128.062-.171.064-.06.064-.06.19-.06a3.78 3.78 0 0 0 1.074-.3c.137-.053.253-.145.332-.263a.67.67 0 0 0 .102-.254c.009-.047.011-.095.009-.142v-11.4c.006-.056.006-.113-.001-.169-.01-.07-.03-.138-.06-.203a.75.75 0 0 0-.08-.13.73.73 0 0 0-.174-.158 3.7 3.7 0 0 0-1.201-.3c-.142 0-.178-.034-.212-.076l-.041-.044c-.027-.099-.048-.199-.063-.3v-.18c0-.12 0-.18.063-.24l.189.007.152.013.089.009.518.032h6.952c1.202.009 2.396.191 3.539.54.944.383 1.802.933 2.528 1.62.691.669 1.23 1.465 1.58 2.34.458.941.695 1.964.696 3zm-3.287.47c0-1.031-.151-2.057-.442-3.05a4.79 4.79 0 0 0-1.264-2.1c-.557-.556-1.253-.968-2.023-1.2a9.94 9.94 0 0 0-2.78-.42h-1.517v11.58c-.01.143.011.286.063.42l.253.24c.195.042.386.102.569.18.252 0 .568.06 1.011.06 2.022 0 3.602-.48 4.55-1.5 1.075-.978 1.58-2.41 1.58-4.21zm12.451 1.93h-4.987l-1.264 3.12a.34.34 0 0 0-.063.24V22c-.003.041.001.081.011.121s.027.085.051.124c.019.032.042.061.068.088l.049.042.047.031.027.015c.315.146.659.228 1.011.24.253 0 .316.18.316.42a1.31 1.31 0 0 1-.063.42c-.215 0-.414-.014-.62-.029l-.312-.02-.396-.011h-2.464l-1.201.06c0-.06-.063-.18-.063-.24v-.18c0-.067.004-.126.011-.176a.51.51 0 0 1 .025-.098c.042-.11.125-.169.28-.206l.328-.05.159-.037.123-.035.104-.033.185-.069.085-.036.089-.041c.047-.015.092-.035.136-.058a.77.77 0 0 0 .193-.149.73.73 0 0 0 .178-.333l5.751-12.9c.189-.24.316-.42.569-.42h.505l5.815 13.44c.03.116.093.223.181.307a.7.7 0 0 0 .323.173l.158.042.244.075.026.008.394.114c.253.06.316.18.316.48.01.143-.011.286-.063.42-.21 0-.42-.01-.628-.022l-.13-.008-.374-.02-.385-.01h-4.993c0-.014-.004-.031-.009-.049l-.022-.071c-.016-.045-.032-.09-.032-.12v-.18c0-.18 0-.24.063-.3l.19-.18.441-.087c.172-.042.341-.093.507-.153.091-.031.17-.088.227-.163.014-.019.027-.038.037-.059l.007-.015c.028-.058.043-.12.044-.184s0-.24-.064-.3l-1.143-3.18zm-.506-1.08l-2.022-5.1-2.086 5.1h4.108zm12.64 4.842v-.42l.19-11.34v-.42c0-.06.063-.12.189-.24s.316-.06.443-.18.379-.12.568-.18c.049-.02.094-.049.132-.084a.38.38 0 0 0 .121-.336v-.48l-.386.01-.357.019-.394.021-.443.011h-3.033a11.4 11.4 0 0 1-.595-.018l-.242-.014-.743-.029c-.022.032-.04.066-.051.102l-.014.063c-.002.025-.002.05 0 .074v.24c0 .24.064.36.253.42a4.63 4.63 0 0 0 .759.18.74.74 0 0 1 .442.18l.054.03.038.031.033.036c.033.042.054.091.064.142.052.134.073.277.063.42V21.76c-.012.141-.033.281-.063.42 0 .06-.064.12-.19.24-.065.062-.131.076-.205.092a.65.65 0 0 0-.237.088c-.239.102-.497.163-.759.18-.189 0-.253.18-.253.42v.222c0 .03.016.075.032.12s.032.09.032.12l1.58-.06h3.033l.428.01.409.021.743.029v-.48c0-.24-.063-.42-.253-.42-.246-.081-.5-.141-.758-.18-.165-.01-.321-.074-.442-.18-.051-.023-.094-.056-.126-.098-.014-.018-.026-.036-.036-.056-.014-.027-.023-.056-.028-.086zm8.595-.66c0 .3.253.54.695.66l1.153.142.933.038h.948c.11.014.22.018.328.011a1.68 1.68 0 0 0 .683-.191c.104-.029.205-.067.301-.113l.043-.021.084-.046.062-.037.079-.052.062-.044.128-.107a2.08 2.08 0 0 0 .568-.72 10.54 10.54 0 0 0 .506-1.14c.022-.063.052-.104.086-.13s.073-.038.114-.044.076-.005.116-.005c.089-.009.179.012.253.06.063.06.253.06.316.18a6.17 6.17 0 0 0-.316 1.62l-.093.638-.004.021-.004.021-.033.196-.12.805c0 .18-.063.3-.19.3-.074.048-.163.069-.252.06h-9.796l-1.58.06-.002-.022-.01-.042-.02-.056c-.016-.045-.032-.09-.032-.12V23.2a.39.39 0 0 1 .003-.114c.009-.048.025-.094.051-.136a.42.42 0 0 1 .2-.17c.431-.063.853-.164 1.264-.3.099-.028.189-.079.262-.147.033-.031.063-.066.089-.105a.58.58 0 0 0 .093-.408V10.6l.003-.076-.003-.053-.006-.069a.94.94 0 0 0-.058-.223c-.004-.021-.009-.041-.016-.06l-.022-.047-.025-.035c-.033-.042-.076-.075-.126-.098-.122-.106-.278-.17-.443-.18a4.62 4.62 0 0 1-.758-.18c-.19-.06-.316-.12-.316-.36v-.24c-.006-.049-.001-.099.015-.145l.016-.04.012-.023.02-.032.575.019.168.009.241.013.596.018h4.171a3.51 3.51 0 0 0 .822-.06v.48c.011.087-.007.174-.052.25s-.116.135-.201.17c-.437-.04-.876.043-1.264.24-.106.076-.19.177-.246.292a.73.73 0 0 0-.07.368v10.962zm8.09-11.1l3.792 6.9.063 4.518c0 .18-.063.36-.063.42s-.063.18-.253.24c-.063.12-.253.06-.506.18-.125.045-.252.082-.381.111l-.236.045-.096.013-.107.012c-.127 0-.127 0-.19.06s-.063.12-.063.3v.402h1.138a6.45 6.45 0 0 1 1.074-.06h2.022c.443 0 .759.06 1.201.06h1.391v-.42a.43.43 0 0 0-.064-.3.67.67 0 0 0-.189-.06 5.22 5.22 0 0 0-.554-.137l-.268-.043c-.183-.012-.36-.074-.505-.18a.63.63 0 0 0-.071-.055c-.039-.029-.085-.062-.124-.104-.022-.024-.042-.051-.058-.081a.83.83 0 0 1-.063-.42v-4.5l3.981-6.9c.05-.122.127-.233.224-.326.047-.045.099-.085.155-.119s.123-.069.19-.094c.375-.174.784-.276 1.201-.3.079 0 .136-.031.175-.085.056-.075.078-.195.078-.335v-.18l-.004-.029-.005-.025-.023-.066c-.016-.045-.032-.09-.032-.12l-.631.03-.395.025-.238.005h-2.528l-.247-.005-.151-.006-.379-.024-.339-.021-.148-.004a1.5 1.5 0 0 0-.063.42c0 .24.127.42.316.42a5.03 5.03 0 0 1 .648.142l.3.098a.46.46 0 0 1 .191.175c.044.074.067.159.062.245a1.38 1.38 0 0 1-.253.72l-2.781 4.86-2.78-5.28a1.15 1.15 0 0 1-.19-.48c0-.041.009-.082.026-.119.011-.026.026-.051.044-.073a.31.31 0 0 1 .084-.07.35.35 0 0 1 .099-.037c.099-.094.274-.114.557-.147l.264-.033c.19 0 .253-.18.253-.42v-.18c-.022-.061-.038-.123-.049-.186l-.014-.114a2.49 2.49 0 0 1-.695.06h-4.424c-.172 0-.332-.005-.48-.013l-.293-.018-.08-.005-.474-.024v.36c0 .131.012.239.042.319.037.104.104.161.21.161.205-.017.409.004.602.06a1.67 1.67 0 0 1 .41.18 1.79 1.79 0 0 1 .695.66zM113.761 23.8c-1.202-.009-2.396-.191-3.539-.54-.933-.368-1.774-.92-2.465-1.62-.641-.706-1.133-1.52-1.454-2.4a9.28 9.28 0 0 1-.505-2.94c.02-.92.19-1.83.505-2.7a7.3 7.3 0 0 1 1.517-2.46 6.45 6.45 0 0 1 2.591-1.74c1.192-.502 2.487-.748 3.792-.72.763-.005 1.524.055 2.275.18l.335.053.4.071.302.059.383.083.856.214a6.84 6.84 0 0 0 .189 1.5l.086.543.136.599.221.718a.72.72 0 0 0-.316.06h-.253l-.137-.001c-.09-.004-.135-.016-.179-.059-.017-.017-.04-.028-.063-.041-.032-.017-.066-.035-.09-.067s-.037-.07-.037-.132c-.14-.439-.33-.862-.569-1.26l-.113-.156-.123-.15a3.17 3.17 0 0 0-.522-.474l-.242-.109-.189-.082-.315-.139-.328-.15-.973-.143-.481-.037a6.93 6.93 0 0 0-2.275.42c-.669.253-1.257.667-1.707 1.2-.461.552-.804 1.184-1.011 1.86-.245.798-.352 1.629-.316 2.46.008.916.158 1.825.443 2.7.104.346.233.684.389 1.011l.202.396c.145.259.306.511.483.752A4.71 4.71 0 0 0 112.37 22a5.19 5.19 0 0 0 2.212.54 5.36 5.36 0 0 0 1.58-.18c.426-.097.83-.259 1.201-.48.322-.258.598-.561.822-.9a8.02 8.02 0 0 0 .695-1.26l.016-.049c.048-.142.065-.191.237-.191.095-.054.206-.076.316-.06h.316c.063 0 .253.06.316.06l-.051.167-.091.255-.033.095-.008.016-.133.367-.094.258-.222.702-.047.175-.033.099-.06.165-.04.113-.039.108-.04.124a1.83 1.83 0 0 0-.057.237c-.063.36-.19.66-.253.96l-1.336.215-1.002.085c-.919.151-1.85.212-2.781.18zm8.216-10.578c-.461.918-.698 1.923-.695 2.94a9.13 9.13 0 0 0 .505 3.06c.434.879 1.011 1.689 1.707 2.4.71.706 1.571 1.259 2.528 1.62 1.029.369 2.122.552 3.223.54a7.84 7.84 0 0 0 3.097-.54c.965-.375 1.845-.925 2.591-1.62a6.94 6.94 0 0 0 1.769-2.4c.46-.919.697-1.923.696-2.94.043-1.047-.151-2.09-.569-3.06-.412-.891-.99-1.704-1.707-2.4-.71-.706-1.572-1.259-2.528-1.62a9.27 9.27 0 0 0-3.223-.54 7.84 7.84 0 0 0-3.097.54c-.938.391-1.795.94-2.528 1.62-.736.694-1.335 1.506-1.769 2.4zm9.417 9c-.547.272-1.153.416-1.77.42-.321.014-.641-.018-.947-.095l-.216-.061-.209-.076c-.206-.082-.402-.185-.587-.308-.651-.419-1.19-.973-1.58-1.62-.461-.769-.801-1.598-1.011-2.46a12.14 12.14 0 0 1-.316-3.12 5.95 5.95 0 0 1 .316-2.16 4.65 4.65 0 0 1 .948-1.62c.334-.449.794-.802 1.327-1.02.313-.14.647-.232.989-.275.195-.025.392-.033.591-.025.797-.036 1.588.152 2.275.54l.218.166a6.86 6.86 0 0 1 .741.681c.227.242.434.501.621.773a7.53 7.53 0 0 1 1.011 2.4c.239.963.345 1.951.316 2.94a5.87 5.87 0 0 1-.316 2.1c-.2.612-.521 1.183-.948 1.68l-.324.335a5 5 0 0 1-1.129.805zm12.393-.3v.018.402c.009.052.031.1.064.142a.32.32 0 0 0 .057.056c.021.016.044.03.069.041.069.051.144.093.226.124.069.027.142.046.216.056a4.62 4.62 0 0 1 .758.18c.102 0 .168.053.206.139a.51.51 0 0 1 .035.122l.005.035.006.079.001.046v.48c-.505 0-1.011-.06-1.58-.06h-3.033l-1.58.06c0-.06-.064-.18-.064-.24v-.24c0-.082.007-.156.025-.22a.36.36 0 0 1 .051-.114c.04-.055.098-.087.177-.087.085-.006.17-.016.254-.03l.2-.044c.104-.028.206-.063.305-.105l.141-.039c.116-.03.208-.053.301-.141.126-.12.19-.18.19-.24a3.31 3.31 0 0 0 .063-.42V10.6c.01-.143-.011-.286-.063-.42a.33.33 0 0 0-.064-.142c-.02-.024-.043-.046-.069-.064-.018-.013-.036-.024-.057-.033a.74.74 0 0 0-.442-.18 4.63 4.63 0 0 1-.759-.18c-.189-.06-.253-.18-.253-.42v-.24c-.009-.085.013-.17.064-.24l.743.029.31.017.527.014h3.033l1.58-.06v.48c.006.045.004.09-.005.133-.005.022-.011.044-.021.064l-.026.053-.03.043-.03.034a.44.44 0 0 1-.141.093 2.3 2.3 0 0 0-.758.18c-.19.06-.316.06-.442.18l-.007.008-.071.067-.043.045c-.046.049-.069.085-.069.121v11.742zm16.11-11.22v8.04L151.94 9.1l-.019-.017-.132-.12a.4.4 0 0 0-.292-.103 3.83 3.83 0 0 0-.948-.06h-3.16v.402c0 .165.031.273.111.344.036.032.083.057.142.076a2.52 2.52 0 0 1 .669.124 2.45 2.45 0 0 1 .406.176.65.65 0 0 1 .105.093.58.58 0 0 1 .096.145c.013.028.024.057.032.086l.013.056c.01.053.012.106.006.16V22a.7.7 0 0 1-.04.36c-.044.115-.117.218-.212.3-.389.138-.791.238-1.201.3-.127 0-.127 0-.19.06s-.063.12-.063.3v.18c0 .06.063.18.063.24.379 0 .759-.06 1.201-.06h2.528c.144 0 .289.013.446.026l.181.015.251.015.196.004c.044-.136.065-.278.064-.42.009-.053.006-.106-.005-.157-.007-.031-.017-.061-.03-.09l-.029-.053a.66.66 0 0 0-.189-.06 4.64 4.64 0 0 0-.759-.18c-.161-.023-.314-.085-.442-.18-.024-.011-.046-.024-.067-.039s-.042-.037-.059-.059-.036-.052-.047-.081l-.017-.061v-10.2l9.48 11.34a4.37 4.37 0 0 1 .443.3c.063.06.253.06.316.06h.632v-13.2a.69.69 0 0 1 .04-.36c.044-.115.117-.218.213-.3.336-.161.7-.262 1.074-.3.104 0 .169-.053.207-.14.032-.073.046-.17.046-.28v-.42c-.158 0-.348.015-.538.03l-.217.017-.32.013h-2.654c-.401.01-.802-.01-1.201-.06-.063.06-.063.12-.063.24v.18a.39.39 0 0 0 .078.264c.058.077.142.132.238.155.441.004.873.107 1.264.3a.81.81 0 0 1 .247.314c.029.067.049.137.059.209.009.059.01.119.004.179zM9.045 10.96c0 1.06-.906 1.92-2.023 1.92S5 12.02 5 10.96s.906-1.92 2.022-1.92 2.023.86 2.023 1.92zm-2.023 6.96c1.117 0 2.023-.86 2.023-1.92s-.906-1.92-2.023-1.92S5 14.94 5 16s.906 1.92 2.022 1.92zm2.023 3.12c0 1.06-.906 1.92-2.023 1.92S5 22.1 5 21.04s.906-1.92 2.022-1.92 2.023.86 2.023 1.92zM7.022 28c1.117 0 2.023-.86 2.023-1.92s-.906-1.92-2.023-1.92S5 25.02 5 26.08 5.906 28 7.022 28zM12.33 7.84c1.117 0 2.023-.86 2.023-1.92S13.447 4 12.33 4s-2.022.86-2.022 1.92.906 1.92 2.022 1.92zm2.023 3.12c0 1.06-.906 1.92-2.023 1.92s-2.022-.86-2.022-1.92.906-1.92 2.022-1.92 2.023.86 2.023 1.92zm-2.023 6.96c1.117 0 2.023-.86 2.023-1.92s-.906-1.92-2.023-1.92-2.022.86-2.022 1.92.906 1.92 2.022 1.92zm2.023 3.12c0 1.06-.906 1.92-2.023 1.92s-2.022-.86-2.022-1.92.906-1.92 2.022-1.92 2.023.86 2.023 1.92zM12.33 28c1.117 0 2.023-.86 2.023-1.92s-.906-1.92-2.023-1.92-2.022.86-2.022 1.92S11.214 28 12.33 28zm7.332-22.08c0 1.06-.906 1.92-2.023 1.92s-2.022-.86-2.022-1.92S16.523 4 17.639 4s2.023.86 2.023 1.92zm-2.023 6.96c1.117 0 2.023-.86 2.023-1.92s-.906-1.92-2.023-1.92-2.022.86-2.022 1.92.906 1.92 2.022 1.92zM19.662 16c0 1.06-.906 1.92-2.023 1.92s-2.022-.86-2.022-1.92.906-1.92 2.022-1.92 2.023.86 2.023 1.92zm-2.023 6.96c1.117 0 2.023-.86 2.023-1.92s-.906-1.92-2.023-1.92-2.022.86-2.022 1.92.906 1.92 2.022 1.92zm7.332-12c0 1.06-.906 1.92-2.023 1.92s-2.022-.86-2.022-1.92.906-1.92 2.022-1.92 2.023.86 2.023 1.92zm-2.023 6.96c1.117 0 2.023-.86 2.023-1.92s-.906-1.92-2.023-1.92-2.022.86-2.022 1.92.906 1.92 2.022 1.92zm2.023 3.12c0 1.06-.906 1.92-2.023 1.92s-2.022-.86-2.022-1.92.906-1.92 2.022-1.92 2.023.86 2.023 1.92zM17.639 28c1.117 0 2.023-.86 2.023-1.92s-.906-1.92-2.023-1.92-2.022.86-2.022 1.92.906 1.92 2.022 1.92zm12.641-1.92c0 1.06-.906 1.92-2.023 1.92s-2.022-.86-2.022-1.92.906-1.92 2.022-1.92 2.023.86 2.023 1.92z" fill="#000"/></svg>