<svg xmlns="http://www.w3.org/2000/svg" width="32" height="32" fill="none" xmlns:v="https://vecta.io/nano"><path fill-rule="evenodd" d="M24.003 4l.108.005.106.014c.213.037.416.13.581.277l2.87 2.566c.441.394.441 1.034 0 1.428a1.23 1.23 0 0 1-1.598 0l-.942-.842v6.542c0 .558-.506 1.01-1.13 1.01s-1.13-.452-1.13-1.01V7.449l-.941.841a1.23 1.23 0 0 1-1.598 0c-.441-.394-.441-1.034 0-1.428l2.85-2.548c.206-.194.497-.314.819-.314h.004zM4.184 6.396c-.139.14-.139.346 0 .487.199.201.546.435 1.067.657 1.034.44 2.538.739 4.255.739s3.221-.299 4.255-.739c.52-.222.867-.456 1.067-.657.118-.118.157-.196.17-.231.002-.017.002-.021.001-.024-.012-.034-.051-.112-.17-.232-.199-.201-.546-.435-1.067-.657C12.727 5.299 11.223 5 9.506 5s-3.221.299-4.255.739c-.52.222-.867.456-1.067.657zM15 9.981c0-.214-.226-.354-.422-.27-1.353.576-3.146.906-5.072.906s-3.719-.33-5.072-.906c-.198-.084-.425.057-.425.272v2.69c0 .138.018.278.108.383l.067.072c.199.2.546.435 1.067.656 1.034.44 2.538.739 4.255.739s3.221-.299 4.255-.739c.52-.222.867-.456 1.067-.656.137-.138.172-.336.172-.531V9.981zM4.01 25.358v-.304-.004-2.584c0-.215.227-.356.425-.272 1.353.576 3.146.906 5.072.906l.313-.003c.394-.007.716.324.716.719a8.26 8.26 0 0 0 .141 1.524c.151.808-.349 1.66-1.171 1.66-1.717 0-3.221-.299-4.255-.739-.52-.221-.867-.456-1.067-.656-.142-.143-.17-.226-.175-.247zm10.754-8.573c.143-.07.236-.213.236-.372v-.186c0-.214-.226-.354-.422-.27-1.353.576-3.146.906-5.072.906s-3.719-.33-5.072-.906c-.198-.084-.425.057-.425.272v2.684c0 .138.018.277.108.382l.067.072c.199.201.546.435 1.067.657 1.034.44 2.538.739 4.255.739l.496-.008c.72-.024 1.317-.51 1.69-1.126.746-1.232 1.812-2.223 3.072-2.842zM18.5 29a5.5 5.5 0 1 0 0-11 5.5 5.5 0 1 0 0 11z" fill="#416ef0"/></svg>