<svg width="24" height="24" viewBox="0 0 24 24" fill="none" xmlns="http://www.w3.org/2000/svg">
<path fill-rule="evenodd" clip-rule="evenodd" d="M9 3H18C20.2091 3 22 4.79086 22 7V14C22 16.2091 20.2091 18 18 18H17.7885C17.3322 19.1702 16.1879 20 14.8485 20H5.15152C3.41098 20 2 18.5988 2 16.8704V10.1296C2 8.45162 3.32983 7.08206 5 7.00355V7C5 4.79086 6.79086 3 9 3ZM7 7H14.8485C16.589 7 18 8.40118 18 10.1296V16C19.1046 16 20 15.1046 20 14V7C20 5.89543 19.1046 5 18 5H9C7.89543 5 7 5.89543 7 7ZM13.8545 12.2381C14.2452 11.869 14.2765 11.2366 13.9248 10.826C13.5751 10.4154 12.9777 10.3822 12.5869 10.7518L8.85916 14.2653L7.45228 13.1124C7.04393 12.7672 6.44848 12.837 6.12025 13.2686C5.79396 13.6998 5.86034 14.3292 6.26868 14.6739L8.30447 16.3571C8.51157 16.5319 8.76923 16.6017 9.01736 16.5681C9.20297 16.5432 9.38255 16.4601 9.52908 16.3195L13.8545 12.2381Z" fill="#3CBE78"/>
</svg>
