<svg xmlns="http://www.w3.org/2000/svg" width="32" height="32" fill="#416ef0" fill-rule="evenodd" xmlns:v="https://vecta.io/nano"><path d="M16 6a10 10 0 1 0 0 20 10 10 0 1 0 0-20zm3.252 6.207l-1.814-3.389-1.771 3.389h.693v7.175c0 .499-.362.833-.866.833s-.866-.364-.866-.833v-4.604h.691l-1.771-3.431-1.771 3.431h.656v4.741c0 .775.307 1.43.852 1.889s1.307.706 2.209.706c.887 0 1.638-.251 2.207-.692l.006-.005c.58-.486.848-1.126.848-1.898v-7.312h.697zM28 24a1 1 0 0 0-1 1v2h-2a1 1 0 1 0 0 2h3a1 1 0 0 0 1-1v-3a1 1 0 0 0-1-1zM4 24a1 1 0 0 1 1 1v2h2a1 1 0 1 1 0 2H4a1 1 0 0 1-1-1v-3a1 1 0 0 1 1-1zM4 8a1 1 0 0 0 1-1V5h2a1 1 0 1 0 0-2H4a1 1 0 0 0-1 1v3a1 1 0 0 0 1 1zm24 0a1 1 0 0 1-1-1V5h-2a1 1 0 1 1 0-2h3a1 1 0 0 1 1 1v3a1 1 0 0 1-1 1z"/></svg>