<?xml version="1.0" encoding="UTF-8"?>
<svg id="Layer_1" data-name="Layer 1" xmlns="http://www.w3.org/2000/svg" viewBox="0 0 88 88">
  <defs>
    <style>
      .cls-1 {
        fill: #fff;
      }
    </style>
  </defs>
  <path class="cls-1" d="M76.24,48.58h-4.69c-.84,0-1.62.31-2.18.9-.62.62-.99,1.52-.9,2.49.12,1.62,1.62,2.83,3.26,2.83h4.54c.87-.03,1.52-.71,1.52-1.55v-3.11c0-.84-.65-1.52-1.55-1.55Z"/>
  <path class="cls-1" d="M19.53,31.52v-2.08c0-1.77,1.06-3.33,2.7-3.95l28.52-9.29c.16-.06.31-.09.47-.09.5,0,1.24.4,1.24,1.24v11.81h4.66v-11.81c0-3.39-2.8-5.91-5.91-5.91-.68,0-1.4.12-2.08.37l-28.55,9.32c-3.45,1.31-5.72,4.6-5.72,8.3v16.94c0,1.18,1.24,1.93,2.36,1.55,1.74-.59,3.57-.9,5.41-.9,9.42,0,17.09,7.68,17.09,17.09,0,2.24-.59,4.69-1.52,6.87-.5,1.12.28,2.46,1.49,2.46h26.4c6.43,0,11.69-5.25,11.69-11.69v-.59c0-1.71-1.4-3.11-3.11-3.11h-2.7c-2.98,0-5.84-1.83-6.62-4.72-.62-2.36.12-4.66,1.68-6.15,1.15-1.18,2.73-1.86,4.48-1.86h3.17c1.71,0,3.11-1.4,3.11-3.11v-1.37c0-6.43-5.25-11.69-11.69-11.69h-8.98s-4.66,0-4.66,0h0s-25.91,0-25.91,0c-2.64,0-5.07.87-7.02,2.36h0M54.48,44.7h-19.41c-1.27,0-2.33-1.06-2.33-2.33s1.06-2.33,2.33-2.33h19.41c1.27,0,2.33,1.06,2.33,2.33s-1.06,2.33-2.33,2.33Z"/>
  <path class="cls-1" d="M22.64,51.69c-2.92,0-5.63,1.03-7.77,2.73-2.86,2.27-4.66,5.78-4.66,9.7,0,2.33.65,4.54,1.8,6.4,2.14,3.61,6.09,6.03,10.63,6.03,3.14,0,6-1.15,8.17-3.11.96-.81,1.8-1.8,2.46-2.92,1.15-1.86,1.8-4.07,1.8-6.4,0-6.87-5.56-12.43-12.43-12.43ZM29.43,62.74l-6.55,6.54c-.34.34-.78.52-1.26.52s-.93-.19-1.26-.52l-3.28-3.28c-.34-.34-.52-.78-.52-1.26s.19-.92.52-1.26c.69-.69,1.82-.69,2.51,0l2.02,2.02,5.3-5.3c.69-.69,1.82-.69,2.51,0,.7.7.71,1.84.02,2.53Z"/>
</svg>