<?xml version="1.0" encoding="UTF-8"?>
<svg id="Layer_1" data-name="Layer 1" xmlns="http://www.w3.org/2000/svg" viewBox="0 0 88 88">
  <defs>
    <style>
      .cls-1 {
        fill: #fff;
      }
    </style>
  </defs>
  <path class="cls-1" d="M68.89,10.17h-12.81c-2.7,0-5.18.92-7.16,2.46h8.29c10.41,0,18.88,8.47,18.88,18.88v12.37c2.73-2.14,4.49-5.46,4.49-9.2v-12.81c0-6.46-5.24-11.7-11.7-11.7Z"/>
  <path class="cls-1" d="M57.36,17.58h-16.15c-3.12,0-5.98,1.07-8.27,2.85h8.37c16.03,0,23.49,7.47,23.49,23.49v14.54c3.64-2.42,6.04-6.55,6.04-11.24v-16.15c0-7.45-6.04-13.49-13.49-13.49Z"/>
  <path class="cls-1" d="M41.32,25.65h-15.65c-13.04,0-18.26,5.22-18.26,18.26v15.65c0,13.04,5.22,18.26,18.26,18.26h15.65c13.04,0,18.26-5.22,18.26-18.26v-15.65c0-13.04-5.22-18.26-18.26-18.26ZM45.76,46.71l-13.83,13.83c-.52.52-1.19.78-1.9.78s-1.38-.26-1.9-.78l-6.93-6.93c-1.04-1.04-1.04-2.72,0-3.76.52-.52,1.2-.78,1.88-.78s1.36.26,1.88.78l5.03,5.03,11.96-11.96c.52-.52,1.2-.78,1.88-.78s1.36.26,1.88.78c1.04,1.04,1.08,2.76.04,3.8Z"/>
</svg>