<?xml version="1.0" encoding="UTF-8"?>
<svg id="Layer_1" data-name="Layer 1" xmlns="http://www.w3.org/2000/svg" viewBox="0 0 88 88">
  <defs>
    <style>
      .cls-1 {
        fill: #fff;
      }
    </style>
  </defs>
  <path class="cls-1" d="M44,25.37c-10.08,0-18.27,8.2-18.27,18.27s8.2,18.27,18.27,18.27,18.27-8.2,18.27-18.28-8.2-18.27-18.27-18.27ZM48.42,38.91v10.62c0,1.12-.39,2.05-1.23,2.76h0c-.83.65-1.92,1.01-3.21,1.01s-2.42-.36-3.21-1.03c-.79-.67-1.24-1.62-1.24-2.74v-6.88h-.95l2.57-4.98,2.57,4.98h-1v6.68c0,.68.53,1.21,1.26,1.21s1.26-.49,1.26-1.21v-10.42h-1.01l2.57-4.92,2.63,4.92h-1.01Z"/>
  <g>
    <path class="cls-1" d="M64.63,23.35c1.33,1.33,3.1,2.07,4.99,2.07s3.65-.73,4.99-2.07c1.33-1.33,2.07-3.1,2.07-4.99s-.73-3.65-2.07-4.99c-2.37-2.37-6.11-2.74-8.9-.88l-.32.22-.33-.21c-1.19-.76-5.36-3.33-9.06-4.54-7.63-2.58-16.37-2.58-24,0-.44.15-.8.46-1,.88-.21.42-.24.89-.09,1.33.31.91,1.29,1.4,2.2,1.09,3.51-1.19,7.19-1.78,10.88-1.78s7.39.6,10.91,1.79c3.05,1,6.53,3.07,7.89,3.92l.41.26-.17.45c-.97,2.59-.34,5.51,1.6,7.45Z"/>
    <path class="cls-1" d="M22.53,75.32l.32.19c2.66,1.61,6.52,3.62,9.16,4.49,3.85,1.3,7.88,1.96,12,1.96s8.15-.66,11.99-1.96c.44-.15.8-.46,1-.88.21-.42.24-.89.09-1.33-.31-.91-1.3-1.39-2.2-1.09h0c-7.02,2.37-14.76,2.37-21.79,0-2.31-.76-5.7-2.54-7.9-3.83l-.43-.26.18-.47c1-2.61.38-5.56-1.58-7.53-2.75-2.75-7.22-2.75-9.97,0-1.33,1.33-2.07,3.1-2.07,4.99s.73,3.65,2.07,4.98c2.34,2.34,6.05,2.73,8.82.93l.31-.2Z"/>
    <path class="cls-1" d="M80.01,32c-.15-.44-.46-.8-.88-1-.41-.2-.88-.23-1.32-.08-.91.31-1.4,1.29-1.09,2.2,1.18,3.48,1.77,7.14,1.77,10.88s-.6,7.41-1.78,10.9c-.72,2.19-2.2,5.39-3.69,7.94l-.26.45-.48-.2c-.87-.36-1.78-.53-2.68-.53-1.83,0-3.63.72-4.98,2.07-1.33,1.33-2.07,3.1-2.07,4.99s.73,3.65,2.07,4.98c1.33,1.33,3.1,2.07,4.99,2.07s3.65-.73,4.99-2.07c2.31-2.31,2.72-5.87,1.01-8.66l-.19-.31.19-.31c1.71-2.8,3.52-6.63,4.4-9.32,1.3-3.84,1.96-7.88,1.96-12s-.66-8.16-1.96-11.99Z"/>
    <path class="cls-1" d="M23.37,13.38c-1.33-1.33-3.1-2.07-4.99-2.07s-3.65.73-4.98,2.07c-2.34,2.33-2.73,6.04-.93,8.81l.2.31-.19.32c-1.6,2.63-3.6,6.49-4.48,9.17-1.3,3.84-1.96,7.87-1.96,12s.66,8.16,1.96,11.99c.3.88,1.27,1.4,2.21,1.09.9-.31,1.39-1.29,1.08-2.2-1.18-3.47-1.77-7.14-1.77-10.88s.6-7.41,1.78-10.9c.77-2.35,2.54-5.72,3.82-7.9l.26-.43.47.18c2.61,1.01,5.56.39,7.53-1.58,2.75-2.75,2.75-7.22,0-9.97Z"/>
  </g>
</svg>