<svg width="24" height="24" viewBox="0 0 24 24" fill="none" xmlns="http://www.w3.org/2000/svg">
<path fill-rule="evenodd" clip-rule="evenodd" d="M12 2C6.47715 2 2 6.47715 2 12C2 17.5228 6.47715 22 12 22C17.5228 22 22 17.5228 22 12C22 6.47715 17.5228 2 12 2ZM12.75 7.71429C12.75 7.3198 12.4142 7 12 7C11.5858 7 11.25 7.3198 11.25 7.71429V7.98806C10.105 8.19723 9.17833 9.07845 9.00743 10.2337C9.00172 10.2723 8.99936 10.3106 9.00015 10.3483C9.0075 11.4023 9.79112 12.3077 10.8778 12.5146L12.8283 12.8862C13.2024 12.9574 13.4761 13.2601 13.4986 13.6188C13.3767 14.2503 12.764 14.6909 12.0881 14.6239C12.0723 14.6222 12.0563 14.6209 12.0403 14.6201C12.017 14.6189 11.9937 14.6187 11.9704 14.6196L11.9502 14.6206C11.3538 14.6534 10.7948 14.3417 10.533 13.83C10.3516 13.4754 9.90268 13.3279 9.53031 13.5007C9.15793 13.6735 9.00314 14.1011 9.18456 14.4557C9.59382 15.2557 10.364 15.8128 11.25 15.9906V16.2857C11.25 16.6802 11.5858 17 12 17C12.4142 17 12.75 16.6802 12.75 16.2857V16.0119C13.8904 15.8037 14.8142 14.9288 14.9906 13.7805C14.9969 13.7434 15.0001 13.7054 15.0001 13.6667C15.0001 12.6063 14.2142 11.6933 13.1224 11.4853L11.1719 11.1138C10.7978 11.0425 10.5241 10.7399 10.5016 10.3811C10.6233 9.75072 11.2343 9.31046 11.9089 9.37573C11.9387 9.37918 11.9691 9.38095 12 9.38095C12.0174 9.38095 12.0346 9.38039 12.0517 9.37928C12.6475 9.34719 13.2056 9.65874 13.4672 10.17C13.6486 10.5246 14.0975 10.672 14.4699 10.4993C14.8423 10.3265 14.9971 9.89892 14.8156 9.54428C14.4063 8.7442 13.6361 8.18713 12.75 8.00931V7.71429Z" fill="#416EF0"/>
</svg>
