<svg width="24" height="25" viewBox="0 0 24 25" fill="none" xmlns="http://www.w3.org/2000/svg">
<path d="M23.9995 12.1586C23.9995 15.338 23.4667 17.9169 22.8092 17.9169C22.1517 17.9169 21.6191 15.3387 21.6191 12.1586C21.6191 8.97863 22.152 6.40039 22.8092 6.40039C23.4665 6.40039 23.9995 8.9784 23.9995 12.1586Z" fill="white"/>
<path d="M20.9632 12.1592C20.9632 15.7085 19.4479 18.587 17.5788 18.587C15.7096 18.587 14.1943 15.7085 14.1943 12.1592C14.1943 8.60988 15.7094 5.73145 17.5785 5.73145C19.4477 5.73145 20.9629 8.60896 20.9629 12.1592" fill="white"/>
<path d="M13.5374 12.1588C13.5374 15.9295 10.5069 18.9862 6.76884 18.9862C3.03073 18.9862 0 15.9288 0 12.1588C0 8.38873 3.0305 5.33105 6.76884 5.33105C10.5072 5.33105 13.5374 8.38804 13.5374 12.1588Z" fill="white"/>
</svg>
