<svg width="24" height="25" viewBox="0 0 24 25" fill="none" xmlns="http://www.w3.org/2000/svg">
<path fill-rule="evenodd" clip-rule="evenodd" d="M12.0059 4.13219C14.6793 4.13219 14.9959 4.14391 16.0473 4.19079C17.0244 4.23377 17.5521 4.39786 17.9038 4.53461C18.369 4.71433 18.7051 4.93313 19.053 5.28085C19.4047 5.63248 19.6197 5.96458 19.7995 6.42951C19.9363 6.78114 20.1004 7.3125 20.1434 8.28534C20.1903 9.34024 20.2021 9.6567 20.2021 12.3252C20.2021 14.9976 20.1903 15.3141 20.1434 16.365C20.1004 17.3418 19.9363 17.8692 19.7995 18.2209C19.6197 18.6858 19.4008 19.0218 19.053 19.3695C18.7012 19.7212 18.369 19.9361 17.9038 20.1158C17.5521 20.2525 17.0205 20.4166 16.0473 20.4596C14.992 20.5065 14.6754 20.5182 12.0059 20.5182C9.33242 20.5182 9.01583 20.5065 7.96443 20.4596C6.9873 20.4166 6.45964 20.2525 6.10788 20.1158C5.64276 19.9361 5.30662 19.7173 4.95876 19.3695C4.607 19.0179 4.39203 18.6858 4.21223 18.2209C4.07543 17.8692 3.91128 17.3379 3.86828 16.365C3.82138 15.3102 3.80965 14.9937 3.80965 12.3252C3.80965 9.6528 3.82138 9.33633 3.86828 8.28534C3.91128 7.30859 4.07543 6.78114 4.21223 6.42951C4.39203 5.96458 4.6109 5.62857 4.95876 5.28085C5.31053 4.92922 5.64276 4.71433 6.10788 4.53461C6.45964 4.39786 6.99121 4.23377 7.96443 4.19079C9.01583 4.14391 9.33242 4.13219 12.0059 4.13219ZM12.0059 2.33105C9.28943 2.33105 8.94938 2.34278 7.88235 2.38966C6.81923 2.43654 6.08833 2.60845 5.45515 2.85459C4.79461 3.11246 4.23569 3.45237 3.68067 4.01107C3.12175 4.56587 2.78171 5.12457 2.52374 5.78095C2.27751 6.41779 2.10553 7.14449 2.05863 8.2072C2.01173 9.27772 2 9.61763 2 12.333C2 15.0484 2.01173 15.3883 2.05863 16.4549C2.10553 17.5176 2.27751 18.2482 2.52374 18.8812C2.78171 19.5414 3.12175 20.1002 3.68067 20.6549C4.23569 21.2097 4.79461 21.5536 5.45124 21.8075C6.08833 22.0537 6.81532 22.2256 7.87844 22.2724C8.94548 22.3193 9.28552 22.3311 12.002 22.3311C14.7184 22.3311 15.0584 22.3193 16.1255 22.2724C17.1886 22.2256 17.9195 22.0537 18.5527 21.8075C19.2093 21.5536 19.7682 21.2097 20.3232 20.6549C20.8782 20.1002 21.2222 19.5414 21.4763 18.8851C21.7225 18.2482 21.8945 17.5215 21.9414 16.4588C21.9883 15.3922 22 15.0523 22 12.3369C22 9.62154 21.9883 9.28163 21.9414 8.21502C21.8945 7.15231 21.7225 6.4217 21.4763 5.78876C21.23 5.12457 20.89 4.56587 20.3311 4.01107C19.776 3.45627 19.2171 3.11246 18.5605 2.8585C17.9234 2.61236 17.1964 2.44045 16.1333 2.39357C15.0623 2.34278 14.7223 2.33105 12.0059 2.33105ZM12.0058 7.19533C9.16824 7.19533 6.86611 9.49657 6.86611 12.3331C6.86611 15.1695 9.16824 17.4708 12.0058 17.4708C14.8434 17.4708 17.1456 15.1695 17.1456 12.3331C17.1456 9.49657 14.8434 7.19533 12.0058 7.19533ZM12.0058 15.6657C10.1649 15.6657 8.67186 14.1733 8.67186 12.3331C8.67186 10.4929 10.1649 9.00037 12.0058 9.00037C13.8468 9.00037 15.3398 10.4929 15.3398 12.3331C15.3398 14.1733 13.8468 15.6657 12.0058 15.6657ZM17.3489 8.1916C18.0094 8.1916 18.5488 7.65634 18.5488 6.99215C18.5488 6.33186 18.0094 5.79269 17.3489 5.79269C16.6883 5.79269 16.1489 6.32795 16.1489 6.99215C16.1489 7.65243 16.6844 8.1916 17.3489 8.1916Z" fill="white"/>
</svg>
