<svg xmlns="http://www.w3.org/2000/svg" width="25" height="24" fill="none" xmlns:v="https://vecta.io/nano"><path d="M20.92 2H3.877C3.061 2 2.4 2.645 2.4 3.441v17.113c0 .797.66 1.445 1.477 1.445H20.92c.816 0 1.481-.648 1.481-1.441V3.441C22.4 2.645 21.736 2 20.92 2zM8.334 19.043H5.365V9.496h2.969v9.547zM6.85 8.195a1.72 1.72 0 0 1-1.723-1.719 1.72 1.72 0 1 1 3.441 0A1.72 1.72 0 0 1 6.85 8.195zm12.594 10.848h-2.965v-4.641c0-1.105-.02-2.531-1.543-2.531-1.543 0-1.777 1.207-1.777 2.453v4.719h-2.961V9.496h2.844v1.305h.039c.395-.75 1.363-1.543 2.805-1.543 3.004 0 3.559 1.977 3.559 4.547v5.238z" fill="#212529"/></svg>