<svg xmlns="http://www.w3.org/2000/svg" width="32" height="32" fill="none" xmlns:v="https://vecta.io/nano"><path fill-rule="evenodd" d="M16 3C8.82 3 3 8.82 3 16s5.82 13 13 13 13-5.82 13-13S23.18 3 16 3zm-5.273 7.109C11.124 9.418 11.864 9 12.657 9h6.687c.793 0 1.533.418 1.93 1.109l2.437 4.237c.199.346.294.728.289 1.108v.012a.79.79 0 0 1-.002.056c-.021.496-.213.981-.563 1.368l-5.781 6.38a2.23 2.23 0 0 1-3.308 0l-5.781-6.38c-.35-.386-.541-.871-.563-1.366A.79.79 0 0 1 8 15.466v-.014c-.004-.378.091-.76.29-1.105l2.437-4.237zm9.205.775l2.189 3.806h-8.099-4.142l2.189-3.806c.115-.2.337-.332.588-.332h6.687c.251 0 .473.133.588.332zm-4.439 11.343l-5.423-5.985h4.464 7.397l-5.423 5.985c-.125.139-.31.222-.508.222s-.382-.083-.508-.222z" fill="#416ef0"/></svg>