<svg xmlns="http://www.w3.org/2000/svg" width="168" height="32" fill="none" xmlns:v="https://vecta.io/nano"><path fill-rule="evenodd" d="M118.261 4l-7.378 4.786h2.049l-6.797 10.643V8.75h-3.314l-6.798 10.679V8.75h-3.825v18.786h3.313l6.798-10.679v10.679h3.279l11.99-18.75h1.844L118.261 4zM26.067 8.75l-6.798 10.679V8.75H15.99L4 27.536h4.645l6.798-10.679v10.679h3.313l6.798-10.679v10.679h3.826V8.75h-3.314zm35.902.036h-3.826l-3.279 18.75h3.826l1.127-6.5h.068l2.46 6.5h4.338l-3.347-7.571 5.875-5.929h-4.543l-4.406 4.893h-.069l1.777-10.143zm-17.797 18.75h-3.826l.239-1.464h-.069C39.628 27.393 37.92 28 36.417 28c-4.065 0-5.841-3.357-5.158-7.25.751-4.429 4.27-7.214 7.72-7.214 2.084 0 3.074 1.071 3.416 1.893h.069L42.702 14h3.826l-2.356 13.536zm-6.456-3.286c2.425 0 3.587-2.143 3.825-3.429.274-1.643-.444-3.428-2.63-3.428s-3.519 1.964-3.757 3.464c-.274 1.25.239 3.393 2.562 3.393zm10.896-10.214h3.621l-.239 1.429h.069c.41-.643 1.332-1.893 3.552-1.893l-.717 4.072c-1.776.071-3.074.428-3.45 2.5l-1.298 7.429h-3.825l2.288-13.536zm31.529 9.286c-.889 1.5-1.981 2.679-3.211 3.429-1.196.786-2.562 1.214-3.86 1.214-3.689 0-6.251-3.143-5.533-7.143.649-3.75 4.099-7.25 7.993-7.25s6.183 3.25 5.465 7.393a4.25 4.25 0 0 1-.075.431l-.025.1c-.013.052-.027.101-.042.148l-.069.208-.062.184h-9.599c-.069 1.607 1.059 2.536 2.562 2.536 1.195 0 1.913-.571 2.562-1.286h3.894v.036zm-2.699-4.036c-.034-.786-.512-2.321-2.494-2.321s-3.006 1.5-3.313 2.321h5.807zm44.372 8.25h3.826L127.997 14h-3.826l-.239 1.429h-.068c-.342-.821-1.333-1.893-3.416-1.893-3.45 0-6.969 2.786-7.72 7.214-.683 3.893 1.093 7.25 5.158 7.25 1.503 0 3.211-.607 4.099-1.929h.069l-.24 1.464zm1.196-6.714c-.239 1.286-1.401 3.429-3.826 3.429-2.289 0-2.801-2.143-2.562-3.393.239-1.5 1.571-3.464 3.758-3.464s2.903 1.786 2.63 3.428zm27.122 1.572c-1.23 3.071-4.236 5.571-7.72 5.571-3.894 0-6.285-3.214-5.602-7.214.717-3.964 4.202-7.179 8.027-7.179 3.416 0 5.739 2.357 5.773 5.679h-3.894c-.239-.929-.854-1.893-2.425-1.893-1.811-.071-3.314 1.5-3.656 3.429-.341 1.964.616 3.429 2.426 3.429 1.571 0 2.527-.964 3.075-1.821h3.996zm7.446-13.607h-3.825l-3.212 18.786h3.826l1.298-7.5c.103-.678.445-2.678 2.596-2.678 2.024 0 1.684 2.124 1.575 2.796l-.004.025-1.297 7.357h3.825l1.333-7.536c.409-2.393.512-3.607-.342-4.929-.649-1.036-2.015-1.5-3.245-1.5-1.332 0-2.733.464-3.587 1.679h-.068l1.127-6.5zm-69.308 5.25h2.425l-.615 3.071h-2.426l-1.844 10.429h-3.826l1.845-10.429H81.95l.546-3.071h.069c1.434-.143 2.459-.679 2.767-2.429l.273-1.536h3.382l-.717 3.964zm46.934 0h2.425l-.614 3.071h-2.426l-1.844 10.429h-3.826l1.844-10.429h-1.878l.546-3.071h.069c1.434-.143 2.459-.679 2.766-2.429l.273-1.536h3.382l-.717 3.964z" fill="#000"/></svg>