<svg xmlns="http://www.w3.org/2000/svg" width="72" height="72" fill="none" xmlns:v="https://vecta.io/nano"><path d="M0 24C0 12.686 0 7.029 3.515 3.515S12.686 0 24 0h24c11.314 0 16.971 0 20.485 3.515S72 12.686 72 24v24c0 11.314 0 16.971-3.515 20.485S59.314 72 48 72H24c-11.314 0-16.971 0-20.485-3.515S0 59.314 0 48V24z" fill="#ff5f37"/><path d="M18 26a8 8 0 0 1 8-8h20a8 8 0 0 1 8 8v9.584A13.36 13.36 0 0 0 47.653 34a13.67 13.67 0 0 0-3.72.513 3.79 3.79 0 0 0-1.355-2.25l-4.291-3.433a3.79 3.79 0 0 0-4.734 0l-4.13 3.304A3.79 3.79 0 0 0 28 35.093v5.959A2.95 2.95 0 0 0 30.947 44h3.547A13.67 13.67 0 0 0 34 47.653c0 2.313.559 4.468 1.55 6.347H26a8 8 0 0 1-8-8V26zm37.767 28.065a1 1 0 0 1-.129-1.255c.995-1.518 1.553-3.15 1.553-5.103 0-5.331-4.206-9.706-9.538-9.706S38 42.322 38 47.653s4.165 9.452 9.496 9.452c1.953 0 3.83-.507 5.348-1.502a1 1 0 0 1 1.255.129l3.888 3.924a1.18 1.18 0 0 0 1.667 0 1.18 1.18 0 0 0 0-1.667l-3.888-3.923zM47.5 55a7.5 7.5 0 1 0 0-15 7.5 7.5 0 1 0 0 15zm.643-11.357c0-.355-.288-.643-.643-.643s-.643.288-.643.643c0 1.775-1.439 3.214-3.214 3.214-.355 0-.643.288-.643.643s.288.643.643.643c1.775 0 3.214 1.439 3.214 3.214 0 .355.288.643.643.643s.643-.288.643-.643c0-1.775 1.439-3.214 3.214-3.214.355 0 .643-.288.643-.643s-.288-.643-.643-.643c-1.775 0-3.214-1.439-3.214-3.214z" fill-rule="evenodd" fill="#fff"/></svg>