<svg width="24" height="24" viewBox="0 0 24 24" fill="none" xmlns="http://www.w3.org/2000/svg">
<path fill-rule="evenodd" clip-rule="evenodd" d="M13.2294 6.06125C13.6052 5.56982 14.35 5.55591 14.7443 6.03636L14.745 6.03716C14.893 6.21706 14.9727 6.44245 14.9727 6.6738V10.0531C14.9727 10.5182 15.3414 10.8952 15.7963 10.8952H18.984C19.3346 10.8952 19.656 11.0713 19.8443 11.3534L20.183 11.8607C20.3487 12.1095 20.3948 12.4162 20.3138 12.6974L18.9145 17.5758C18.7913 18.0052 18.3934 18.3158 17.9245 18.3158H11.4491C11.1574 18.3158 10.8824 18.1937 10.69 17.9859L9.64706 16.8596V10.7412L13.2294 6.06125ZM11.9322 5.0235C12.9547 3.68677 14.94 3.65525 16.0057 4.9534C16.4032 5.43668 16.6198 6.04583 16.6198 6.6738V9.211H18.984C19.8709 9.211 20.7051 9.65536 21.2047 10.404L21.5436 10.9115C21.9851 11.5737 22.1157 12.402 21.8941 13.1722L20.495 18.0499C20.1611 19.2135 19.1071 20 17.9245 20H11.4491C10.7112 20 10.0018 19.6923 9.49401 19.1438L8.92824 18.5328C8.695 19.3787 7.92005 20 7 20H4C2.89543 20 2 19.1046 2 18V10C2 8.89543 2.89543 8 4 8H7C7.78878 8 8.47092 8.45663 8.79648 9.11996L11.9322 5.0235Z" fill="#3CBE78"/>
</svg>
