<svg width="72" height="72" viewBox="0 0 72 72" fill="none" xmlns="http://www.w3.org/2000/svg">
<path d="M0 24C0 12.6863 0 7.02944 3.51472 3.51472C7.02944 0 12.6863 0 24 0H48C59.3137 0 64.9706 0 68.4853 3.51472C72 7.02944 72 12.6863 72 24V48C72 59.3137 72 64.9706 68.4853 68.4853C64.9706 72 59.3137 72 48 72H24C12.6863 72 7.02944 72 3.51472 68.4853C0 64.9706 0 59.3137 0 48V24Z" fill="#F05F87"/>
<path fill-rule="evenodd" clip-rule="evenodd" d="M40.646 32.7091L50.7861 32.2481L50.7983 32.2605C54.2593 32.1359 54.9757 32.597 55 33.3073L54.0771 44.5844C53.8828 46.5657 53.1056 48.4348 51.8183 49.9426C50.5796 51.2884 48.8432 52.036 47.0337 51.9987H29.8137C29.3644 51.9987 29 51.6248 29 51.1638V34.5035C29 33.9802 29.17 33.4693 29.4615 33.0331C30.8944 30.9272 32.1575 28.6967 33.2262 26.379C34.4649 23.812 35.5821 21.1703 36.5414 18.4788C36.675 18.1299 37.0393 17.918 37.3793 18.0302C39.6259 18.7155 40.5123 19.8495 40.5245 21.2949L40.3668 22.3541L39.0551 30.5285C38.9823 30.7528 38.9337 30.9771 38.9459 31.2138C39.0066 32.111 39.7717 32.7839 40.646 32.7091ZM19.3752 35.124L24.7564 35.0008H24.7445C25.438 34.9761 26 35.5555 26 36.2581V50.5577C26 51.3467 25.3783 52 24.601 52H19.3992C18.6338 52 18 51.359 18 50.5577V36.5663C18 35.7897 18.6099 35.1364 19.3752 35.124Z" fill="white"/>
</svg>
