<svg width="88" height="88" viewBox="0 0 88 88" fill="none" xmlns="http://www.w3.org/2000/svg">
<path d="M44 88C68.3005 88 88 68.3005 88 44C88 19.6995 68.3005 0 44 0C19.6995 0 0 19.6995 0 44C0 68.3005 19.6995 88 44 88Z" fill="#001D46"/>
<path d="M49.4257 37.2211C48.6544 34.7641 46.9631 32.7569 44.6594 31.5641C43.2623 30.8417 41.7503 30.4736 40.2246 30.4736C39.2166 30.4736 38.2017 30.6338 37.214 30.9575C34.7277 31.7754 32.7082 33.5168 31.5276 35.8614C30.3572 38.1889 30.1542 40.8265 30.9559 43.2938C32.0756 46.7493 34.9171 49.254 38.4149 49.8947L37.5252 47.2093C35.4854 46.4153 33.9057 44.7353 33.1784 42.5884C32.5661 40.7004 32.7251 38.6864 33.6215 36.9076C34.5179 35.1321 36.0436 33.8167 37.9142 33.1999C39.7916 32.5831 41.7976 32.7432 43.5634 33.6565C45.3157 34.563 46.6045 36.0965 47.1931 37.9742C47.7039 39.5213 47.6734 41.1878 47.0984 42.7996L48.3331 45.5668C49.9196 43.1132 50.3289 40.0189 49.4156 37.2245L49.4257 37.2211Z" fill="white"/>
<path d="M47.718 56.7357C51.073 56.7357 54.0193 54.9633 55.6739 52.3081L53.2018 52.3441C51.8447 53.8352 49.8893 54.7737 47.718 54.7737H45.1805L45.8377 56.7357H47.718Z" fill="white"/>
<path d="M40.9647 54.3981H33.4121C29.3062 54.3981 25.9677 51.0606 25.9677 46.9559V33.4092C25.9677 29.3046 29.3095 25.9638 33.4154 25.9638H46.9662C51.0655 25.9638 54.4007 29.298 54.4007 33.3928V46.9625C54.4007 47.5428 54.3319 48.1099 54.204 48.6542L56.2176 48.6247C56.3159 48.0837 56.3684 47.5296 56.3684 46.9625V33.3961C56.3684 28.2128 52.151 24 46.9662 24H33.4154C28.224 24 24 28.2227 24 33.4125V46.9592C24 52.1457 28.2207 56.3684 33.4121 56.3684H41.6239L40.9647 54.4013V54.3981Z" fill="white"/>
<path d="M64.9505 62.3804L63.5463 51.6829C63.2035 50.6629 62.2377 50.0123 61.1764 50.0123L47.7082 50.1986L43.4067 40.6749C43.2188 40.1191 42.8463 39.6549 42.3156 39.4064L42.286 39.377C41.7553 39.0991 41.1323 39.037 40.6016 39.2233C39.448 39.5928 38.792 40.8319 39.1678 42.0056L45.6514 61.2067L46.2117 63.3416L42.1277 61.6709C42.0025 61.6088 38.9469 60.1572 37.078 62.3836C36.8605 62.6321 36.9231 63.0342 37.2033 63.2173C39.3853 64.6722 47.6456 69.9261 47.6456 69.9261C50.1704 71.5346 53.2556 71.9041 56.0937 71.0083L60.3029 69.6482C63.3881 68.6576 65.3526 65.5974 64.9472 62.3804H64.9505Z" fill="white"/>
</svg>
