<svg width="72" height="72" viewBox="0 0 72 72" fill="none" xmlns="http://www.w3.org/2000/svg">
<path d="M0 24C0 12.6863 0 7.02944 3.51472 3.51472C7.02944 0 12.6863 0 24 0H48C59.3137 0 64.9706 0 68.4853 3.51472C72 7.02944 72 12.6863 72 24V48C72 59.3137 72 64.9706 68.4853 68.4853C64.9706 72 59.3137 72 48 72H24C12.6863 72 7.02944 72 3.51472 68.4853C0 64.9706 0 59.3137 0 48V24Z" fill="#70AEFF"/>
<path d="M36 47C38.7614 47 41 44.7614 41 42C41 39.2386 38.7614 37 36 37C33.2386 37 31 39.2386 31 42C31 44.7614 33.2386 47 36 47Z" fill="white"/>
<path d="M46.3722 59C46.744 59 47.0362 58.6512 46.9964 58.2442C46.6378 54.9448 44.7918 49 36 49C27.2082 49 25.3622 54.9738 25.0036 58.2442C24.9638 58.6512 25.256 59 25.6278 59H46.3722Z" fill="white"/>
<path fill-rule="evenodd" clip-rule="evenodd" d="M53.8387 17.9645C52.4881 15.5181 49.787 14 46.8608 14H25.159C22.4182 14 19.7965 15.2922 18.4195 17.5379C14.4869 24.0116 19.3066 30.6232 25.7681 30.6232H39.2738L39.4592 30.7111L44.1332 35.88C44.3583 36.1183 44.7687 35.9803 44.7687 35.6541V30.7863C44.7687 30.7236 44.7952 30.6734 44.8482 30.6232H46.3179H46.3576C52.6073 30.5354 57.2813 24.25 53.8255 17.9645H53.8387ZM41.0036 21H24.9964C24.44 21 24 20.5454 24 20C24 19.4545 24.4529 19 24.9964 19H41.0036C41.56 19 42 19.4545 42 20C42 20.5454 41.5471 21 41.0036 21ZM24.9963 23C24.4529 23 24 23.4416 24 24C24 24.5455 24.4399 25 24.9963 25H37.0037C37.5471 25 38 24.5455 38 24C38 23.4546 37.5601 23 37.0037 23H24.9963Z" fill="white"/>
</svg>
