<svg width="72" height="72" viewBox="0 0 72 72" fill="none" xmlns="http://www.w3.org/2000/svg">
<path d="M0 24C0 12.6863 0 7.02944 3.51472 3.51472C7.02944 0 12.6863 0 24 0H48C59.3137 0 64.9706 0 68.4853 3.51472C72 7.02944 72 12.6863 72 24V48C72 59.3137 72 64.9706 68.4853 68.4853C64.9706 72 59.3137 72 48 72H24C12.6863 72 7.02944 72 3.51472 68.4853C0 64.9706 0 59.3137 0 48V24Z" fill="#7870FF"/>
<path fill-rule="evenodd" clip-rule="evenodd" d="M49.8617 22.6526C47.3122 21.4248 44.5783 20.5203 41.7198 20.0022C41.6678 19.9922 41.6158 20.0172 41.589 20.0671C41.2374 20.7235 40.8479 21.5798 40.5752 22.2528C37.5007 21.7697 34.442 21.7697 31.4305 22.2528C31.1577 21.5648 30.7541 20.7235 30.401 20.0671C30.3741 20.0188 30.3221 19.9938 30.2701 20.0022C27.4132 20.5186 24.6793 21.4232 22.1282 22.6526C22.1061 22.6626 22.0872 22.6793 22.0746 22.7009C16.889 30.8322 15.4684 38.7636 16.1653 46.5967C16.1685 46.635 16.1889 46.6717 16.2173 46.695C19.6387 49.3321 22.9528 50.933 26.2055 51.9942C26.2575 52.0108 26.3127 51.9909 26.3458 51.9459C27.1152 50.8431 27.8011 49.6803 28.3891 48.4575C28.4238 48.3858 28.3907 48.3009 28.3198 48.2726C27.2319 47.8394 26.196 47.3113 25.1995 46.7116C25.1207 46.6633 25.1144 46.545 25.1869 46.4883C25.3966 46.3234 25.6064 46.1518 25.8066 45.9786C25.8428 45.947 25.8933 45.9403 25.9359 45.9603C30.1064 47.9587 34.4963 48.684 38.8062 48.1361C39.6492 45.6753 41.1143 43.5031 43.0137 41.8072C42.8968 41.8204 42.7781 41.8272 42.6579 41.8272C40.6871 41.8272 39.0632 39.9281 39.0632 37.5958C39.0632 35.2635 40.6556 33.3644 42.6579 33.3644C44.6761 33.3644 46.2842 35.2802 46.2527 37.5958C46.2527 38.4472 46.0426 39.241 45.6775 39.9056C47.8433 38.692 50.3408 38 53 38C53.9254 38 54.8313 38.0838 55.7104 38.2442C54.996 32.5896 52.9824 27.4401 49.9137 22.7026C49.9026 22.6793 49.8838 22.6626 49.8617 22.6526ZM29.3667 41.8272C27.3958 41.8272 25.7719 39.9281 25.7719 37.5958C25.7719 35.2635 27.3643 33.3644 29.3667 33.3644C31.3848 33.3644 32.993 35.2802 32.9615 37.5958C32.9615 39.9281 31.369 41.8272 29.3667 41.8272ZM64 53C64 59.0751 59.0751 64 53 64C46.9249 64 42 59.0751 42 53C42 46.9249 46.9249 42 53 42C59.0751 42 64 46.9249 64 53ZM53 52.3184C51.1492 52.3184 49.6357 50.9151 49.6357 49.1342C49.6357 47.4033 51.1657 46 53 46C54.8343 46 56.3643 47.389 56.3643 49.1271C56.3643 50.9151 54.8508 52.3184 53 52.3184ZM47.604 59C46.6005 59 46 58.5797 46 57.8816C46 56.0581 48.7309 53.5649 53 53.5649C57.2609 53.5649 60 56.0581 60 57.8816C60 58.5797 59.3995 59 58.396 59H47.604Z" fill="white"/>
</svg>
