<svg xmlns="http://www.w3.org/2000/svg" width="32" height="32" fill="none" xmlns:v="https://vecta.io/nano"><path fill-rule="evenodd" d="M12 3.627v3.777c0 .309-.148.6-.4.786L9.2 9.958A2.93 2.93 0 0 0 8 12.316v4.421c0 .543.448.983 1 .983s1-.44 1-.983v-4.421c0-.309.148-.6.4-.786l2.4-1.768A2.93 2.93 0 0 0 14 7.404V3.153a13.1 13.1 0 0 1 4 0v4.251a2.93 2.93 0 0 0 1.2 2.358l2.4 1.768c.252.186.4.477.4.786v4.421c0 .543.448.983 1 .983s1-.44 1-.983v-4.421a2.93 2.93 0 0 0-1.2-2.358l-2.4-1.768c-.252-.186-.4-.477-.4-.786V3.627c5.223 1.687 9 6.589 9 12.373 0 5.408-3.302 10.045-8 12.004v-2.425a2.93 2.93 0 0 0-1.2-2.358l-2.4-1.768c-.252-.186-.4-.477-.4-.786v-6.386c0-.543-.448-.982-1-.982s-1 .44-1 .982v6.386a2.93 2.93 0 0 0 1.2 2.358l2.4 1.768c.252.186.4.477.4.786v3.073c-.963.227-1.968.348-3 .348-2.164 0-4.205-.529-6-1.464v-4.413c0-.543-.448-.982-1-.982s-1 .44-1 .982v3.125C4.956 23.868 3 20.163 3 16c0-5.784 3.777-10.686 9-12.373z" fill="#416ef0"/></svg>