<svg width="88" height="88" viewBox="0 0 88 88" fill="none" xmlns="http://www.w3.org/2000/svg">
<path fill-rule="evenodd" clip-rule="evenodd" d="M30 48C30 54.0751 25.0751 59 19 59C12.9249 59 8 54.0751 8 48C8 41.9249 12.9249 37 19 37C25.0751 37 30 41.9249 30 48ZM18.9378 62C8.47873 62 0 70.4787 0 80.9378V82H22.0346C21.3681 80.4608 21 78.7718 21 77C21 70.897 25.3672 65.7763 31.2564 64.3777C28.5339 62.8629 25.3988 62 22.0622 62H18.9378ZM46 77C46 83.0751 41.0751 88 35 88C28.9249 88 24 83.0751 24 77C24 70.9249 28.9249 66 35 66C41.0751 66 46 70.9249 46 77ZM40.6766 74.8011L34.6453 81.6912C34.4413 81.8877 34.1616 82 33.8702 82C33.5788 82 33.305 81.8877 33.0952 81.6912L29.319 78.0524C28.8937 77.6369 28.8937 76.9743 29.319 76.5587C29.7503 76.1488 30.4379 76.1488 30.8691 76.5587L33.8702 79.4562L39.1323 73.3074C39.5577 72.8975 40.2512 72.8975 40.6766 73.3074C41.1078 73.723 41.1078 74.3856 40.6766 74.8011Z" fill="white"/>
</svg>
