<svg width="24" height="24" viewBox="0 0 24 24" fill="none" xmlns="http://www.w3.org/2000/svg">
<path fill-rule="evenodd" clip-rule="evenodd" d="M4.1267 5.66858C9.35207 4.77714 14.655 4.77714 19.8804 5.66858C21.1057 5.88306 22 6.90186 22 8.10162V15.8967C22 17.0965 21.1057 18.1153 19.8804 18.323C17.2606 18.7721 14.6268 19 12 19C9.37323 19 6.73938 18.7721 4.1267 18.323C2.8943 18.1153 2 17.0965 2 15.8967V8.10162C2 6.90186 2.8943 5.88306 4.1267 5.66858ZM10.8013 14.9145L14.7643 12.4165V12.4106C15.0786 12.2108 15.0786 11.7817 14.7643 11.5936L10.8013 9.07799C10.45 8.87227 10 9.09563 10 9.48943V14.503C10 14.8968 10.4684 15.1378 10.8013 14.9145Z" fill="#3CBE78"/>
</svg>
