<svg xmlns="http://www.w3.org/2000/svg" width="32" height="32" fill="none" xmlns:v="https://vecta.io/nano"><path fill-rule="evenodd" d="M11.649 6.839c.235-.42-.167-.953-.606-.753a12.09 12.09 0 0 0-5.525 5.082c-.176.314.06.689.422.689H9.5a.5.5 0 0 0 .487-.394c.304-1.402.721-2.678 1.23-3.775l.433-.848zm-6.714 6.488a.48.48 0 0 0-.464.342C4.164 14.726 4 15.844 4 17s.164 2.274.471 3.332a.48.48 0 0 0 .464.342h4.162a.5.5 0 0 0 .494-.556c-.114-1.002-.174-2.046-.174-3.117s.06-2.115.174-3.117a.5.5 0 0 0-.494-.556H4.935zm6.714 13.835c.235.42-.167.953-.606.753a12.09 12.09 0 0 1-5.525-5.082c-.176-.314.06-.689.422-.689H9.5a.5.5 0 0 1 .487.394c.304 1.402.721 2.678 1.23 3.776l.433.848zm.909-1.464c-.4-.861-.743-1.86-1.011-2.965a.48.48 0 0 1 .473-.589H15c.009 1.757 1.006 3.776 2.547 5.783l.254.325c-.579.505-1.172.749-1.735.749-1.17 0-2.464-1.053-3.508-3.303zm2.568-5.023c.559-3.16 2.921-5.686 5.968-6.442l-.056-.484c-.03-.242-.239-.421-.484-.421h-8.975c-.245 0-.453.179-.484.421-.13 1.033-.2 2.123-.2 3.253s.07 2.22.2 3.253c.03.242.239.421.484.421h3.547zM23 14c1.928 0 3.696.692 5.078 1.845-.072-.748-.213-1.475-.416-2.176a.48.48 0 0 0-.464-.342h-4.162a.5.5 0 0 0-.494.556l.014.13L23 14zm3.615-2.832c.176.314-.06.689-.422.689h-3.559a.5.5 0 0 1-.487-.394c-.304-1.402-.721-2.678-1.23-3.775l-.433-.848c-.235-.42.167-.953.607-.753a12.09 12.09 0 0 1 5.525 5.082zM16.066 5c-1.17 0-2.464 1.053-3.508 3.303-.4.862-.743 1.861-1.011 2.965a.48.48 0 0 0 .473.589h8.093a.48.48 0 0 0 .473-.589c-.269-1.104-.611-2.103-1.011-2.965C18.53 6.053 17.237 5 16.066 5zM17 22.409C17 18.87 19.686 16 23 16s6 2.869 6 6.409c0 1.392-.749 2.994-1.911 4.586-1.128 1.546-2.514 2.905-3.514 3.799-.341.276-.812.275-1.153 0-.999-.894-2.384-2.252-3.512-3.799-1.161-1.592-1.91-3.193-1.91-4.585zm8.571-.233c0 1.462-1.151 2.647-2.571 2.647s-2.571-1.185-2.571-2.647S21.58 19.529 23 19.529s2.571 1.185 2.571 2.647z" fill="#416ef0"/></svg>