<svg xmlns="http://www.w3.org/2000/svg" width="72" height="72" fill="none" xmlns:v="https://vecta.io/nano"><path d="M0 24C0 12.686 0 7.029 3.515 3.515S12.686 0 24 0h24c11.314 0 16.971 0 20.485 3.515S72 12.686 72 24v24c0 11.314 0 16.971-3.515 20.485S59.314 72 48 72H24c-11.314 0-16.971 0-20.485-3.515S0 59.314 0 48V24z" fill="#000"/><path fill-rule="evenodd" d="M46.352 20h5.52l-12.06 13.555 5.193 6.751c-.904.571-1.743 1.235-2.503 1.98L27.729 23.079h-3.282l16.416 21.106a14.98 14.98 0 0 0-1.702 3.02l-4.971-6.391L24.235 52h-5.524l12.9-14.498L18 20h11.391l7.865 10.225L46.352 20zM64 53c0 6.075-4.925 11-11 11s-11-4.925-11-11 4.925-11 11-11 11 4.925 11 11zm-12.372-1.97L48.314 48 45 51.03l1.293 1.355 1.073-.98v3.747c0 1.574 1.303 2.848 2.91 2.848h3.891v-1.855h-3.891c-.559 0-1.014-.447-1.014-.993v-3.747l1.073.98 1.293-1.355zM52 48v1.855h3.82c.549 0 .996.447.996.993v3.747l-1.053-.98-1.27 1.355L57.746 58 61 54.97l-1.27-1.355-1.053.98v-3.747c0-1.574-1.279-2.848-2.857-2.848H52z" fill="#fff"/></svg>