<svg width="72" height="72" viewBox="0 0 72 72" fill="none" xmlns="http://www.w3.org/2000/svg">
<path d="M0 24C0 12.6863 0 7.02944 3.51472 3.51472C7.02944 0 12.6863 0 24 0H48C59.3137 0 64.9706 0 68.4853 3.51472C72 7.02944 72 12.6863 72 24V48C72 59.3137 72 64.9706 68.4853 68.4853C64.9706 72 59.3137 72 48 72H24C12.6863 72 7.02944 72 3.51472 68.4853C0 64.9706 0 59.3137 0 48V24Z" fill="black"/>
<path fill-rule="evenodd" clip-rule="evenodd" d="M46.3521 20H51.8724L39.8123 33.5549L45.0051 40.3059C44.1008 40.8766 43.2618 41.5413 42.5016 42.2863L27.7288 23.0786H24.4464L40.8627 44.1842C40.1851 45.1155 39.6121 46.1278 39.1608 47.2039L34.1903 40.8131L24.2345 52H18.7109L31.6104 37.5015L18 20H29.3909L37.2558 30.2252L46.3521 20ZM64 53C64 59.0751 59.0751 64 53 64C46.9249 64 42 59.0751 42 53C42 46.9249 46.9249 42 53 42C59.0751 42 64 46.9249 64 53ZM52.3572 47.3521C52.5455 47.1228 52.8302 46.993 53.1282 47.0003C53.3895 47.0067 53.5868 47.1366 53.6861 47.2068C53.792 47.2816 53.9126 47.3841 54.0322 47.4858L54.0498 47.5008L59.4927 52.1289L59.5053 52.1396C59.5724 52.1966 59.6503 52.2628 59.7131 52.3263C59.7842 52.3981 59.8837 52.5122 59.9432 52.6768C60.0189 52.8857 60.0189 53.1143 59.9432 53.3232C59.8837 53.4878 59.7842 53.6019 59.7131 53.6737C59.6503 53.7372 59.5724 53.8034 59.5053 53.8604L59.5053 53.8604L59.4927 53.8711L54.0322 58.5142L54.0322 58.5142C53.9126 58.6159 53.792 58.7185 53.6861 58.7932C53.5868 58.8634 53.3895 58.9933 53.1282 58.9997C52.8302 59.007 52.5455 58.8772 52.3572 58.6479C52.192 58.4469 52.163 58.2138 52.1521 58.0933C52.1404 57.9649 52.1404 57.8073 52.1404 57.6511V57.6511L52.1404 55.6749C51.535 55.7787 50.9453 55.9651 50.3884 56.2302C49.5201 56.6434 48.7521 57.2379 48.137 57.973C47.964 58.1796 47.6791 58.2566 47.4244 58.1654C47.1697 58.0742 47 57.8344 47 57.5658V57.1757C47.0009 55.5052 47.6217 53.8932 48.744 52.6478C49.6516 51.6407 50.8357 50.9301 52.1404 50.596V48.3719L52.1404 48.3489V48.3489C52.1404 48.1927 52.1404 48.0351 52.1521 47.9067C52.163 47.7862 52.192 47.5531 52.3572 47.3521Z" fill="white"/>
</svg>
