<svg width="141" height="28" viewBox="0 0 141 28" fill="none" xmlns="http://www.w3.org/2000/svg">
<g clip-path="url(#clip0_9233_10315)">
<path d="M138.379 11.8065L135.791 18.3976H135.714L133.013 11.8065H130.572L134.618 21.0202L132.306 26.1447H134.678L140.916 11.8065H138.379ZM120.09 6.33697H117.83V21.5379H120.09V6.33697ZM111.584 6.33697H106.149V21.5379H108.426V15.7836H111.592C112.231 15.8055 112.867 15.7003 113.464 15.4742C114.062 15.2481 114.608 14.9056 115.072 14.4666C115.536 14.0276 115.908 13.5007 116.167 12.9167C116.425 12.3327 116.565 11.7032 116.579 11.0646C116.565 10.4249 116.425 9.79421 116.166 9.20916C115.907 8.62411 115.534 8.09635 115.07 7.65653C114.605 7.2167 114.057 6.87356 113.459 6.64704C112.861 6.42052 112.223 6.31512 111.584 6.33697ZM111.644 13.6613H108.426V8.48511H111.653C112.339 8.48511 112.997 8.75778 113.483 9.24315C113.968 9.72852 114.241 10.3868 114.241 11.0732C114.241 11.7596 113.968 12.4179 113.483 12.9033C112.997 13.3887 112.339 13.6613 111.653 13.6613H111.644ZM125.663 11.4787C124.835 11.4312 124.011 11.6263 123.293 12.04C122.574 12.4538 121.992 13.0682 121.617 13.808L123.636 14.6707C123.836 14.3049 124.138 14.0056 124.506 13.8094C124.874 13.6132 125.291 13.5288 125.706 13.5664C125.991 13.5379 126.279 13.566 126.553 13.649C126.828 13.7321 127.083 13.8686 127.304 14.0506C127.525 14.2326 127.708 14.4565 127.843 14.7095C127.977 14.9625 128.06 15.2396 128.087 15.5248V15.6801C127.364 15.2888 126.554 15.0842 125.732 15.0848C123.567 15.0848 121.358 16.2753 121.358 18.5356C121.358 20.5716 123.127 21.8829 125.128 21.8829C125.698 21.9191 126.267 21.8002 126.774 21.5389C127.281 21.2776 127.708 20.8837 128.01 20.3991H128.096V21.5724H130.304V15.7232C130.304 13.0229 128.286 11.5218 125.68 11.5218L125.663 11.4787ZM125.396 19.8124C124.654 19.8124 123.619 19.4329 123.619 18.5184C123.619 17.3451 124.904 16.8965 126.025 16.8965C126.749 16.8771 127.464 17.053 128.096 17.4055C128.013 18.0652 127.693 18.6725 127.197 19.1149C126.7 19.5574 126.061 19.8052 125.396 19.8124ZM43.5939 21.8657C41.4471 21.8728 39.3841 21.0337 37.8516 19.5304C36.3192 18.027 35.4408 15.9804 35.4068 13.8339C35.4408 11.6874 36.3192 9.64079 37.8516 8.13742C39.3841 6.63405 41.4471 5.79501 43.5939 5.80209C44.6168 5.78506 45.6328 5.97239 46.5824 6.35311C47.532 6.73383 48.396 7.30028 49.1238 8.01925L47.5623 9.56349C46.5032 8.52571 45.0766 7.94888 43.5939 7.95886C42.0449 7.95886 40.5593 8.5742 39.464 9.66951C38.3687 10.7648 37.7533 12.2504 37.7533 13.7994C37.7533 15.3484 38.3687 16.8339 39.464 17.9293C40.5593 19.0246 42.0449 19.6399 43.5939 19.6399C44.3477 19.6708 45.0996 19.5433 45.801 19.2654C46.5024 18.9875 47.1377 18.5655 47.6658 18.0266C48.368 17.2696 48.791 16.2958 48.865 15.266H43.5939V13.1351H51.0131C51.094 13.5877 51.1316 14.047 51.1253 14.5068C51.1998 16.4165 50.5142 18.2779 49.2187 19.683C48.4873 20.4219 47.6083 20.9982 46.6391 21.3742C45.6698 21.7503 44.6322 21.9178 43.5939 21.8657ZM62.5993 16.6894C62.6276 17.3795 62.5162 18.0682 62.2716 18.7141C62.0271 19.36 61.6545 19.9498 61.1762 20.4481C60.698 20.9464 60.124 21.3429 59.4886 21.6137C58.8533 21.8845 58.1698 22.0241 57.4791 22.0241C56.7885 22.0241 56.1049 21.8845 55.4696 21.6137C54.8343 21.3429 54.2602 20.9464 53.782 20.4481C53.3037 19.9498 52.9312 19.36 52.6866 18.7141C52.4421 18.0682 52.3306 17.3795 52.359 16.6894C52.3306 15.9994 52.4421 15.3107 52.6866 14.6648C52.9312 14.0189 53.3037 13.4291 53.782 12.9308C54.2602 12.4325 54.8343 12.036 55.4696 11.7652C56.1049 11.4944 56.7885 11.3548 57.4791 11.3548C58.1698 11.3548 58.8533 11.4944 59.4886 11.7652C60.124 12.036 60.698 12.4325 61.1762 12.9308C61.6545 13.4291 62.0271 14.0189 62.2716 14.6648C62.5162 15.3107 62.6276 15.9994 62.5993 16.6894ZM60.3562 16.6894C60.3943 16.2887 60.3482 15.8844 60.2209 15.5025C60.0936 15.1206 59.888 14.7695 59.6171 14.4717C59.3462 14.1739 59.0161 13.9359 58.648 13.7731C58.2798 13.6103 57.8817 13.5262 57.4791 13.5262C57.0765 13.5262 56.6784 13.6103 56.3103 13.7731C55.9421 13.9359 55.612 14.1739 55.3411 14.4717C55.0703 14.7695 54.8646 15.1206 54.7373 15.5025C54.61 15.8844 54.5639 16.2887 54.602 16.6894C54.5639 17.0902 54.61 17.4945 54.7373 17.8764C54.8646 18.2583 55.0703 18.6094 55.3411 18.9072C55.612 19.205 55.9421 19.443 56.3103 19.6058C56.6784 19.7686 57.0765 19.8527 57.4791 19.8527C57.8817 19.8527 58.2798 19.7686 58.648 19.6058C59.0161 19.443 59.3462 19.205 59.6171 18.9072C59.888 18.6094 60.0936 18.2583 60.2209 17.8764C60.3482 17.4945 60.3943 17.0902 60.3562 16.6894ZM74.0733 16.6894C74.0733 18.0463 73.5343 19.3475 72.5749 20.3069C71.6155 21.2663 70.3142 21.8053 68.9574 21.8053C67.6006 21.8053 66.2994 21.2663 65.34 20.3069C64.3806 19.3475 63.8416 18.0463 63.8416 16.6894C63.8416 15.3326 64.3806 14.0314 65.34 13.072C66.2994 12.1126 67.6006 11.5736 68.9574 11.5736C70.3142 11.5736 71.6155 12.1126 72.5749 13.072C73.5343 14.0314 74.0733 15.3326 74.0733 16.6894ZM71.8389 16.6894C71.8769 16.2887 71.8308 15.8844 71.7035 15.5025C71.5763 15.1206 71.3706 14.7695 71.0997 14.4717C70.8289 14.1739 70.4988 13.9359 70.1306 13.7731C69.7624 13.6103 69.3643 13.5262 68.9617 13.5262C68.5592 13.5262 68.1611 13.6103 67.7929 13.7731C67.4247 13.9359 67.0946 14.1739 66.8237 14.4717C66.5529 14.7695 66.3472 15.1206 66.2199 15.5025C66.0927 15.8844 66.0466 16.2887 66.0846 16.6894C66.0466 17.0902 66.0927 17.4945 66.2199 17.8764C66.3472 18.2583 66.5529 18.6094 66.8237 18.9072C67.0946 19.205 67.4247 19.443 67.7929 19.6058C68.1611 19.7686 68.5592 19.8527 68.9617 19.8527C69.3643 19.8527 69.7624 19.7686 70.1306 19.6058C70.4988 19.443 70.8289 19.205 71.0997 18.9072C71.3706 18.6094 71.5763 18.2583 71.7035 17.8764C71.8308 17.4945 71.8769 17.0902 71.8389 16.6894ZM85.2712 11.8324V21.1238C85.2712 24.9369 83.0023 26.507 80.3279 26.507C79.3476 26.5153 78.3868 26.2329 77.5669 25.6955C76.7469 25.1581 76.1046 24.3898 75.721 23.4876L77.6794 22.6249C77.8825 23.1516 78.2363 23.6067 78.6966 23.9335C79.1569 24.2604 79.7033 24.4443 80.2675 24.4624C81.9929 24.4624 83.0454 23.4013 83.0454 21.4257V20.6838H82.9592C82.6208 21.0614 82.2055 21.3622 81.7412 21.566C81.277 21.7699 80.7745 21.8721 80.2675 21.8657C78.8947 21.8657 77.5781 21.3203 76.6074 20.3496C75.6366 19.3789 75.0913 18.0623 75.0913 16.6894C75.0913 15.3166 75.6366 14 76.6074 13.0293C77.5781 12.0586 78.8947 11.5132 80.2675 11.5132C80.7778 11.502 81.2848 11.5992 81.7547 11.7985C82.2247 11.9978 82.647 12.2946 82.9937 12.6692H83.0799V11.8065H85.2712V11.8324ZM83.2611 16.7153C83.2928 16.3249 83.2457 15.9321 83.1227 15.5602C82.9996 15.1883 82.8031 14.8449 82.5448 14.5504C82.2865 14.2559 81.9717 14.0163 81.619 13.8458C81.2664 13.6753 80.883 13.5773 80.4918 13.5578C80.0929 13.571 79.7007 13.6637 79.338 13.8302C78.9754 13.9968 78.6495 14.2341 78.3796 14.5281C78.1097 14.8221 77.9012 15.1669 77.7661 15.5425C77.6311 15.9181 77.5723 16.3168 77.5931 16.7153C77.5746 17.1112 77.6354 17.5068 77.7718 17.8788C77.9082 18.2509 78.1175 18.592 78.3875 18.8821C78.6575 19.1722 78.9827 19.4054 79.3441 19.5681C79.7054 19.7309 80.0956 19.8198 80.4918 19.8297C80.8807 19.8146 81.2626 19.7212 81.6145 19.5549C81.9663 19.3887 82.281 19.1531 82.5397 18.8622C82.7983 18.5714 82.9955 18.2313 83.1194 17.8624C83.2434 17.4935 83.2916 17.1033 83.2611 16.7153ZM89.2655 6.35422V21.5465H86.988V6.35422H89.2655ZM98.2377 18.3976L100.015 19.5709C99.5404 20.279 98.8984 20.8589 98.1459 21.2593C97.3934 21.6596 96.5537 21.8679 95.7013 21.8657C95.0233 21.8754 94.3503 21.7474 93.7232 21.4895C93.0961 21.2316 92.5278 20.8491 92.0527 20.3652C91.5777 19.8813 91.2058 19.306 90.9595 18.6742C90.7132 18.0424 90.5977 17.3672 90.62 16.6894C90.519 15.5243 90.8503 14.3627 91.5507 13.4262C92.2511 12.4896 93.2717 11.8435 94.4179 11.6111C95.5641 11.3787 96.7557 11.5761 97.7656 12.1659C98.7756 12.7556 99.5332 13.6963 99.8941 14.8087L100.127 15.404L93.2254 18.2596C93.4404 18.743 93.7953 19.1509 94.2443 19.4307C94.6933 19.7106 95.2158 19.8495 95.7445 19.8297C96.2473 19.8218 96.74 19.6863 97.1761 19.4358C97.6122 19.1852 97.9775 18.828 98.2377 18.3976ZM92.794 16.5342L97.4354 14.619C97.2557 14.2674 96.9769 13.9762 96.6334 13.7814C96.2899 13.5867 95.8969 13.4969 95.5029 13.5233C95.1262 13.5398 94.7566 13.6311 94.4156 13.7921C94.0746 13.953 93.7691 14.1802 93.5169 14.4605C93.2647 14.7408 93.0709 15.0686 92.9468 15.4246C92.8227 15.7806 92.7707 16.1578 92.794 16.5342Z" fill="#5F6368"/>
<path d="M12.5771 13.3767L0.999619 25.5064C1.12962 25.9671 1.36325 26.3921 1.68265 26.7487C2.00204 27.1053 2.39875 27.3842 2.84245 27.564C3.28615 27.7438 3.76508 27.8198 4.24265 27.7861C4.72021 27.7525 5.18375 27.6101 5.59784 27.3698L18.6247 19.9505L12.5771 13.3767Z" fill="#EA4335"/>
<path d="M24.2835 11.3156L18.6501 8.08911L12.3092 13.6536L18.6759 19.9341L24.2663 16.7421C24.7615 16.4827 25.1764 16.0928 25.4658 15.6145C25.7553 15.1363 25.9083 14.5879 25.9083 14.0288C25.9083 13.4698 25.7553 12.9214 25.4658 12.4431C25.1764 11.9649 24.7615 11.5749 24.2663 11.3156H24.2835Z" fill="#FBBC04"/>
<path d="M1.00207 2.48999C0.932089 2.74871 0.897268 3.01567 0.898548 3.28368V24.7133C0.899248 24.9812 0.934036 25.2479 1.00207 25.507L12.9764 13.6879L1.00207 2.48999Z" fill="#4285F4"/>
<path d="M12.6634 13.9984L18.6506 8.08884L5.64098 0.635055C5.15155 0.348412 4.5949 0.196599 4.02772 0.195075C3.34271 0.193717 2.67605 0.416383 2.12936 0.829129C1.58266 1.24188 1.18592 1.82206 0.999619 2.48125L12.6634 13.9984Z" fill="#34A853"/>
</g>
<defs>
<clipPath id="clip0_9233_10315">
<rect width="140" height="27.6066" fill="white" transform="translate(0.900391 0.196777)"/>
</clipPath>
</defs>
</svg>
